<?xml version="1.0" encoding="utf-8" standalone="no"?>
<!DOCTYPE svg PUBLIC "-//W3C//DTD SVG 1.1//EN"
  "http://www.w3.org/Graphics/SVG/1.1/DTD/svg11.dtd">
<svg xmlns:xlink="http://www.w3.org/1999/xlink" width="856.621562pt" height="351.43625pt" viewBox="0 0 856.621562 351.43625" xmlns="http://www.w3.org/2000/svg" version="1.1">
 <metadata>
  <rdf:RDF xmlns:dc="http://purl.org/dc/elements/1.1/" xmlns:cc="http://creativecommons.org/ns#" xmlns:rdf="http://www.w3.org/1999/02/22-rdf-syntax-ns#">
   <cc:Work>
    <dc:type rdf:resource="http://purl.org/dc/dcmitype/StillImage"/>
    <dc:date>2025-11-27T21:57:56.385006</dc:date>
    <dc:format>image/svg+xml</dc:format>
    <dc:creator>
     <cc:Agent>
      <dc:title>Matplotlib v3.10.7, https://matplotlib.org/</dc:title>
     </cc:Agent>
    </dc:creator>
   </cc:Work>
  </rdf:RDF>
 </metadata>
 <defs>
  <style type="text/css">*{stroke-linejoin: round; stroke-linecap: butt}</style>
 </defs>
 <g id="figure_1">
  <g id="patch_1">
   <path d="M 0 351.43625 
L 856.621562 351.43625 
L 856.621562 0 
L 0 0 
z
" style="fill: #ffffff"/>
  </g>
  <g id="axes_1">
   <g id="patch_2">
    <path d="M 53.751563 155.958125 
L 849.421563 155.958125 
L 849.421563 22.318125 
L 53.751563 22.318125 
z
" style="fill: #ffffff"/>
   </g>
   <g id="line2d_1">
    <path d="M 53.751563 82.165351 
L 849.421563 82.165351 
" clip-path="url(#p798f192b31)" style="fill: none; stroke: #000000; stroke-width: 0.5; stroke-linecap: square"/>
   </g>
   <g id="patch_3">
    <path d="M 78.17439 79.316633 
Q 75.711308 80.740992 73.062126 81.456423 
Q 70.412944 82.165351 67.58861 82.165351 
Q 61.206491 82.165351 57.479027 77.924793 
Q 53.751562 73.684236 53.751562 66.432362 
Q 53.751562 59.095937 57.544709 54.887899 
Q 61.343329 50.679861 67.949862 50.679861 
Q 70.495047 50.679861 72.826765 51.252206 
Q 75.163956 51.818047 77.232945 52.936722 
L 77.232945 59.213008 
Q 75.098274 57.775641 72.985497 57.066713 
Q 70.87272 56.351281 68.748996 56.351281 
Q 64.819011 56.351281 62.689814 58.965858 
Q 60.560616 61.573931 60.560616 66.432362 
Q 60.560616 71.245265 62.613184 73.872849 
Q 64.665753 76.49393 68.442479 76.49393 
Q 69.4715 76.49393 70.352736 76.34434 
Q 71.233972 76.188246 71.934582 75.86305 
L 71.934582 69.970496 
L 67.911548 69.970496 
L 67.911548 64.72183 
L 78.17439 64.72183 
L 78.17439 79.316633 
z
" clip-path="url(#p798f192b31)" style="fill: #ffa600"/>
   </g>
   <g id="patch_4">
    <path d="M 96.377515 79.976479 
L 86.984889 79.976479 
L 85.501842 82.165351 
L 79.459802 82.165351 
L 88.088435 70.149729 
L 95.253995 70.149729 
L 103.882629 82.165351 
L 97.845582 82.165351 
L 96.377515 79.976479 
z
M 88.482915 77.746404 
L 94.864509 77.746404 
L 91.678705 72.966937 
L 88.482915 77.746404 
z
" clip-path="url(#p798f192b31)" style="fill: #008000"/>
   </g>
   <g id="patch_5">
    <path d="M 129.590868 81.543527 
Q 127.127786 81.854439 124.478604 82.010605 
Q 121.829423 82.165351 119.005088 82.165351 
Q 112.622969 82.165351 108.895505 81.239713 
Q 105.168041 80.314076 105.168041 78.731122 
Q 105.168041 77.129712 108.961187 76.211173 
Q 112.759807 75.292634 119.36634 75.292634 
Q 121.911525 75.292634 124.243243 75.417566 
Q 126.580434 75.541079 128.649423 75.785266 
L 128.649423 77.155266 
Q 126.514752 76.841515 124.401975 76.686769 
Q 122.289198 76.530603 120.165474 76.530603 
Q 116.235489 76.530603 114.106292 77.101318 
Q 111.977094 77.670614 111.977094 78.731122 
Q 111.977094 79.781692 114.029663 80.355247 
Q 116.082231 80.927382 119.858957 80.927382 
Q 120.887978 80.927382 121.769214 80.894729 
Q 122.65045 80.860656 123.35106 80.789672 
L 123.35106 79.503433 
L 119.328026 79.503433 
L 119.328026 78.357744 
L 129.590868 78.357744 
L 129.590868 81.543527 
z
" clip-path="url(#p798f192b31)" style="fill: #ffa600"/>
   </g>
   <g id="patch_6">
    <path d="M 155.299107 80.942111 
Q 152.836025 81.553731 150.186843 81.860937 
Q 147.537662 82.165351 144.713328 82.165351 
Q 138.331208 82.165351 134.603744 80.344455 
Q 130.87628 78.523558 130.87628 75.409602 
Q 130.87628 72.25934 134.669426 70.452408 
Q 138.468046 68.645475 145.07458 68.645475 
Q 147.619764 68.645475 149.951482 68.891241 
Q 152.288673 69.134213 154.357662 69.614572 
L 154.357662 72.30961 
Q 152.222991 71.692405 150.110214 71.387991 
Q 147.997437 71.080785 145.873713 71.080785 
Q 141.943729 71.080785 139.814531 72.203484 
Q 137.685333 73.323392 137.685333 75.409602 
Q 137.685333 77.476264 139.737902 78.604549 
Q 141.79047 79.730042 145.567196 79.730042 
Q 146.596217 79.730042 147.477453 79.665808 
Q 148.358689 79.598781 149.059299 79.459142 
L 149.059299 76.928878 
L 145.036265 76.928878 
L 145.036265 74.6751 
L 155.299107 74.6751 
L 155.299107 80.942111 
z
" clip-path="url(#p798f192b31)" style="fill: #ffa600"/>
   </g>
   <g id="patch_7">
    <path d="M 224.918711 78.696002 
L 215.526084 78.696002 
L 214.043038 82.165351 
L 208.000997 82.165351 
L 216.62963 63.120663 
L 223.795191 63.120663 
L 232.423824 82.165351 
L 226.386777 82.165351 
L 224.918711 78.696002 
z
M 217.024111 75.161347 
L 223.405704 75.161347 
L 220.219901 67.58592 
L 217.024111 75.161347 
z
" clip-path="url(#p798f192b31)" style="fill: #008000"/>
   </g>
   <g id="patch_8">
    <path d="M 258.132063 79.917971 
Q 256.089136 81.031946 253.880067 81.59541 
Q 251.670998 82.165351 249.26502 82.165351 
Q 242.090161 82.165351 237.899699 77.942608 
Q 233.709236 73.719865 233.709236 66.498457 
Q 233.709236 59.251142 237.899699 55.034875 
Q 242.090161 50.812132 249.26502 50.812132 
Q 251.670998 50.812132 253.880067 51.382073 
Q 256.089136 51.945537 258.132063 53.059512 
L 258.132063 59.309431 
Q 256.070676 57.832766 254.070822 57.146247 
Q 252.070969 56.459727 249.8619 56.459727 
Q 245.899113 56.459727 243.62851 59.134563 
Q 241.36406 61.802922 241.36406 66.498457 
Q 241.36406 71.174561 243.62851 73.849397 
Q 245.899113 76.517756 249.8619 76.517756 
Q 252.070969 76.517756 254.070822 75.831237 
Q 256.070676 75.13824 258.132063 73.661576 
L 258.132063 79.917971 
z
" clip-path="url(#p798f192b31)" style="fill: #0000ff"/>
   </g>
   <g id="patch_9">
    <path d="M 276.335189 78.834017 
L 266.942562 78.834017 
L 265.459516 82.165351 
L 259.417475 82.165351 
L 268.046109 63.878287 
L 275.211669 63.878287 
L 283.840302 82.165351 
L 277.803255 82.165351 
L 276.335189 78.834017 
z
M 268.440589 75.439976 
L 274.822182 75.439976 
L 271.636379 68.16591 
L 268.440589 75.439976 
z
" clip-path="url(#p798f192b31)" style="fill: #008000"/>
   </g>
   <g id="patch_10">
    <path d="M 309.548541 80.096433 
Q 307.505614 81.121949 305.296545 81.640669 
Q 303.087476 82.165351 300.681498 82.165351 
Q 293.506639 82.165351 289.316177 78.277932 
Q 285.125714 74.390513 285.125714 67.74255 
Q 285.125714 61.070738 289.316177 57.189281 
Q 293.506639 53.301862 300.681498 53.301862 
Q 303.087476 53.301862 305.296545 53.826545 
Q 307.505614 54.345265 309.548541 55.37078 
L 309.548541 61.124398 
Q 307.487154 59.764994 305.4873 59.132991 
Q 303.487447 58.500987 301.278378 58.500987 
Q 297.315591 58.500987 295.044988 60.963416 
Q 292.780538 63.419883 292.780538 67.74255 
Q 292.780538 72.04733 295.044988 74.509759 
Q 297.315591 76.966226 301.278378 76.966226 
Q 303.487447 76.966226 305.4873 76.334223 
Q 307.487154 75.696257 309.548541 74.336853 
L 309.548541 80.096433 
z
" clip-path="url(#p798f192b31)" style="fill: #0000ff"/>
   </g>
   <g id="patch_11">
    <path d="M 310.833953 35.70972 
L 335.256781 35.70972 
L 335.256781 44.769862 
L 326.470243 44.769862 
L 326.470243 82.165351 
L 319.637531 82.165351 
L 319.637531 44.769862 
L 310.833953 44.769862 
L 310.833953 35.70972 
z
" clip-path="url(#p798f192b31)" style="fill: #ff0000"/>
   </g>
   <g id="patch_12">
    <path d="M 360.96502 80.465045 
Q 358.501938 81.315198 355.852756 81.742216 
Q 353.203574 82.165351 350.37924 82.165351 
Q 343.997121 82.165351 340.269657 79.634302 
Q 336.542193 77.103253 336.542193 72.774849 
Q 336.542193 68.395979 340.335339 65.88434 
Q 344.133959 63.372701 350.740492 63.372701 
Q 353.285677 63.372701 355.617395 63.714315 
Q 357.954586 64.052047 360.023575 64.719747 
L 360.023575 68.465855 
Q 357.888904 67.607938 355.776127 67.184803 
Q 353.66335 66.757785 351.539626 66.757785 
Q 347.609641 66.757785 345.480444 68.31834 
Q 343.351246 69.875012 343.351246 72.774849 
Q 343.351246 75.647512 345.403814 77.215831 
Q 347.456383 78.780267 351.233109 78.780267 
Q 352.26213 78.780267 353.143366 78.690982 
Q 354.024602 78.597814 354.725212 78.403716 
L 354.725212 74.886645 
L 350.702178 74.886645 
L 350.702178 71.753889 
L 360.96502 71.753889 
L 360.96502 80.465045 
z
" clip-path="url(#p798f192b31)" style="fill: #ffa600"/>
   </g>
   <g id="patch_13">
    <path d="M 386.673259 80.398925 
Q 384.630331 81.274502 382.421262 81.717381 
Q 380.212193 82.165351 377.806216 82.165351 
Q 370.631356 82.165351 366.440894 78.846303 
Q 362.250432 75.527256 362.250432 69.851277 
Q 362.250432 64.154936 366.440894 60.840979 
Q 370.631356 57.521931 377.806216 57.521931 
Q 380.212193 57.521931 382.421262 57.969901 
Q 384.630331 58.41278 386.673259 59.288357 
L 386.673259 64.200751 
Q 384.611871 63.040102 382.612018 62.500503 
Q 380.612164 61.960903 378.403095 61.960903 
Q 374.440308 61.960903 372.169705 64.063306 
Q 369.905256 66.160618 369.905256 69.851277 
Q 369.905256 73.526664 372.169705 75.629067 
Q 374.440308 77.726379 378.403095 77.726379 
Q 380.612164 77.726379 382.612018 77.18678 
Q 384.611871 76.642089 386.673259 75.481441 
L 386.673259 80.398925 
z
" clip-path="url(#p798f192b31)" style="fill: #0000ff"/>
   </g>
   <g id="patch_14">
    <path d="M 412.381498 78.290245 
Q 410.338571 80.211047 408.129502 81.182615 
Q 405.920432 82.165351 403.514455 82.165351 
Q 396.339596 82.165351 392.149133 74.884172 
Q 387.958671 67.602992 387.958671 55.151282 
Q 387.958671 42.654903 392.149133 35.384891 
Q 396.339596 28.103712 403.514455 28.103712 
Q 405.920432 28.103712 408.129502 29.086447 
Q 410.338571 30.058016 412.381498 31.978818 
L 412.381498 42.75541 
Q 410.32011 40.20923 408.320257 39.02548 
Q 406.320403 37.84173 404.111334 37.84173 
Q 400.148547 37.84173 397.877944 42.453888 
Q 395.613495 47.054879 395.613495 55.151282 
Q 395.613495 63.214183 397.877944 67.826341 
Q 400.148547 72.427332 404.111334 72.427332 
Q 406.320403 72.427332 408.320257 71.243582 
Q 410.32011 70.048665 412.381498 67.502485 
L 412.381498 78.290245 
z
" clip-path="url(#p798f192b31)" style="fill: #0000ff"/>
   </g>
   <g id="patch_15">
    <path d="M 438.089737 80.284105 
Q 436.04681 81.216596 433.837741 81.688263 
Q 431.628672 82.165351 429.222694 82.165351 
Q 422.047835 82.165351 417.857372 78.63056 
Q 413.66691 75.09577 413.66691 69.050844 
Q 413.66691 62.984232 417.857372 59.454863 
Q 422.047835 55.920072 429.222694 55.920072 
Q 431.628672 55.920072 433.837741 56.397161 
Q 436.04681 56.868828 438.089737 57.801318 
L 438.089737 63.033025 
Q 436.028349 61.796933 434.028496 61.222258 
Q 432.028642 60.647584 429.819573 60.647584 
Q 425.856787 60.647584 423.586184 62.886646 
Q 421.321734 65.120287 421.321734 69.050844 
Q 421.321734 72.965137 423.586184 75.204199 
Q 425.856787 77.43784 429.819573 77.43784 
Q 432.028642 77.43784 434.028496 76.863165 
Q 436.028349 76.283069 438.089737 75.046977 
L 438.089737 80.284105 
z
" clip-path="url(#p798f192b31)" style="fill: #0000ff"/>
   </g>
   <g id="patch_16">
    <path d="M 463.797976 80.323877 
Q 461.755049 81.236654 459.54598 81.698349 
Q 457.336911 82.165351 454.930933 82.165351 
Q 447.756074 82.165351 443.565611 78.70529 
Q 439.375149 75.245229 439.375149 69.3281 
Q 439.375149 63.389744 443.565611 59.93499 
Q 447.756074 56.474929 454.930933 56.474929 
Q 457.336911 56.474929 459.54598 56.941931 
Q 461.755049 57.403626 463.797976 58.316403 
L 463.797976 63.437506 
Q 461.736589 62.227546 459.736735 61.66502 
Q 457.736881 61.102495 455.527812 61.102495 
Q 451.565026 61.102495 449.294423 63.294221 
Q 447.029973 65.48064 447.029973 69.3281 
Q 447.029973 73.15964 449.294423 75.351366 
Q 451.565026 77.537785 455.527812 77.537785 
Q 457.736881 77.537785 459.736735 76.97526 
Q 461.736589 76.407427 463.797976 75.197467 
L 463.797976 80.323877 
z
" clip-path="url(#p798f192b31)" style="fill: #0000ff"/>
   </g>
   <g id="patch_17">
    <path d="M 489.506215 79.693985 
Q 487.463288 80.918985 485.254219 81.538607 
Q 483.04515 82.165351 480.639172 82.165351 
Q 473.464313 82.165351 469.27385 77.521747 
Q 465.083388 72.878143 465.083388 64.93701 
Q 465.083388 56.967389 469.27385 52.330907 
Q 473.464313 47.687303 480.639172 47.687303 
Q 483.04515 47.687303 485.254219 48.314047 
Q 487.463288 48.933669 489.506215 50.158669 
L 489.506215 57.031488 
Q 487.444828 55.407651 485.444974 54.652709 
Q 483.44512 53.897767 481.236051 53.897767 
Q 477.273265 53.897767 475.002662 56.839191 
Q 472.738212 59.773493 472.738212 64.93701 
Q 472.738212 70.079161 475.002662 73.020585 
Q 477.273265 75.954887 481.236051 75.954887 
Q 483.44512 75.954887 485.444974 75.199945 
Q 487.444828 74.437881 489.506215 72.814044 
L 489.506215 79.693985 
z
" clip-path="url(#p798f192b31)" style="fill: #0000ff"/>
   </g>
   <g id="patch_18">
    <path d="M 490.791627 41.371499 
L 515.214454 41.371499 
L 515.214454 49.327437 
L 506.427916 49.327437 
L 506.427916 82.165351 
L 499.595204 82.165351 
L 499.595204 49.327437 
L 490.791627 49.327437 
L 490.791627 41.371499 
z
" clip-path="url(#p798f192b31)" style="fill: #ff0000"/>
   </g>
   <g id="patch_19">
    <path d="M 540.922693 80.598745 
Q 538.459611 81.382048 535.81043 81.775488 
Q 533.161248 82.165351 530.336914 82.165351 
Q 523.954795 82.165351 520.22733 79.833326 
Q 516.499866 77.501301 516.499866 73.513252 
Q 516.499866 69.478705 520.293013 67.164563 
Q 524.091633 64.850422 530.698166 64.850422 
Q 533.243351 64.850422 535.575068 65.165174 
Q 537.91226 65.476349 539.981249 66.091546 
L 539.981249 69.543086 
Q 537.846578 68.75263 535.7338 68.362767 
Q 533.621023 67.969327 531.497299 67.969327 
Q 527.567315 67.969327 525.438117 69.40717 
Q 523.30892 70.841437 523.30892 73.513252 
Q 523.30892 76.160029 525.361488 77.605026 
Q 527.414057 79.046446 531.190782 79.046446 
Q 532.219803 79.046446 533.101039 78.964182 
Q 533.982275 78.87834 534.682885 78.699504 
L 534.682885 75.45899 
L 530.659851 75.45899 
L 530.659851 72.572573 
L 540.922693 72.572573 
L 540.922693 80.598745 
z
" clip-path="url(#p798f192b31)" style="fill: #ffa600"/>
   </g>
   <g id="patch_20">
    <path d="M 566.630932 79.231478 
Q 564.16785 80.698415 561.518669 81.435232 
Q 558.869487 82.165351 556.045153 82.165351 
Q 549.663034 82.165351 545.93557 77.798033 
Q 542.208105 73.430715 542.208105 65.962066 
Q 542.208105 58.406339 546.001252 54.072512 
Q 549.799872 49.738686 556.406405 49.738686 
Q 558.95159 49.738686 561.283308 50.32814 
Q 563.620499 50.910896 565.689488 52.06301 
L 565.689488 58.526909 
Q 563.554817 57.046576 561.44204 56.316456 
Q 559.329262 55.579639 557.205538 55.579639 
Q 553.275554 55.579639 551.146356 58.272372 
Q 549.017159 60.958406 549.017159 65.962066 
Q 549.017159 70.918838 551.069727 73.624967 
Q 553.122296 76.324398 556.899022 76.324398 
Q 557.928042 76.324398 558.809278 76.170337 
Q 559.690515 76.009576 560.391125 75.674659 
L 560.391125 69.605963 
L 556.36809 69.605963 
L 556.36809 64.200403 
L 566.630932 64.200403 
L 566.630932 79.231478 
z
" clip-path="url(#p798f192b31)" style="fill: #ffa600"/>
   </g>
   <g id="patch_21">
    <path d="M 567.916344 45.932391 
L 592.339172 45.932391 
L 592.339172 52.998828 
L 583.552634 52.998828 
L 583.552634 82.165351 
L 576.719922 82.165351 
L 576.719922 52.998828 
L 567.916344 52.998828 
L 567.916344 45.932391 
z
" clip-path="url(#p798f192b31)" style="fill: #ff0000"/>
   </g>
   <g id="patch_22">
    <path d="M 618.047411 77.240032 
Q 615.584329 79.702691 612.935147 80.939644 
Q 610.285965 82.165351 607.461631 82.165351 
Q 601.079512 82.165351 597.352048 74.833597 
Q 593.624584 67.501843 593.624584 54.963643 
Q 593.624584 42.279259 597.41773 35.00373 
Q 601.21635 27.728201 607.822883 27.728201 
Q 610.368068 27.728201 612.699786 28.717763 
Q 615.036977 29.69608 617.105966 31.630223 
L 617.105966 42.481669 
Q 614.971295 39.996519 612.858518 38.770812 
Q 610.745741 37.53386 608.622017 37.53386 
Q 604.692032 37.53386 602.562835 42.054358 
Q 600.433637 46.563612 600.433637 54.963643 
Q 600.433637 63.28496 602.486205 67.827948 
Q 604.538774 72.359692 608.3155 72.359692 
Q 609.344521 72.359692 610.225757 72.101057 
Q 611.106993 71.831176 611.807603 71.268925 
L 611.807603 61.080935 
L 607.784569 61.080935 
L 607.784569 52.006203 
L 618.047411 52.006203 
L 618.047411 77.240032 
z
" clip-path="url(#p798f192b31)" style="fill: #ffa600"/>
   </g>
   <g id="patch_23">
    <path d="M 619.332823 79.974233 
L 643.75565 79.974233 
L 643.75565 80.401562 
L 634.969112 80.401562 
L 634.969112 82.165351 
L 628.1364 82.165351 
L 628.1364 80.401562 
L 619.332823 80.401562 
L 619.332823 79.974233 
z
" clip-path="url(#p798f192b31)" style="fill: #ff0000"/>
   </g>
   <g id="patch_24">
    <path d="M 645.041062 73.713808 
L 669.463889 73.713808 
L 669.463889 75.362094 
L 660.677351 75.362094 
L 660.677351 82.165351 
L 653.844639 82.165351 
L 653.844639 75.362094 
L 645.041062 75.362094 
L 645.041062 73.713808 
z
" clip-path="url(#p798f192b31)" style="fill: #ff0000"/>
   </g>
   <g id="patch_25">
    <path d="M 687.667015 80.889153 
L 678.274388 80.889153 
L 676.791341 82.165351 
L 670.749301 82.165351 
L 679.377934 75.159774 
L 686.543495 75.159774 
L 695.172128 82.165351 
L 689.135081 82.165351 
L 687.667015 80.889153 
z
M 679.772414 79.588932 
L 686.154008 79.588932 
L 682.968204 76.802316 
L 679.772414 79.588932 
z
" clip-path="url(#p798f192b31)" style="fill: #008000"/>
   </g>
   <g id="patch_26">
    <path d="M 720.880367 81.398181 
Q 718.83744 81.77845 716.628371 81.970795 
Q 714.419302 82.165351 712.013324 82.165351 
Q 704.838465 82.165351 700.648002 80.723867 
Q 696.45754 79.282383 696.45754 76.817268 
Q 696.45754 74.343309 700.648002 72.904036 
Q 704.838465 71.462552 712.013324 71.462552 
Q 714.419302 71.462552 716.628371 71.657108 
Q 718.83744 71.849453 720.880367 72.229722 
L 720.880367 74.363207 
Q 718.818979 73.85913 716.819126 73.624778 
Q 714.819272 73.390426 712.610203 73.390426 
Q 708.647417 73.390426 706.376814 74.303514 
Q 704.112364 75.21439 704.112364 76.817268 
Q 704.112364 78.413512 706.376814 79.3266 
Q 708.647417 80.237476 712.610203 80.237476 
Q 714.819272 80.237476 716.819126 80.003125 
Q 718.818979 79.766562 720.880367 79.262485 
L 720.880367 81.398181 
z
" clip-path="url(#p798f192b31)" style="fill: #0000ff"/>
   </g>
   <g id="patch_27">
    <path d="M 722.165779 69.945271 
L 746.588606 69.945271 
L 746.588606 72.328527 
L 737.802068 72.328527 
L 737.802068 82.165351 
L 730.969356 82.165351 
L 730.969356 72.328527 
L 722.165779 72.328527 
L 722.165779 69.945271 
z
" clip-path="url(#p798f192b31)" style="fill: #ff0000"/>
   </g>
   <g id="patch_28">
    <path d="M 747.874018 73.822457 
L 772.296845 73.822457 
L 772.296845 75.449554 
L 763.510307 75.449554 
L 763.510307 82.165351 
L 756.677595 82.165351 
L 756.677595 75.449554 
L 747.874018 75.449554 
L 747.874018 73.822457 
z
" clip-path="url(#p798f192b31)" style="fill: #ff0000"/>
   </g>
   <g id="patch_29">
    <path d="M 790.499971 81.483557 
L 781.107344 81.483557 
L 779.624298 82.165351 
L 773.582257 82.165351 
L 782.21089 78.422703 
L 789.376451 78.422703 
L 798.005084 82.165351 
L 791.968037 82.165351 
L 790.499971 81.483557 
z
M 782.605371 80.788929 
L 788.986964 80.788929 
L 785.801161 79.300212 
L 782.605371 80.788929 
z
" clip-path="url(#p798f192b31)" style="fill: #008000"/>
   </g>
   <g id="patch_30">
    <path d="M 823.713323 81.271672 
Q 821.250241 81.718512 818.60106 81.942951 
Q 815.951878 82.165351 813.127544 82.165351 
Q 806.745425 82.165351 803.01796 80.835034 
Q 799.290496 79.504718 799.290496 77.229713 
Q 799.290496 74.928184 803.083643 73.608069 
Q 806.882263 72.287954 813.488796 72.287954 
Q 816.033981 72.287954 818.365699 72.467506 
Q 820.70289 72.645017 822.771879 72.99596 
L 822.771879 74.96491 
Q 820.637208 74.51399 818.524431 74.29159 
Q 816.411653 74.06715 814.287929 74.06715 
Q 810.357945 74.06715 808.228747 74.887376 
Q 806.09955 75.705562 806.09955 77.229713 
Q 806.09955 78.739582 808.152118 79.563888 
Q 810.204687 80.386155 813.981412 80.386155 
Q 815.010433 80.386155 815.891669 80.339226 
Q 816.772905 80.290257 817.473515 80.188239 
L 817.473515 78.33967 
L 813.450481 78.33967 
L 813.450481 76.693098 
L 823.713323 76.693098 
L 823.713323 81.271672 
z
" clip-path="url(#p798f192b31)" style="fill: #ffa600"/>
   </g>
   <g id="patch_31">
    <path d="M 841.916449 81.606101 
L 832.523822 81.606101 
L 831.040776 82.165351 
L 824.998735 82.165351 
L 833.627369 79.095398 
L 840.792929 79.095398 
L 849.421563 82.165351 
L 843.384515 82.165351 
L 841.916449 81.606101 
z
M 834.021849 81.036324 
L 840.403442 81.036324 
L 837.217639 79.815185 
L 834.021849 81.036324 
z
" clip-path="url(#p798f192b31)" style="fill: #008000"/>
   </g>
   <g id="patch_32">
    <path d="M 173.502233 83.100195 
L 164.109606 83.100195 
L 162.62656 82.165351 
L 156.584519 82.165351 
L 165.213152 87.297096 
L 172.378713 87.297096 
L 181.007346 82.165351 
L 174.970299 82.165351 
L 173.502233 83.100195 
z
M 165.607632 84.052637 
L 171.989226 84.052637 
L 168.803423 86.093897 
L 165.607632 84.052637 
z
" clip-path="url(#p798f192b31)" style="fill: #008000"/>
   </g>
   <g id="patch_33">
    <path d="M 199.210472 83.337303 
L 189.817845 83.337303 
L 188.334799 82.165351 
L 182.292758 82.165351 
L 190.921391 88.598677 
L 198.086952 88.598677 
L 206.715585 82.165351 
L 200.678538 82.165351 
L 199.210472 83.337303 
z
M 191.315872 84.531315 
L 197.697465 84.531315 
L 194.511662 87.090306 
L 191.315872 84.531315 
z
" clip-path="url(#p798f192b31)" style="fill: #008000"/>
   </g>
   <g id="matplotlib.axis_1">
    <g id="text_1">
     <text style="font-size: 10px; font-family: 'DejaVu Sans', 'Bitstream Vera Sans', 'Computer Modern Sans Serif', 'Lucida Grande', 'Verdana', 'Geneva', 'Lucid', 'Arial', 'Helvetica', 'Avant Garde', sans-serif; text-anchor: middle" x="451.586563" y="167.556563" transform="rotate(-0 451.586563 167.556563)">Region around edits (±15 bp)</text>
    </g>
   </g>
   <g id="matplotlib.axis_2">
    <g id="ytick_1">
     <g id="line2d_2">
      <defs>
       <path id="m03171774a0" d="M 0 0 
L -3.5 0 
" style="stroke: #000000; stroke-width: 0.8"/>
      </defs>
      <g>
       <use xlink:href="#m03171774a0" x="53.751563" y="155.958125" style="stroke: #000000; stroke-width: 0.8"/>
      </g>
     </g>
     <g id="text_2">
      <text style="font-size: 10px; font-family: 'DejaVu Sans', 'Bitstream Vera Sans', 'Computer Modern Sans Serif', 'Lucida Grande', 'Verdana', 'Geneva', 'Lucid', 'Arial', 'Helvetica', 'Avant Garde', sans-serif; text-anchor: end" x="46.751563" y="159.757344" transform="rotate(-0 46.751563 159.757344)">-0.01</text>
     </g>
    </g>
    <g id="ytick_2">
     <g id="line2d_3">
      <g>
       <use xlink:href="#m03171774a0" x="53.751563" y="22.318125" style="stroke: #000000; stroke-width: 0.8"/>
      </g>
     </g>
     <g id="text_3">
      <text style="font-size: 10px; font-family: 'DejaVu Sans', 'Bitstream Vera Sans', 'Computer Modern Sans Serif', 'Lucida Grande', 'Verdana', 'Geneva', 'Lucid', 'Arial', 'Helvetica', 'Avant Garde', sans-serif; text-anchor: end" x="46.751563" y="26.117344" transform="rotate(-0 46.751563 26.117344)">0.01</text>
     </g>
    </g>
    <g id="text_4">
     <text style="font-size: 10px; font-family: 'DejaVu Sans', 'Bitstream Vera Sans', 'Computer Modern Sans Serif', 'Lucida Grande', 'Verdana', 'Geneva', 'Lucid', 'Arial', 'Helvetica', 'Avant Garde', sans-serif; text-anchor: middle" x="14.798438" y="89.138125" transform="rotate(-90 14.798438 89.138125)">Value magnitude</text>
    </g>
   </g>
   <g id="line2d_4">
    <path d="M 451.586563 155.958125 
L 451.586563 22.318125 
" clip-path="url(#p798f192b31)" style="fill: none; stroke-dasharray: 3.7,1.6; stroke-dashoffset: 0; stroke: #1f77b4"/>
   </g>
   <g id="patch_34">
    <path d="M 53.751563 155.958125 
L 53.751563 22.318125 
" style="fill: none; stroke: #000000; stroke-linejoin: miter; stroke-linecap: square"/>
   </g>
   <g id="text_5">
    <text style="font-size: 12px; font-family: 'DejaVu Sans', 'Bitstream Vera Sans', 'Computer Modern Sans Serif', 'Lucida Grande', 'Verdana', 'Geneva', 'Lucid', 'Arial', 'Helvetica', 'Avant Garde', sans-serif; text-anchor: middle" x="451.586563" y="16.318125" transform="rotate(-0 451.586563 16.318125)">Original</text>
   </g>
  </g>
  <g id="axes_2">
   <g id="patch_35">
    <path d="M 53.751563 330.558125 
L 849.421563 330.558125 
L 849.421563 196.918125 
L 53.751563 196.918125 
z
" style="fill: #ffffff"/>
   </g>
   <g id="line2d_5">
    <path d="M 53.751563 256.765351 
L 849.421563 256.765351 
" clip-path="url(#pf2fdf9eb16)" style="fill: none; stroke: #000000; stroke-width: 0.5; stroke-linecap: square"/>
   </g>
   <g id="patch_36">
    <path d="M 78.17439 254.801167 
Q 75.711308 255.783259 73.062126 256.276547 
Q 70.412944 256.765351 67.58861 256.765351 
Q 61.206491 256.765351 57.479027 253.841497 
Q 53.751562 250.917642 53.751562 245.917492 
Q 53.751562 240.859045 57.544709 237.957612 
Q 61.343329 235.05618 67.949862 235.05618 
Q 70.495047 235.05618 72.826765 235.450811 
Q 75.163956 235.840957 77.232945 236.61228 
L 77.232945 240.939764 
Q 75.098274 239.948703 72.985497 239.459899 
Q 70.87272 238.966611 68.748996 238.966611 
Q 64.819011 238.966611 62.689814 240.769356 
Q 60.560616 242.567616 60.560616 245.917492 
Q 60.560616 249.235977 62.613184 251.047691 
Q 64.665753 252.85492 68.442479 252.85492 
Q 69.4715 252.85492 70.352736 252.751778 
Q 71.233972 252.644151 71.934582 252.419929 
L 71.934582 248.357027 
L 67.911548 248.357027 
L 67.911548 244.738085 
L 78.17439 244.738085 
L 78.17439 254.801167 
z
" clip-path="url(#pf2fdf9eb16)" style="fill: #ffa600"/>
   </g>
   <g id="patch_37">
    <path d="M 96.377515 254.753256 
L 86.984889 254.753256 
L 85.501842 256.765351 
L 79.459802 256.765351 
L 88.088435 245.720131 
L 95.253995 245.720131 
L 103.882629 256.765351 
L 97.845582 256.765351 
L 96.377515 254.753256 
z
M 88.482915 252.703285 
L 94.864509 252.703285 
L 91.678705 248.309816 
L 88.482915 252.703285 
z
" clip-path="url(#pf2fdf9eb16)" style="fill: #008000"/>
   </g>
   <g id="patch_38">
    <path d="M 129.590868 256.015403 
Q 127.127786 256.390377 124.478604 256.57872 
Q 121.829423 256.765351 119.005088 256.765351 
Q 112.622969 256.765351 108.895505 255.64899 
Q 105.168041 254.532629 105.168041 252.623515 
Q 105.168041 250.692142 108.961187 249.584342 
Q 112.759807 248.476542 119.36634 248.476542 
Q 121.911525 248.476542 124.243243 248.627216 
Q 126.580434 248.776179 128.649423 249.070679 
L 128.649423 250.722962 
Q 126.514752 250.344563 124.401975 250.157932 
Q 122.289198 249.969589 120.165474 249.969589 
Q 116.235489 249.969589 114.106292 250.657898 
Q 111.977094 251.344494 111.977094 252.623515 
Q 111.977094 253.89055 114.029663 254.582283 
Q 116.082231 255.272304 119.858957 255.272304 
Q 120.887978 255.272304 121.769214 255.232923 
Q 122.65045 255.19183 123.35106 255.106219 
L 123.35106 253.554957 
L 119.328026 253.554957 
L 119.328026 252.173204 
L 129.590868 252.173204 
L 129.590868 256.015403 
z
" clip-path="url(#pf2fdf9eb16)" style="fill: #ffa600"/>
   </g>
   <g id="patch_39">
    <path d="M 155.299107 255.816705 
Q 152.836025 256.291028 150.186843 256.529272 
Q 147.537662 256.765351 144.713328 256.765351 
Q 138.331208 256.765351 134.603744 255.353211 
Q 130.87628 253.941071 130.87628 251.526138 
Q 130.87628 249.083048 134.669426 247.681737 
Q 138.468046 246.280427 145.07458 246.280427 
Q 147.619764 246.280427 149.951482 246.471022 
Q 152.288673 246.659452 154.357662 247.03198 
L 154.357662 249.122034 
Q 152.222991 248.643379 150.110214 248.4073 
Q 147.997437 248.169056 145.873713 248.169056 
Q 141.943729 248.169056 139.814531 249.039731 
Q 137.685333 249.908241 137.685333 251.526138 
Q 137.685333 253.128873 139.737902 254.003881 
Q 141.79047 254.876722 145.567196 254.876722 
Q 146.596217 254.876722 147.477453 254.826907 
Q 148.358689 254.774926 149.059299 254.666633 
L 149.059299 252.704365 
L 145.036265 252.704365 
L 145.036265 250.956517 
L 155.299107 250.956517 
L 155.299107 255.816705 
z
" clip-path="url(#pf2fdf9eb16)" style="fill: #ffa600"/>
   </g>
   <g id="patch_40">
    <path d="M 173.502233 256.651985 
L 164.109606 256.651985 
L 162.62656 256.765351 
L 156.584519 256.765351 
L 165.213152 256.143038 
L 172.378713 256.143038 
L 181.007346 256.765351 
L 174.970299 256.765351 
L 173.502233 256.651985 
z
M 165.607632 256.536485 
L 171.989226 256.536485 
L 168.803423 256.288947 
L 165.607632 256.536485 
z
" clip-path="url(#pf2fdf9eb16)" style="fill: #008000"/>
   </g>
   <g id="patch_41">
    <path d="M 199.210472 255.489552 
L 189.817845 255.489552 
L 188.334799 256.765351 
L 182.292758 256.765351 
L 190.921391 249.761965 
L 198.086952 249.761965 
L 206.715585 256.765351 
L 200.678538 256.765351 
L 199.210472 255.489552 
z
M 191.315872 254.189738 
L 197.697465 254.189738 
L 194.511662 251.403993 
L 191.315872 254.189738 
z
" clip-path="url(#pf2fdf9eb16)" style="fill: #008000"/>
   </g>
   <g id="patch_42">
    <path d="M 224.918711 250.502325 
L 215.526084 250.502325 
L 214.043038 256.765351 
L 208.000997 256.765351 
L 216.62963 222.385024 
L 223.795191 222.385024 
L 232.423824 256.765351 
L 226.386777 256.765351 
L 224.918711 250.502325 
z
M 217.024111 244.121407 
L 223.405704 244.121407 
L 220.219901 230.445906 
L 217.024111 244.121407 
z
" clip-path="url(#pf2fdf9eb16)" style="fill: #008000"/>
   </g>
   <g id="patch_43">
    <path d="M 258.132063 254.046786 
Q 256.089136 255.394317 253.880067 256.075917 
Q 251.670998 256.765351 249.26502 256.765351 
Q 242.090161 256.765351 237.899699 251.65727 
Q 233.709236 246.549189 233.709236 237.813744 
Q 233.709236 229.04696 237.899699 223.946714 
Q 242.090161 218.838633 249.26502 218.838633 
Q 251.670998 218.838633 253.880067 219.528067 
Q 256.089136 220.209667 258.132063 221.557197 
L 258.132063 229.117471 
Q 256.070676 227.331209 254.070822 226.500754 
Q 252.070969 225.670299 249.8619 225.670299 
Q 245.899113 225.670299 243.62851 228.90594 
Q 241.36406 232.133746 241.36406 237.813744 
Q 241.36406 243.470238 243.62851 246.705879 
Q 245.899113 249.933684 249.8619 249.933684 
Q 252.070969 249.933684 254.070822 249.103229 
Q 256.070676 248.26494 258.132063 246.478679 
L 258.132063 254.046786 
z
" clip-path="url(#pf2fdf9eb16)" style="fill: #0000ff"/>
   </g>
   <g id="patch_44">
    <path d="M 276.335189 249.88052 
L 266.942562 249.88052 
L 265.459516 256.765351 
L 259.417475 256.765351 
L 268.046109 218.971677 
L 275.211669 218.971677 
L 283.840302 256.765351 
L 277.803255 256.765351 
L 276.335189 249.88052 
z
M 268.440589 242.866091 
L 274.822182 242.866091 
L 271.636379 227.83286 
L 268.440589 242.866091 
z
" clip-path="url(#pf2fdf9eb16)" style="fill: #008000"/>
   </g>
   <g id="patch_45">
    <path d="M 309.548541 255.054729 
Q 307.505614 255.902646 305.296545 256.331533 
Q 303.087476 256.765351 300.681498 256.765351 
Q 293.506639 256.765351 289.316177 253.551157 
Q 285.125714 250.336963 285.125714 244.840297 
Q 285.125714 239.323912 289.316177 236.114648 
Q 293.506639 232.900454 300.681498 232.900454 
Q 303.087476 232.900454 305.296545 233.334271 
Q 307.505614 233.763159 309.548541 234.611075 
L 309.548541 239.36828 
Q 307.487154 238.244298 305.4873 237.721745 
Q 303.487447 237.199192 301.278378 237.199192 
Q 297.315591 237.199192 295.044988 239.235177 
Q 292.780538 241.266232 292.780538 244.840297 
Q 292.780538 248.399573 295.044988 250.435558 
Q 297.315591 252.466613 301.278378 252.466613 
Q 303.487447 252.466613 305.4873 251.94406 
Q 307.487154 251.416577 309.548541 250.292595 
L 309.548541 255.054729 
z
" clip-path="url(#pf2fdf9eb16)" style="fill: #0000ff"/>
   </g>
   <g id="patch_46">
    <path d="M 310.833953 196.918125 
L 335.256781 196.918125 
L 335.256781 208.590001 
L 326.470243 208.590001 
L 326.470243 256.765351 
L 319.637531 256.765351 
L 319.637531 208.590001 
L 310.833953 208.590001 
L 310.833953 196.918125 
z
" clip-path="url(#pf2fdf9eb16)" style="fill: #ff0000"/>
   </g>
   <g id="patch_47">
    <path d="M 360.96502 253.163448 
Q 358.501938 254.9644 355.852756 255.868987 
Q 353.203574 256.765351 350.37924 256.765351 
Q 343.997121 256.765351 340.269657 251.403615 
Q 336.542193 246.041878 336.542193 236.872651 
Q 336.542193 227.596518 340.335339 222.275899 
Q 344.133959 216.955281 350.740492 216.955281 
Q 353.285677 216.955281 355.617395 217.678951 
Q 357.954586 218.394397 360.023575 219.808843 
L 360.023575 227.744542 
Q 357.888904 225.927143 355.776127 225.030779 
Q 353.66335 224.126192 351.539626 224.126192 
Q 347.609641 224.126192 345.480444 227.432048 
Q 343.351246 230.72968 343.351246 236.872651 
Q 343.351246 242.958057 345.403814 246.28036 
Q 347.456383 249.59444 351.233109 249.59444 
Q 352.26213 249.59444 353.143366 249.405299 
Q 354.024602 249.207934 354.725212 248.796758 
L 354.725212 241.346247 
L 350.702178 241.346247 
L 350.702178 234.709865 
L 360.96502 234.709865 
L 360.96502 253.163448 
z
" clip-path="url(#pf2fdf9eb16)" style="fill: #ffa600"/>
   </g>
   <g id="patch_48">
    <path d="M 386.673259 253.896775 
Q 384.630331 255.318663 382.421262 256.037873 
Q 380.212193 256.765351 377.806216 256.765351 
Q 370.631356 256.765351 366.440894 251.375404 
Q 362.250432 245.985457 362.250432 236.767986 
Q 362.250432 227.517447 366.440894 222.135767 
Q 370.631356 216.74582 377.806216 216.74582 
Q 380.212193 216.74582 382.421262 217.473297 
Q 384.630331 218.192508 386.673259 219.614396 
L 386.673259 227.591848 
Q 384.611871 225.70702 382.612018 224.83074 
Q 380.612164 223.954461 378.403095 223.954461 
Q 374.440308 223.954461 372.169705 227.368645 
Q 369.905256 230.774563 369.905256 236.767986 
Q 369.905256 242.736608 372.169705 246.150792 
Q 374.440308 249.55671 378.403095 249.55671 
Q 380.612164 249.55671 382.612018 248.68043 
Q 384.611871 247.795884 386.673259 245.911055 
L 386.673259 253.896775 
z
" clip-path="url(#pf2fdf9eb16)" style="fill: #0000ff"/>
   </g>
   <g id="patch_49">
    <path d="M 412.381498 254.030507 
Q 410.338571 255.386107 408.129502 256.071788 
Q 405.920432 256.765351 403.514455 256.765351 
Q 396.339596 256.765351 392.149133 251.626682 
Q 387.958671 246.488013 387.958671 237.700258 
Q 387.958671 228.880977 392.149133 223.750189 
Q 396.339596 218.61152 403.514455 218.61152 
Q 405.920432 218.61152 408.129502 219.305083 
Q 410.338571 219.990764 412.381498 221.346364 
L 412.381498 228.95191 
Q 410.32011 227.154952 408.320257 226.319524 
Q 406.320403 225.484096 404.111334 225.484096 
Q 400.148547 225.484096 397.877944 228.739112 
Q 395.613495 231.986247 395.613495 237.700258 
Q 395.613495 243.390625 397.877944 246.64564 
Q 400.148547 249.892775 404.111334 249.892775 
Q 406.320403 249.892775 408.320257 249.057347 
Q 410.32011 248.214038 412.381498 246.41708 
L 412.381498 254.030507 
z
" clip-path="url(#pf2fdf9eb16)" style="fill: #0000ff"/>
   </g>
   <g id="patch_50">
    <path d="M 438.089737 256.541567 
Q 436.04681 256.652492 433.837741 256.708599 
Q 431.628672 256.765351 429.222694 256.765351 
Q 422.047835 256.765351 417.857372 256.34487 
Q 413.66691 255.924388 413.66691 255.205314 
Q 413.66691 254.483659 417.857372 254.063823 
Q 422.047835 253.643341 429.222694 253.643341 
Q 431.628672 253.643341 433.837741 253.700093 
Q 436.04681 253.756201 438.089737 253.867125 
L 438.089737 254.489463 
Q 436.028349 254.342424 434.028496 254.274063 
Q 432.028642 254.205703 429.819573 254.205703 
Q 425.856787 254.205703 423.586184 254.472051 
Q 421.321734 254.737754 421.321734 255.205314 
Q 421.321734 255.670939 423.586184 255.937286 
Q 425.856787 256.202989 429.819573 256.202989 
Q 432.028642 256.202989 434.028496 256.134629 
Q 436.028349 256.065624 438.089737 255.918584 
L 438.089737 256.541567 
z
" clip-path="url(#pf2fdf9eb16)" style="fill: #0000ff"/>
   </g>
   <g id="patch_51">
    <path d="M 489.506215 253.844511 
Q 487.463288 255.292305 485.254219 256.024619 
Q 483.04515 256.765351 480.639172 256.765351 
Q 473.464313 256.765351 469.27385 251.277202 
Q 465.083388 245.789054 465.083388 236.403646 
Q 465.083388 226.984569 469.27385 221.504838 
Q 473.464313 216.016689 480.639172 216.016689 
Q 483.04515 216.016689 485.254219 216.757421 
Q 487.463288 217.489735 489.506215 218.937529 
L 489.506215 227.060326 
Q 487.444828 225.141157 485.444974 224.248912 
Q 483.44512 223.356667 481.236051 223.356667 
Q 477.273265 223.356667 475.002662 226.833056 
Q 472.738212 230.301027 472.738212 236.403646 
Q 472.738212 242.481013 475.002662 245.957402 
Q 477.273265 249.425373 481.236051 249.425373 
Q 483.44512 249.425373 485.444974 248.533128 
Q 487.444828 247.632466 489.506215 245.713297 
L 489.506215 253.844511 
z
" clip-path="url(#pf2fdf9eb16)" style="fill: #0000ff"/>
   </g>
   <g id="patch_52">
    <path d="M 490.791627 221.727942 
L 515.214454 221.727942 
L 515.214454 228.561213 
L 506.427916 228.561213 
L 506.427916 256.765351 
L 499.595204 256.765351 
L 499.595204 228.561213 
L 490.791627 228.561213 
L 490.791627 221.727942 
z
" clip-path="url(#pf2fdf9eb16)" style="fill: #ff0000"/>
   </g>
   <g id="patch_53">
    <path d="M 566.630932 254.997639 
Q 564.16785 255.881495 561.518669 256.325441 
Q 558.869487 256.765351 556.045153 256.765351 
Q 549.663034 256.765351 545.93557 254.133963 
Q 542.208105 251.502575 542.208105 247.002578 
Q 542.208105 242.450115 546.001252 239.838906 
Q 549.799872 237.227698 556.406405 237.227698 
Q 558.95159 237.227698 561.283308 237.582854 
Q 563.620499 237.933975 565.689488 238.628145 
L 565.689488 242.522761 
Q 563.554817 241.630833 561.44204 241.190923 
Q 559.329262 240.746978 557.205538 240.746978 
Q 553.275554 240.746978 551.146356 242.369398 
Q 549.017159 243.987782 549.017159 247.002578 
Q 549.017159 249.989123 551.069727 251.619615 
Q 553.122296 253.246071 556.899022 253.246071 
Q 557.928042 253.246071 558.809278 253.153246 
Q 559.690515 253.056385 560.391125 252.854592 
L 560.391125 249.198092 
L 556.36809 249.198092 
L 556.36809 245.941144 
L 566.630932 245.941144 
L 566.630932 254.997639 
z
" clip-path="url(#pf2fdf9eb16)" style="fill: #ffa600"/>
   </g>
   <g id="patch_54">
    <path d="M 567.916344 244.802248 
L 592.339172 244.802248 
L 592.339172 247.135387 
L 583.552634 247.135387 
L 583.552634 256.765351 
L 576.719922 256.765351 
L 576.719922 247.135387 
L 567.916344 247.135387 
L 567.916344 244.802248 
z
" clip-path="url(#pf2fdf9eb16)" style="fill: #ff0000"/>
   </g>
   <g id="patch_55">
    <path d="M 618.047411 251.350696 
Q 615.584329 254.058023 612.935147 255.417868 
Q 610.285965 256.765351 607.461631 256.765351 
Q 601.079512 256.765351 597.352048 248.705179 
Q 593.624584 240.645008 593.624584 226.861125 
Q 593.624584 212.916534 597.41773 204.918173 
Q 601.21635 196.919813 607.822883 196.919813 
Q 610.368068 196.919813 612.699786 198.007689 
Q 615.036977 199.083202 617.105966 201.209505 
L 617.105966 213.139054 
Q 614.971295 210.407002 612.858518 209.059519 
Q 610.745741 207.699674 608.622017 207.699674 
Q 604.692032 207.699674 602.562835 212.669289 
Q 600.433637 217.626542 600.433637 226.861125 
Q 600.433637 236.009173 602.486205 241.003512 
Q 604.538774 245.98549 608.3155 245.98549 
Q 609.344521 245.98549 610.225757 245.701158 
Q 611.106993 245.404465 611.807603 244.786354 
L 611.807603 233.586176 
L 607.784569 233.586176 
L 607.784569 223.60986 
L 618.047411 223.60986 
L 618.047411 251.350696 
z
" clip-path="url(#pf2fdf9eb16)" style="fill: #ffa600"/>
   </g>
   <g id="patch_56">
    <path d="M 645.041062 245.500965 
L 669.463889 245.500965 
L 669.463889 247.697834 
L 660.677351 247.697834 
L 660.677351 256.765351 
L 653.844639 256.765351 
L 653.844639 247.697834 
L 645.041062 247.697834 
L 645.041062 245.500965 
z
" clip-path="url(#pf2fdf9eb16)" style="fill: #ff0000"/>
   </g>
   <g id="patch_57">
    <path d="M 720.880367 256.498712 
Q 718.83744 256.630879 716.628371 256.697731 
Q 714.419302 256.765351 712.013324 256.765351 
Q 704.838465 256.765351 700.648002 256.264346 
Q 696.45754 255.76334 696.45754 254.906559 
Q 696.45754 254.046705 700.648002 253.546468 
Q 704.838465 253.045462 712.013324 253.045462 
Q 714.419302 253.045462 716.628371 253.113083 
Q 718.83744 253.179934 720.880367 253.312102 
L 720.880367 254.05362 
Q 718.818979 253.878422 716.819126 253.79697 
Q 714.819272 253.715519 712.610203 253.715519 
Q 708.647417 253.715519 706.376814 254.032873 
Q 704.112364 254.34946 704.112364 254.906559 
Q 704.112364 255.461354 706.376814 255.778708 
Q 708.647417 256.095295 712.610203 256.095295 
Q 714.819272 256.095295 716.819126 256.013843 
Q 718.818979 255.931623 720.880367 255.756424 
L 720.880367 256.498712 
z
" clip-path="url(#pf2fdf9eb16)" style="fill: #0000ff"/>
   </g>
   <g id="patch_58">
    <path d="M 722.165779 250.797013 
L 746.588606 250.797013 
L 746.588606 251.961005 
L 737.802068 251.961005 
L 737.802068 256.765351 
L 730.969356 256.765351 
L 730.969356 251.961005 
L 722.165779 251.961005 
L 722.165779 250.797013 
z
" clip-path="url(#pf2fdf9eb16)" style="fill: #ff0000"/>
   </g>
   <g id="patch_59">
    <path d="M 747.874018 250.863833 
L 772.296845 250.863833 
L 772.296845 252.014794 
L 763.510307 252.014794 
L 763.510307 256.765351 
L 756.677595 256.765351 
L 756.677595 252.014794 
L 747.874018 252.014794 
L 747.874018 250.863833 
z
" clip-path="url(#pf2fdf9eb16)" style="fill: #ff0000"/>
   </g>
   <g id="patch_60">
    <path d="M 790.499971 256.63017 
L 781.107344 256.63017 
L 779.624298 256.765351 
L 773.582257 256.765351 
L 782.21089 256.023289 
L 789.376451 256.023289 
L 798.005084 256.765351 
L 791.968037 256.765351 
L 790.499971 256.63017 
z
M 782.605371 256.492445 
L 788.986964 256.492445 
L 785.801161 256.197274 
L 782.605371 256.492445 
z
" clip-path="url(#pf2fdf9eb16)" style="fill: #008000"/>
   </g>
   <g id="patch_61">
    <path d="M 823.713323 256.046588 
Q 821.250241 256.405969 818.60106 256.586481 
Q 815.951878 256.765351 813.127544 256.765351 
Q 806.745425 256.765351 803.01796 255.695411 
Q 799.290496 254.625472 799.290496 252.795743 
Q 799.290496 250.944682 803.083643 249.882947 
Q 806.882263 248.821213 813.488796 248.821213 
Q 816.033981 248.821213 818.365699 248.965622 
Q 820.70289 249.10839 822.771879 249.390644 
L 822.771879 250.97422 
Q 820.637208 250.611557 818.524431 250.432686 
Q 816.411653 250.252175 814.287929 250.252175 
Q 810.357945 250.252175 808.228747 250.911862 
Q 806.09955 251.569908 806.09955 252.795743 
Q 806.09955 254.010092 808.152118 254.673061 
Q 810.204687 255.334389 813.981412 255.334389 
Q 815.010433 255.334389 815.891669 255.296645 
Q 816.772905 255.257261 817.473515 255.175211 
L 817.473515 253.688454 
L 813.450481 253.688454 
L 813.450481 252.364157 
L 823.713323 252.364157 
L 823.713323 256.046588 
z
" clip-path="url(#pf2fdf9eb16)" style="fill: #ffa600"/>
   </g>
   <g id="patch_62">
    <path d="M 841.916449 255.871863 
L 832.523822 255.871863 
L 831.040776 256.765351 
L 824.998735 256.765351 
L 833.627369 251.86063 
L 840.792929 251.86063 
L 849.421563 256.765351 
L 843.384515 256.765351 
L 841.916449 255.871863 
z
M 834.021849 254.961557 
L 840.403442 254.961557 
L 837.217639 253.010601 
L 834.021849 254.961557 
z
" clip-path="url(#pf2fdf9eb16)" style="fill: #008000"/>
   </g>
   <g id="patch_63">
    <path d="M 456.292863 270.208098 
L 446.900236 270.208098 
L 445.41719 256.765351 
L 439.375149 256.765351 
L 448.003782 330.558125 
L 455.169343 330.558125 
L 463.797976 256.765351 
L 457.760929 256.765351 
L 456.292863 270.208098 
z
M 448.398263 283.903885 
L 454.779856 283.903885 
L 451.594053 313.256519 
L 448.398263 283.903885 
z
" clip-path="url(#pf2fdf9eb16)" style="fill: #008000"/>
   </g>
   <g id="patch_64">
    <path d="M 540.922693 257.371791 
Q 538.459611 257.068571 535.81043 256.916269 
Q 533.161248 256.765351 530.336914 256.765351 
Q 523.954795 256.765351 520.22733 257.668088 
Q 516.499866 258.570824 516.499866 260.114615 
Q 516.499866 261.676405 520.293013 262.572219 
Q 524.091633 263.468032 530.698166 263.468032 
Q 533.243351 263.468032 535.575068 263.346191 
Q 537.91226 263.225733 539.981249 262.987588 
L 539.981249 261.651483 
Q 537.846578 261.957472 535.7338 262.108389 
Q 533.621023 262.260691 531.497299 262.260691 
Q 527.567315 262.260691 525.438117 261.704096 
Q 523.30892 261.148885 523.30892 260.114615 
Q 523.30892 259.090036 525.361488 258.530672 
Q 527.414057 257.972692 531.190782 257.972692 
Q 532.219803 257.972692 533.101039 258.004537 
Q 533.982275 258.037767 534.682885 258.106995 
L 534.682885 259.361411 
L 530.659851 259.361411 
L 530.659851 260.478756 
L 540.922693 260.478756 
L 540.922693 257.371791 
z
" clip-path="url(#pf2fdf9eb16)" style="fill: #ffa600"/>
   </g>
   <g id="patch_65">
    <path d="M 619.332823 266.883098 
L 643.75565 266.883098 
L 643.75565 264.909856 
L 634.969112 264.909856 
L 634.969112 256.765351 
L 628.1364 256.765351 
L 628.1364 264.909856 
L 619.332823 264.909856 
L 619.332823 266.883098 
z
" clip-path="url(#pf2fdf9eb16)" style="fill: #ff0000"/>
   </g>
   <g id="patch_66">
    <path d="M 687.667015 257.290567 
L 678.274388 257.290567 
L 676.791341 256.765351 
L 670.749301 256.765351 
L 679.377934 259.648475 
L 686.543495 259.648475 
L 695.172128 256.765351 
L 689.135081 256.765351 
L 687.667015 257.290567 
z
M 679.772414 257.825668 
L 686.154008 257.825668 
L 682.968204 258.972492 
L 679.772414 257.825668 
z
" clip-path="url(#pf2fdf9eb16)" style="fill: #008000"/>
   </g>
   <g id="matplotlib.axis_3">
    <g id="text_6">
     <text style="font-size: 10px; font-family: 'DejaVu Sans', 'Bitstream Vera Sans', 'Computer Modern Sans Serif', 'Lucida Grande', 'Verdana', 'Geneva', 'Lucid', 'Arial', 'Helvetica', 'Avant Garde', sans-serif; text-anchor: middle" x="451.586563" y="342.156562" transform="rotate(-0 451.586563 342.156562)">Region around edits (±15 bp)</text>
    </g>
   </g>
   <g id="matplotlib.axis_4">
    <g id="ytick_3">
     <g id="line2d_6">
      <g>
       <use xlink:href="#m03171774a0" x="53.751563" y="330.558125" style="stroke: #000000; stroke-width: 0.8"/>
      </g>
     </g>
     <g id="text_7">
      <text style="font-size: 10px; font-family: 'DejaVu Sans', 'Bitstream Vera Sans', 'Computer Modern Sans Serif', 'Lucida Grande', 'Verdana', 'Geneva', 'Lucid', 'Arial', 'Helvetica', 'Avant Garde', sans-serif; text-anchor: end" x="46.751563" y="334.357344" transform="rotate(-0 46.751563 334.357344)">-0.01</text>
     </g>
    </g>
    <g id="ytick_4">
     <g id="line2d_7">
      <g>
       <use xlink:href="#m03171774a0" x="53.751563" y="196.918125" style="stroke: #000000; stroke-width: 0.8"/>
      </g>
     </g>
     <g id="text_8">
      <text style="font-size: 10px; font-family: 'DejaVu Sans', 'Bitstream Vera Sans', 'Computer Modern Sans Serif', 'Lucida Grande', 'Verdana', 'Geneva', 'Lucid', 'Arial', 'Helvetica', 'Avant Garde', sans-serif; text-anchor: end" x="46.751563" y="200.717344" transform="rotate(-0 46.751563 200.717344)">0.01</text>
     </g>
    </g>
    <g id="text_9">
     <text style="font-size: 10px; font-family: 'DejaVu Sans', 'Bitstream Vera Sans', 'Computer Modern Sans Serif', 'Lucida Grande', 'Verdana', 'Geneva', 'Lucid', 'Arial', 'Helvetica', 'Avant Garde', sans-serif; text-anchor: middle" x="14.798438" y="263.738125" transform="rotate(-90 14.798438 263.738125)">Value magnitude</text>
    </g>
   </g>
   <g id="line2d_8">
    <path d="M 451.586563 330.558125 
L 451.586563 196.918125 
" clip-path="url(#pf2fdf9eb16)" style="fill: none; stroke-dasharray: 3.7,1.6; stroke-dashoffset: 0; stroke: #1f77b4"/>
   </g>
   <g id="patch_67">
    <path d="M 53.751563 330.558125 
L 53.751563 196.918125 
" style="fill: none; stroke: #000000; stroke-linejoin: miter; stroke-linecap: square"/>
   </g>
   <g id="text_10">
    <text style="font-size: 12px; font-family: 'DejaVu Sans', 'Bitstream Vera Sans', 'Computer Modern Sans Serif', 'Lucida Grande', 'Verdana', 'Geneva', 'Lucid', 'Arial', 'Helvetica', 'Avant Garde', sans-serif; text-anchor: middle" x="451.586563" y="190.918125" transform="rotate(-0 451.586563 190.918125)">Updated</text>
   </g>
  </g>
 </g>
 <defs>
  <clipPath id="p798f192b31">
   <rect x="53.751563" y="22.318125" width="795.67" height="133.64"/>
  </clipPath>
  <clipPath id="pf2fdf9eb16">
   <rect x="53.751563" y="196.918125" width="795.67" height="133.64"/>
  </clipPath>
 </defs>
</svg>
