<?xml version="1.0" encoding="utf-8" standalone="no"?>
<!DOCTYPE svg PUBLIC "-//W3C//DTD SVG 1.1//EN"
  "http://www.w3.org/Graphics/SVG/1.1/DTD/svg11.dtd">
<svg xmlns:xlink="http://www.w3.org/1999/xlink" width="856.711562pt" height="351.43625pt" viewBox="0 0 856.711562 351.43625" xmlns="http://www.w3.org/2000/svg" version="1.1">
 <metadata>
  <rdf:RDF xmlns:dc="http://purl.org/dc/elements/1.1/" xmlns:cc="http://creativecommons.org/ns#" xmlns:rdf="http://www.w3.org/1999/02/22-rdf-syntax-ns#">
   <cc:Work>
    <dc:type rdf:resource="http://purl.org/dc/dcmitype/StillImage"/>
    <dc:date>2025-11-27T21:57:45.981461</dc:date>
    <dc:format>image/svg+xml</dc:format>
    <dc:creator>
     <cc:Agent>
      <dc:title>Matplotlib v3.10.7, https://matplotlib.org/</dc:title>
     </cc:Agent>
    </dc:creator>
   </cc:Work>
  </rdf:RDF>
 </metadata>
 <defs>
  <style type="text/css">*{stroke-linejoin: round; stroke-linecap: butt}</style>
 </defs>
 <g id="figure_1">
  <g id="patch_1">
   <path d="M -0 351.43625 
L 856.711562 351.43625 
L 856.711562 0 
L -0 0 
z
" style="fill: #ffffff"/>
  </g>
  <g id="axes_1">
   <g id="patch_2">
    <path d="M 53.751563 155.958125 
L 849.511563 155.958125 
L 849.511563 22.318125 
L 53.751563 22.318125 
z
" style="fill: #ffffff"/>
   </g>
   <g id="line2d_1">
    <path d="M 53.751563 67.295173 
L 849.511563 67.295173 
" clip-path="url(#pace49618fc)" style="fill: none; stroke: #000000; stroke-width: 0.5; stroke-linecap: square"/>
   </g>
   <g id="patch_3">
    <path d="M 259.440739 60.104923 
L 283.866328 60.104923 
L 283.866328 61.507222 
L 275.078796 61.507222 
L 275.078796 67.295173 
L 268.245312 67.295173 
L 268.245312 61.507222 
L 259.440739 61.507222 
L 259.440739 60.104923 
z
" clip-path="url(#pace49618fc)" style="fill: #ff0000"/>
   </g>
   <g id="patch_4">
    <path d="M 515.266651 64.071245 
Q 513.223493 65.669272 511.014174 66.477577 
Q 508.804855 67.295173 506.398605 67.295173 
Q 499.222934 67.295173 495.031998 61.237533 
Q 490.841062 55.179893 490.841062 44.820585 
Q 490.841062 34.424114 495.031998 28.375765 
Q 499.222934 22.318125 506.398605 22.318125 
Q 508.804855 22.318125 511.014174 23.135721 
Q 513.223493 23.944025 515.266651 25.542053 
L 515.266651 34.507732 
Q 513.205031 32.389416 511.204951 31.404585 
Q 509.204871 30.419754 506.995552 30.419754 
Q 503.032317 30.419754 500.761457 34.256879 
Q 498.496752 38.084712 498.496752 44.820585 
Q 498.496752 51.528585 500.761457 55.36571 
Q 503.032317 59.193544 506.995552 59.193544 
Q 509.204871 59.193544 511.204951 58.208713 
Q 513.205031 57.214591 515.266651 55.096275 
L 515.266651 64.071245 
z
" clip-path="url(#pace49618fc)" style="fill: #0000ff"/>
   </g>
   <g id="patch_5">
    <path d="M 540.977798 65.75014 
Q 538.93464 66.515978 536.725321 66.903349 
Q 534.516002 67.295173 532.109752 67.295173 
Q 524.934081 67.295173 520.743145 64.392114 
Q 516.552209 61.489056 516.552209 56.524471 
Q 516.552209 51.542075 520.743145 48.643469 
Q 524.934081 45.740411 532.109752 45.740411 
Q 534.516002 45.740411 536.725321 46.132235 
Q 538.93464 46.519606 540.977798 47.285444 
L 540.977798 51.582148 
Q 538.916178 50.566968 536.916098 50.094998 
Q 534.916018 49.623029 532.706699 49.623029 
Q 528.743464 49.623029 526.472604 51.461929 
Q 524.207899 53.296377 524.207899 56.524471 
Q 524.207899 59.739207 526.472604 61.578107 
Q 528.743464 63.412555 532.706699 63.412555 
Q 534.916018 63.412555 536.916098 62.940585 
Q 538.916178 62.464163 540.977798 61.448983 
L 540.977798 65.75014 
z
" clip-path="url(#pace49618fc)" style="fill: #0000ff"/>
   </g>
   <g id="patch_6">
    <path d="M 747.952532 34.962179 
L 772.378121 34.962179 
L 772.378121 41.268013 
L 763.59059 41.268013 
L 763.59059 67.295173 
L 756.757105 67.295173 
L 756.757105 41.268013 
L 747.952532 41.268013 
L 747.952532 34.962179 
z
" clip-path="url(#pace49618fc)" style="fill: #ff0000"/>
   </g>
   <g id="patch_7">
    <path d="M 773.663679 32.963897 
L 798.089268 32.963897 
L 798.089268 39.659453 
L 789.301737 39.659453 
L 789.301737 67.295173 
L 782.468252 67.295173 
L 782.468252 39.659453 
L 773.663679 39.659453 
L 773.663679 32.963897 
z
" clip-path="url(#pace49618fc)" style="fill: #ff0000"/>
   </g>
   <g id="patch_8">
    <path d="M 799.374826 36.239045 
L 823.800415 36.239045 
L 823.800415 42.295855 
L 815.012884 42.295855 
L 815.012884 67.295173 
L 808.179399 67.295173 
L 808.179399 42.295855 
L 799.374826 42.295855 
L 799.374826 36.239045 
z
" clip-path="url(#pace49618fc)" style="fill: #ff0000"/>
   </g>
   <g id="patch_9">
    <path d="M 70.67119 72.429652 
L 61.277501 72.429652 
L 59.794287 67.295173 
L 53.751563 67.295173 
L 62.381172 95.480445 
L 69.547543 95.480445 
L 78.177152 67.295173 
L 72.139422 67.295173 
L 70.67119 72.429652 
z
M 62.775697 77.660781 
L 69.158012 77.660781 
L 65.971848 88.872068 
L 62.775697 77.660781 
z
" clip-path="url(#pace49618fc)" style="fill: #008000"/>
   </g>
   <g id="patch_10">
    <path d="M 103.888299 73.2449 
Q 101.845141 70.295756 99.635822 68.804037 
Q 97.426503 67.295173 95.020253 67.295173 
Q 87.844582 67.295173 83.653646 78.474488 
Q 79.46271 89.653803 79.46271 108.771803 
Q 79.46271 127.958388 83.653646 139.120557 
Q 87.844582 150.299872 95.020253 150.299872 
Q 97.426503 150.299872 99.635822 148.791008 
Q 101.845141 147.299289 103.888299 144.350145 
L 103.888299 127.804073 
Q 101.826678 131.713404 99.826599 133.5309 
Q 97.826519 135.348396 95.6172 135.348396 
Q 91.653965 135.348396 89.383105 128.26702 
Q 87.118399 121.20279 87.118399 108.771803 
Q 87.118399 96.392255 89.383105 89.310879 
Q 91.653965 82.246649 95.6172 82.246649 
Q 97.826519 82.246649 99.826599 84.064145 
Q 101.826678 85.898787 103.888299 89.808118 
L 103.888299 73.2449 
z
" clip-path="url(#pace49618fc)" style="fill: #0000ff"/>
   </g>
   <g id="patch_11">
    <path d="M 122.093484 77.015567 
L 112.699795 77.015567 
L 111.216581 67.295173 
L 105.173857 67.295173 
L 113.803466 120.654419 
L 120.969837 120.654419 
L 129.599446 67.295173 
L 123.561716 67.295173 
L 122.093484 77.015567 
z
M 114.197991 86.918933 
L 120.580306 86.918933 
L 117.394142 108.1437 
L 114.197991 86.918933 
z
" clip-path="url(#pace49618fc)" style="fill: #008000"/>
   </g>
   <g id="patch_12">
    <path d="M 147.804631 75.661915 
L 138.410942 75.661915 
L 136.927728 67.295173 
L 130.885004 67.295173 
L 139.514613 113.223665 
L 146.680984 113.223665 
L 155.310593 67.295173 
L 149.272863 67.295173 
L 147.804631 75.661915 
z
M 139.909138 84.186148 
L 146.291453 84.186148 
L 143.105289 102.455176 
L 139.909138 84.186148 
z
" clip-path="url(#pace49618fc)" style="fill: #008000"/>
   </g>
   <g id="patch_13">
    <path d="M 156.596151 155.077312 
L 181.02174 155.077312 
L 181.02174 137.957349 
L 172.234208 137.957349 
L 172.234208 67.295173 
L 165.400724 67.295173 
L 165.400724 137.957349 
L 156.596151 137.957349 
L 156.596151 155.077312 
z
" clip-path="url(#pace49618fc)" style="fill: #ff0000"/>
   </g>
   <g id="patch_14">
    <path d="M 206.732887 74.546654 
Q 204.269527 70.920913 201.620045 69.099765 
Q 198.970564 67.295173 196.14591 67.295173 
Q 189.763069 67.295173 186.035183 78.089616 
Q 182.307298 88.884059 182.307298 107.343881 
Q 182.307298 126.01893 186.100873 136.730593 
Q 189.899923 147.442257 196.507203 147.442257 
Q 199.052676 147.442257 201.384657 145.985338 
Q 203.722113 144.544975 205.791336 141.697361 
L 205.791336 125.720923 
Q 203.656423 129.379776 201.543407 131.184369 
Q 199.430391 133.005517 197.306427 133.005517 
Q 193.375998 133.005517 191.24656 126.350047 
Q 189.117121 119.711134 189.117121 107.343881 
Q 189.117121 95.092519 191.169922 88.403938 
Q 193.222722 81.731912 196.999875 81.731912 
Q 198.029013 81.731912 198.910349 82.112698 
Q 199.791684 82.510039 200.492373 83.337834 
L 200.492373 98.337474 
L 196.468884 98.337474 
L 196.468884 111.698081 
L 206.732887 111.698081 
L 206.732887 74.546654 
z
" clip-path="url(#pace49618fc)" style="fill: #ffa600"/>
   </g>
   <g id="patch_15">
    <path d="M 208.018445 93.847647 
L 232.444034 93.847647 
L 232.444034 88.669175 
L 223.656502 88.669175 
L 223.656502 67.295173 
L 216.823018 67.295173 
L 216.823018 88.669175 
L 208.018445 88.669175 
L 208.018445 93.847647 
z
" clip-path="url(#pace49618fc)" style="fill: #ff0000"/>
   </g>
   <g id="patch_16">
    <path d="M 233.729592 87.926178 
L 258.155181 87.926178 
L 258.155181 83.902557 
L 249.367649 83.902557 
L 249.367649 67.295173 
L 242.534165 67.295173 
L 242.534165 83.902557 
L 233.729592 83.902557 
L 233.729592 87.926178 
z
" clip-path="url(#pace49618fc)" style="fill: #ff0000"/>
   </g>
   <g id="patch_17">
    <path d="M 285.151886 104.549672 
L 309.577475 104.549672 
L 309.577475 97.284007 
L 300.789943 97.284007 
L 300.789943 67.295173 
L 293.956459 67.295173 
L 293.956459 97.284007 
L 285.151886 97.284007 
L 285.151886 104.549672 
z
" clip-path="url(#pace49618fc)" style="fill: #ff0000"/>
   </g>
   <g id="patch_18">
    <path d="M 335.288622 71.647589 
Q 332.825262 69.471381 330.17578 68.378308 
Q 327.526299 67.295173 324.701645 67.295173 
Q 318.318804 67.295173 314.590918 73.774112 
Q 310.863033 80.253051 310.863033 91.332831 
Q 310.863033 102.541793 314.656608 108.971047 
Q 318.455658 115.400301 325.062938 115.400301 
Q 327.608411 115.400301 329.940393 114.525843 
Q 332.277848 113.661322 334.347071 111.952154 
L 334.347071 102.362927 
Q 332.212158 104.559009 330.099142 105.642145 
Q 327.986126 106.735217 325.862162 106.735217 
Q 321.931733 106.735217 319.802295 102.740534 
Q 317.672856 98.755788 317.672856 91.332831 
Q 317.672856 83.979434 319.725657 79.964877 
Q 321.778457 75.960257 325.555611 75.960257 
Q 326.584748 75.960257 327.466084 76.188808 
Q 328.347419 76.427297 329.048109 76.924148 
L 329.048109 85.927091 
L 325.024619 85.927091 
L 325.024619 93.946268 
L 335.288622 93.946268 
L 335.288622 71.647589 
z
" clip-path="url(#pace49618fc)" style="fill: #ffa600"/>
   </g>
   <g id="patch_19">
    <path d="M 360.999769 68.074733 
Q 358.536409 67.684953 355.886927 67.489173 
Q 353.237446 67.295173 350.412793 67.295173 
Q 344.029951 67.295173 340.302065 68.455615 
Q 336.57418 69.616057 336.57418 71.600555 
Q 336.57418 73.608191 340.367755 74.759734 
Q 344.166805 75.911277 350.774085 75.911277 
Q 353.319558 75.911277 355.65154 75.754653 
Q 357.988995 75.599809 360.058218 75.29368 
L 360.058218 73.576154 
Q 357.923306 73.969494 355.810289 74.163495 
Q 353.697273 74.359275 351.573309 74.359275 
Q 347.64288 74.359275 345.513442 73.643787 
Q 343.384003 72.93008 343.384003 71.600555 
Q 343.384003 70.283489 345.436804 69.564442 
Q 347.489604 68.847175 351.266758 68.847175 
Q 352.295895 68.847175 353.177231 68.888111 
Q 354.058566 68.930826 354.759256 69.019817 
L 354.759256 70.632334 
L 350.735766 70.632334 
L 350.735766 72.068648 
L 360.999769 72.068648 
L 360.999769 68.074733 
z
" clip-path="url(#pace49618fc)" style="fill: #ffa600"/>
   </g>
   <g id="patch_20">
    <path d="M 386.710916 72.91641 
Q 384.667758 70.130091 382.458439 68.720731 
Q 380.24912 67.295173 377.84287 67.295173 
Q 370.667199 67.295173 366.476263 77.857267 
Q 362.285327 88.419361 362.285327 106.481838 
Q 362.285327 124.609113 366.476263 135.155007 
Q 370.667199 145.717101 377.84287 145.717101 
Q 380.24912 145.717101 382.458439 144.291543 
Q 384.667758 142.882183 386.710916 140.095864 
L 386.710916 124.463317 
Q 384.649296 128.15681 382.649216 129.87396 
Q 380.649136 131.59111 378.439817 131.59111 
Q 374.476582 131.59111 372.205722 124.900704 
Q 369.941017 118.226498 369.941017 106.481838 
Q 369.941017 94.785776 372.205722 88.09537 
Q 374.476582 81.421164 378.439817 81.421164 
Q 380.649136 81.421164 382.649216 83.138314 
Q 384.649296 84.871664 386.710916 88.565157 
L 386.710916 72.91641 
z
" clip-path="url(#pace49618fc)" style="fill: #0000ff"/>
   </g>
   <g id="patch_21">
    <path d="M 412.422063 75.317146 
Q 409.958703 71.306159 407.309221 69.291508 
Q 404.65974 67.295173 401.835087 67.295173 
Q 395.452245 67.295173 391.724359 79.236558 
Q 387.996474 91.177943 387.996474 111.599176 
Q 387.996474 132.258505 391.790049 144.108315 
Q 395.589099 155.958125 402.196379 155.958125 
Q 404.741852 155.958125 407.073834 154.346404 
Q 409.411289 152.752999 411.480512 149.602817 
L 411.480512 131.928835 
Q 409.3456 135.976452 407.232583 137.972787 
Q 405.119567 139.987438 402.995603 139.987438 
Q 399.065174 139.987438 396.935736 132.624805 
Q 394.806297 125.280487 394.806297 111.599176 
Q 394.806297 98.046071 396.859098 90.646807 
Q 398.911899 83.265859 402.689052 83.265859 
Q 403.718189 83.265859 404.599525 83.687105 
Q 405.48086 84.126665 406.18155 85.042415 
L 406.18155 101.635812 
L 402.15806 101.635812 
L 402.15806 116.416023 
L 412.422063 116.416023 
L 412.422063 75.317146 
z
" clip-path="url(#pace49618fc)" style="fill: #ffa600"/>
   </g>
   <g id="patch_22">
    <path d="M 438.13321 71.087119 
Q 436.090052 69.207537 433.880733 68.256819 
Q 431.671414 67.295173 429.265164 67.295173 
Q 422.089493 67.295173 417.898557 74.420097 
Q 413.707621 81.545022 413.707621 93.729518 
Q 413.707621 105.957724 417.898557 113.071721 
Q 422.089493 120.196646 429.265164 120.196646 
Q 431.671414 120.196646 433.880733 119.235 
Q 436.090052 118.284281 438.13321 116.4047 
L 438.13321 105.859374 
Q 436.07159 108.350912 434.07151 109.509259 
Q 432.07143 110.667606 429.862111 110.667606 
Q 425.898876 110.667606 423.628016 106.154425 
Q 421.363311 101.652172 421.363311 93.729518 
Q 421.363311 85.839647 423.628016 81.326466 
Q 425.898876 76.824213 429.862111 76.824213 
Q 432.07143 76.824213 434.07151 77.98256 
Q 436.07159 79.151834 438.13321 81.643372 
L 438.13321 71.087119 
z
" clip-path="url(#pace49618fc)" style="fill: #0000ff"/>
   </g>
   <g id="patch_23">
    <path d="M 463.844357 72.578003 
Q 461.801199 69.959424 459.59188 68.634911 
Q 457.382561 67.295173 454.976311 67.295173 
Q 447.80064 67.295173 443.609704 77.221412 
Q 439.418768 87.147652 439.418768 104.12274 
Q 439.418768 121.158725 443.609704 131.069741 
Q 447.80064 140.995981 454.976311 140.995981 
Q 457.382561 140.995981 459.59188 139.656243 
Q 461.801199 138.331729 463.844357 135.713151 
L 463.844357 121.021707 
Q 461.782737 124.492846 459.782657 126.106621 
Q 457.782577 127.720396 455.573258 127.720396 
Q 451.610023 127.720396 449.339163 121.432763 
Q 447.074458 115.160353 447.074458 104.12274 
Q 447.074458 93.1308 449.339163 86.843166 
Q 451.610023 80.570757 455.573258 80.570757 
Q 457.782577 80.570757 459.782657 82.184532 
Q 461.782737 83.813532 463.844357 87.284671 
L 463.844357 72.578003 
z
" clip-path="url(#pace49618fc)" style="fill: #0000ff"/>
   </g>
   <g id="patch_24">
    <path d="M 482.049542 74.589626 
L 472.655853 74.589626 
L 471.172639 67.295173 
L 465.129915 67.295173 
L 473.759524 107.337429 
L 480.925895 107.337429 
L 489.555504 67.295173 
L 483.517774 67.295173 
L 482.049542 74.589626 
z
M 474.154049 82.021386 
L 480.536364 82.021386 
L 477.3502 97.949039 
L 474.154049 82.021386 
z
" clip-path="url(#pace49618fc)" style="fill: #008000"/>
   </g>
   <g id="patch_25">
    <path d="M 542.263356 83.777715 
L 566.688945 83.777715 
L 566.688945 80.56316 
L 557.901413 80.56316 
L 557.901413 67.295173 
L 551.067929 67.295173 
L 551.067929 80.56316 
L 542.263356 80.56316 
L 542.263356 83.777715 
z
" clip-path="url(#pace49618fc)" style="fill: #ff0000"/>
   </g>
   <g id="patch_26">
    <path d="M 592.400092 69.754144 
Q 589.936732 68.524658 587.28725 67.907108 
Q 584.637769 67.295173 581.813116 67.295173 
Q 575.430274 67.295173 571.702389 70.955559 
Q 567.974503 74.615946 567.974503 80.875656 
Q 567.974503 87.20835 571.768078 90.840666 
Q 575.567128 94.472983 582.174409 94.472983 
Q 584.719881 94.472983 587.051863 93.978943 
Q 589.389318 93.490517 591.458541 92.524893 
L 591.458541 87.107296 
Q 589.323629 88.34801 587.210613 88.959946 
Q 585.097597 89.577496 582.973632 89.577496 
Q 579.043203 89.577496 576.913765 87.320632 
Q 574.784326 85.069382 574.784326 80.875656 
Q 574.784326 76.72123 576.837127 74.453137 
Q 578.889928 72.190659 582.667081 72.190659 
Q 583.696218 72.190659 584.577554 72.319783 
Q 585.458889 72.454521 586.159579 72.735226 
L 586.159579 77.821591 
L 582.13609 77.821591 
L 582.13609 82.352162 
L 592.400092 82.352162 
L 592.400092 69.754144 
z
" clip-path="url(#pace49618fc)" style="fill: #ffa600"/>
   </g>
   <g id="patch_27">
    <path d="M 618.111239 68.355926 
Q 616.068081 67.830135 613.858762 67.564182 
Q 611.649443 67.295173 609.243193 67.295173 
Q 602.067523 67.295173 597.876586 69.288289 
Q 593.68565 71.281406 593.68565 74.68988 
Q 593.68565 78.110582 597.876586 80.100642 
Q 602.067523 82.093759 609.243193 82.093759 
Q 611.649443 82.093759 613.858762 81.824749 
Q 616.068081 81.558796 618.111239 81.033005 
L 618.111239 78.08307 
Q 616.049619 78.780049 614.049539 79.104084 
Q 612.049459 79.428118 609.84014 79.428118 
Q 605.876905 79.428118 603.606045 78.165607 
Q 601.34134 76.906153 601.34134 74.68988 
Q 601.34134 72.482779 603.606045 71.220268 
Q 605.876905 69.960813 609.84014 69.960813 
Q 612.049459 69.960813 614.049539 70.284848 
Q 616.049619 70.611939 618.111239 71.308918 
L 618.111239 68.355926 
z
" clip-path="url(#pace49618fc)" style="fill: #0000ff"/>
   </g>
   <g id="patch_28">
    <path d="M 619.396797 85.840194 
L 643.822386 85.840194 
L 643.822386 82.223398 
L 635.034855 82.223398 
L 635.034855 67.295173 
L 628.20137 67.295173 
L 628.20137 82.223398 
L 619.396797 82.223398 
L 619.396797 85.840194 
z
" clip-path="url(#pace49618fc)" style="fill: #ff0000"/>
   </g>
   <g id="patch_29">
    <path d="M 669.533533 68.786895 
Q 667.070173 68.041034 664.420691 67.6664 
Q 661.77121 67.295173 658.946557 67.295173 
Q 652.563715 67.295173 648.83583 69.515727 
Q 645.107944 71.736282 645.107944 75.533703 
Q 645.107944 79.375399 648.901519 81.578925 
Q 652.700569 83.782451 659.30785 83.782451 
Q 661.853322 83.782451 664.185304 83.482745 
Q 666.522759 83.186444 668.591982 82.600653 
L 668.591982 79.314096 
Q 666.45707 80.066768 664.344054 80.437996 
Q 662.231038 80.81263 660.107073 80.81263 
Q 656.176644 80.81263 654.047206 79.443515 
Q 651.917768 78.077805 651.917768 75.533703 
Q 651.917768 73.013442 653.970568 71.637515 
Q 656.023369 70.264994 659.800522 70.264994 
Q 660.829659 70.264994 661.710995 70.343327 
Q 662.59233 70.425065 663.29302 70.595353 
L 663.29302 73.680971 
L 659.269531 73.680971 
L 659.269531 76.429418 
L 669.533533 76.429418 
L 669.533533 68.786895 
z
" clip-path="url(#pace49618fc)" style="fill: #ffa600"/>
   </g>
   <g id="patch_30">
    <path d="M 670.819091 70.146604 
L 695.24468 70.146604 
L 695.24468 69.590496 
L 686.457149 69.590496 
L 686.457149 67.295173 
L 679.623664 67.295173 
L 679.623664 69.590496 
L 670.819091 69.590496 
L 670.819091 70.146604 
z
" clip-path="url(#pace49618fc)" style="fill: #ff0000"/>
   </g>
   <g id="patch_31">
    <path d="M 720.955827 69.280045 
Q 718.912669 68.296189 716.70335 67.798541 
Q 714.494031 67.295173 712.087781 67.295173 
Q 704.912111 67.295173 700.721174 71.024674 
Q 696.530238 74.754176 696.530238 81.132081 
Q 696.530238 87.532866 700.721174 91.256648 
Q 704.912111 94.986149 712.087781 94.986149 
Q 714.494031 94.986149 716.70335 94.482781 
Q 718.912669 93.985133 720.955827 93.001277 
L 720.955827 87.481386 
Q 718.894207 88.785567 716.894127 89.391897 
Q 714.894047 89.998227 712.684728 89.998227 
Q 708.721493 89.998227 706.450633 87.635828 
Q 704.185928 85.279149 704.185928 81.132081 
Q 704.185928 77.002173 706.450633 74.639774 
Q 708.721493 72.283095 712.684728 72.283095 
Q 714.894047 72.283095 716.894127 72.889425 
Q 718.894207 73.501475 720.955827 74.805657 
L 720.955827 69.280045 
z
" clip-path="url(#pace49618fc)" style="fill: #0000ff"/>
   </g>
   <g id="patch_32">
    <path d="M 746.666974 68.50707 
Q 744.623816 67.90636 742.414497 67.602513 
Q 740.205178 67.295173 737.798928 67.295173 
Q 730.623258 67.295173 726.432321 69.572283 
Q 722.241385 71.849393 722.241385 75.743531 
Q 722.241385 79.651638 726.432321 81.925256 
Q 730.623258 84.202366 737.798928 84.202366 
Q 740.205178 84.202366 742.414497 83.895026 
Q 744.623816 83.591179 746.666974 82.990469 
L 746.666974 79.620206 
Q 744.605354 80.416496 742.605274 80.786701 
Q 740.605194 81.156906 738.395875 81.156906 
Q 734.43264 81.156906 732.16178 79.714503 
Q 729.897075 78.275593 729.897075 75.743531 
Q 729.897075 73.221945 732.16178 71.779543 
Q 734.43264 70.340633 738.395875 70.340633 
Q 740.605194 70.340633 742.605274 70.710838 
Q 744.605354 71.084535 746.666974 71.880825 
L 746.666974 68.50707 
z
" clip-path="url(#pace49618fc)" style="fill: #0000ff"/>
   </g>
   <g id="patch_33">
    <path d="M 849.511563 68.177796 
Q 847.468404 67.7403 845.259085 67.519008 
Q 843.049766 67.295173 840.643516 67.295173 
Q 833.467846 67.295173 829.276909 68.953589 
Q 825.085973 70.612006 825.085973 73.448102 
Q 825.085973 76.294373 829.276909 77.950246 
Q 833.467846 79.608663 840.643516 79.608663 
Q 843.049766 79.608663 845.259085 79.384827 
Q 847.468404 79.163535 849.511563 78.726039 
L 849.511563 76.27148 
Q 847.449942 76.851418 845.449862 77.121038 
Q 843.449782 77.390657 841.240463 77.390657 
Q 837.277228 77.390657 835.006369 76.340157 
Q 832.741663 75.292201 832.741663 73.448102 
Q 832.741663 71.611635 835.006369 70.561134 
Q 837.277228 69.513178 841.240463 69.513178 
Q 843.449782 69.513178 845.449862 69.782798 
Q 847.449942 70.054961 849.511563 70.634898 
L 849.511563 68.177796 
z
" clip-path="url(#pace49618fc)" style="fill: #0000ff"/>
   </g>
   <g id="matplotlib.axis_1">
    <g id="text_1">
     <text style="font-size: 10px; font-family: 'DejaVu Sans', 'Bitstream Vera Sans', 'Computer Modern Sans Serif', 'Lucida Grande', 'Verdana', 'Geneva', 'Lucid', 'Arial', 'Helvetica', 'Avant Garde', sans-serif; text-anchor: middle" x="451.631563" y="167.556563" transform="rotate(-0 451.631563 167.556563)">Region around edits (±15 bp)</text>
    </g>
   </g>
   <g id="matplotlib.axis_2">
    <g id="ytick_1">
     <g id="line2d_2">
      <defs>
       <path id="m3f5222fcc2" d="M 0 0 
L -3.5 0 
" style="stroke: #000000; stroke-width: 0.8"/>
      </defs>
      <g>
       <use xlink:href="#m3f5222fcc2" x="53.751563" y="155.958125" style="stroke: #000000; stroke-width: 0.8"/>
      </g>
     </g>
     <g id="text_2">
      <text style="font-size: 10px; font-family: 'DejaVu Sans', 'Bitstream Vera Sans', 'Computer Modern Sans Serif', 'Lucida Grande', 'Verdana', 'Geneva', 'Lucid', 'Arial', 'Helvetica', 'Avant Garde', sans-serif; text-anchor: end" x="46.751563" y="159.757344" transform="rotate(-0 46.751563 159.757344)">-0.00</text>
     </g>
    </g>
    <g id="ytick_2">
     <g id="line2d_3">
      <g>
       <use xlink:href="#m3f5222fcc2" x="53.751563" y="22.318125" style="stroke: #000000; stroke-width: 0.8"/>
      </g>
     </g>
     <g id="text_3">
      <text style="font-size: 10px; font-family: 'DejaVu Sans', 'Bitstream Vera Sans', 'Computer Modern Sans Serif', 'Lucida Grande', 'Verdana', 'Geneva', 'Lucid', 'Arial', 'Helvetica', 'Avant Garde', sans-serif; text-anchor: end" x="46.751563" y="26.117344" transform="rotate(-0 46.751563 26.117344)">0.00</text>
     </g>
    </g>
    <g id="text_4">
     <text style="font-size: 10px; font-family: 'DejaVu Sans', 'Bitstream Vera Sans', 'Computer Modern Sans Serif', 'Lucida Grande', 'Verdana', 'Geneva', 'Lucid', 'Arial', 'Helvetica', 'Avant Garde', sans-serif; text-anchor: middle" x="14.798438" y="89.138125" transform="rotate(-90 14.798438 89.138125)">Value magnitude</text>
    </g>
   </g>
   <g id="line2d_4">
    <path d="M 451.631563 155.958125 
L 451.631563 22.318125 
" clip-path="url(#pace49618fc)" style="fill: none; stroke-dasharray: 3.7,1.6; stroke-dashoffset: 0; stroke: #1f77b4"/>
   </g>
   <g id="patch_34">
    <path d="M 53.751563 155.958125 
L 53.751563 22.318125 
" style="fill: none; stroke: #000000; stroke-linejoin: miter; stroke-linecap: square"/>
   </g>
   <g id="text_5">
    <text style="font-size: 12px; font-family: 'DejaVu Sans', 'Bitstream Vera Sans', 'Computer Modern Sans Serif', 'Lucida Grande', 'Verdana', 'Geneva', 'Lucid', 'Arial', 'Helvetica', 'Avant Garde', sans-serif; text-anchor: middle" x="451.631563" y="16.318125" transform="rotate(-0 451.631563 16.318125)">Original</text>
   </g>
  </g>
  <g id="axes_2">
   <g id="patch_35">
    <path d="M 53.751563 330.558125 
L 849.511563 330.558125 
L 849.511563 196.918125 
L 53.751563 196.918125 
z
" style="fill: #ffffff"/>
   </g>
   <g id="line2d_5">
    <path d="M 53.751563 241.895173 
L 849.511563 241.895173 
" clip-path="url(#pb576bd59ff)" style="fill: none; stroke: #000000; stroke-width: 0.5; stroke-linecap: square"/>
   </g>
   <g id="patch_36">
    <path d="M 122.093484 241.850124 
L 112.699795 241.850124 
L 111.216581 241.895173 
L 105.173857 241.895173 
L 113.803466 241.64788 
L 120.969837 241.64788 
L 129.599446 241.895173 
L 123.561716 241.895173 
L 122.093484 241.850124 
z
M 114.197991 241.804227 
L 120.580306 241.804227 
L 117.394142 241.705861 
L 114.197991 241.804227 
z
" clip-path="url(#pb576bd59ff)" style="fill: #008000"/>
   </g>
   <g id="patch_37">
    <path d="M 147.804631 241.424395 
L 138.410942 241.424395 
L 136.927728 241.895173 
L 130.885004 241.895173 
L 139.514613 239.31088 
L 146.680984 239.31088 
L 155.310593 241.895173 
L 149.272863 241.895173 
L 147.804631 241.424395 
z
M 139.909138 240.944756 
L 146.291453 240.944756 
L 143.105289 239.916799 
L 139.909138 240.944756 
z
" clip-path="url(#pb576bd59ff)" style="fill: #008000"/>
   </g>
   <g id="patch_38">
    <path d="M 156.596151 240.90149 
L 181.02174 240.90149 
L 181.02174 241.095286 
L 172.234208 241.095286 
L 172.234208 241.895173 
L 165.400724 241.895173 
L 165.400724 241.095286 
L 156.596151 241.095286 
L 156.596151 240.90149 
z
" clip-path="url(#pb576bd59ff)" style="fill: #ff0000"/>
   </g>
   <g id="patch_39">
    <path d="M 206.732887 241.554949 
Q 204.269527 241.725061 201.620045 241.810505 
Q 198.970564 241.895173 196.14591 241.895173 
Q 189.763069 241.895173 186.035183 241.38872 
Q 182.307298 240.882268 182.307298 240.016173 
Q 182.307298 239.13998 186.100873 238.637411 
Q 189.899923 238.134843 196.507203 238.134843 
Q 199.052676 238.134843 201.384657 238.203199 
Q 203.722113 238.270777 205.791336 238.404381 
L 205.791336 239.153962 
Q 203.656423 238.982296 201.543407 238.897628 
Q 199.430391 238.812184 197.306427 238.812184 
Q 193.375998 238.812184 191.24656 239.124444 
Q 189.117121 239.435928 189.117121 240.016173 
Q 189.117121 240.590981 191.169922 240.904795 
Q 193.222722 241.217832 196.999875 241.217832 
Q 198.029013 241.217832 198.910349 241.199966 
Q 199.791684 241.181324 200.492373 241.142485 
L 200.492373 240.438734 
L 196.468884 240.438734 
L 196.468884 239.811883 
L 206.732887 239.811883 
L 206.732887 241.554949 
z
" clip-path="url(#pb576bd59ff)" style="fill: #ffa600"/>
   </g>
   <g id="patch_40">
    <path d="M 208.018445 241.034849 
L 232.444034 241.034849 
L 232.444034 241.202636 
L 223.656502 241.202636 
L 223.656502 241.895173 
L 216.823018 241.895173 
L 216.823018 241.202636 
L 208.018445 241.202636 
L 208.018445 241.034849 
z
" clip-path="url(#pb576bd59ff)" style="fill: #ff0000"/>
   </g>
   <g id="patch_41">
    <path d="M 233.729592 239.716068 
L 258.155181 239.716068 
L 258.155181 240.141054 
L 249.367649 240.141054 
L 249.367649 241.895173 
L 242.534165 241.895173 
L 242.534165 240.141054 
L 233.729592 240.141054 
L 233.729592 239.716068 
z
" clip-path="url(#pb576bd59ff)" style="fill: #ff0000"/>
   </g>
   <g id="patch_42">
    <path d="M 285.151886 240.632783 
L 309.577475 240.632783 
L 309.577475 240.878984 
L 300.789943 240.878984 
L 300.789943 241.895173 
L 293.956459 241.895173 
L 293.956459 240.878984 
L 285.151886 240.878984 
L 285.151886 240.632783 
z
" clip-path="url(#pb576bd59ff)" style="fill: #ff0000"/>
   </g>
   <g id="patch_43">
    <path d="M 335.288622 241.65702 
Q 332.825262 241.776096 330.17578 241.835906 
Q 327.526299 241.895173 324.701645 241.895173 
Q 318.318804 241.895173 314.590918 241.540663 
Q 310.863033 241.186153 310.863033 240.579898 
Q 310.863033 239.966574 314.656608 239.614783 
Q 318.455658 239.262992 325.062938 239.262992 
Q 327.608411 239.262992 329.940393 239.31084 
Q 332.277848 239.358144 334.347071 239.451665 
L 334.347071 239.976361 
Q 332.212158 239.856198 330.099142 239.796931 
Q 327.986126 239.737121 325.862162 239.737121 
Q 321.931733 239.737121 319.802295 239.9557 
Q 317.672856 240.173734 317.672856 240.579898 
Q 317.672856 240.982256 319.725657 241.201921 
Q 321.778457 241.421043 325.555611 241.421043 
Q 326.584748 241.421043 327.466084 241.408537 
Q 328.347419 241.395488 329.048109 241.368301 
L 329.048109 240.875685 
L 325.024619 240.875685 
L 325.024619 240.436898 
L 335.288622 240.436898 
L 335.288622 241.65702 
z
" clip-path="url(#pb576bd59ff)" style="fill: #ffa600"/>
   </g>
   <g id="patch_44">
    <path d="M 360.999769 241.670975 
Q 358.536409 241.783074 355.886927 241.839379 
Q 353.237446 241.895173 350.412793 241.895173 
Q 344.029951 241.895173 340.302065 241.561435 
Q 336.57418 241.227698 336.57418 240.656966 
Q 336.57418 240.079579 340.367755 239.748401 
Q 344.166805 239.417223 350.774085 239.417223 
Q 353.319558 239.417223 355.65154 239.462268 
Q 357.988995 239.5068 360.058218 239.594841 
L 360.058218 240.088793 
Q 357.923306 239.97567 355.810289 239.919877 
Q 353.697273 239.863571 351.573309 239.863571 
Q 347.64288 239.863571 345.513442 240.069342 
Q 343.384003 240.274601 343.384003 240.656966 
Q 343.384003 241.035747 345.436804 241.242542 
Q 347.489604 241.448824 351.266758 241.448824 
Q 352.295895 241.448824 353.177231 241.437051 
Q 354.058566 241.424767 354.759256 241.399173 
L 354.759256 240.935421 
L 350.735766 240.935421 
L 350.735766 240.522345 
L 360.999769 240.522345 
L 360.999769 241.670975 
z
" clip-path="url(#pb576bd59ff)" style="fill: #ffa600"/>
   </g>
   <g id="patch_45">
    <path d="M 386.710916 241.460964 
Q 384.667758 241.676192 382.458439 241.785056 
Q 380.24912 241.895173 377.84287 241.895173 
Q 370.667199 241.895173 366.476263 241.079312 
Q 362.285327 240.263451 362.285327 238.868229 
Q 362.285327 237.468002 366.476263 236.653392 
Q 370.667199 235.837531 377.84287 235.837531 
Q 380.24912 235.837531 382.458439 235.947648 
Q 384.667758 236.056512 386.710916 236.271739 
L 386.710916 237.479264 
Q 384.649296 237.193962 382.649216 237.061323 
Q 380.649136 236.928683 378.439817 236.928683 
Q 374.476582 236.928683 372.205722 237.445478 
Q 369.941017 237.961022 369.941017 238.868229 
Q 369.941017 239.771682 372.205722 240.288477 
Q 374.476582 240.804021 378.439817 240.804021 
Q 380.649136 240.804021 382.649216 240.671381 
Q 384.649296 240.53749 386.710916 240.252189 
L 386.710916 241.460964 
z
" clip-path="url(#pb576bd59ff)" style="fill: #0000ff"/>
   </g>
   <g id="patch_46">
    <path d="M 412.422063 241.38729 
Q 409.958703 241.641231 407.309221 241.768782 
Q 404.65974 241.895173 401.835087 241.895173 
Q 395.452245 241.895173 391.724359 241.139146 
Q 387.996474 240.38312 387.996474 239.090222 
Q 387.996474 237.78225 391.790049 237.032022 
Q 395.589099 236.281793 402.196379 236.281793 
Q 404.741852 236.281793 407.073834 236.383833 
Q 409.411289 236.484714 411.480512 236.684157 
L 411.480512 237.803122 
Q 409.3456 237.546862 407.232583 237.420471 
Q 405.119567 237.29292 402.995603 237.29292 
Q 399.065174 237.29292 396.935736 237.759059 
Q 394.806297 238.224039 394.806297 239.090222 
Q 394.806297 239.948289 396.859098 240.416747 
Q 398.911899 240.884045 402.689052 240.884045 
Q 403.718189 240.884045 404.599525 240.857376 
Q 405.48086 240.829547 406.18155 240.771569 
L 406.18155 239.721017 
L 402.15806 239.721017 
L 402.15806 238.785261 
L 412.422063 238.785261 
L 412.422063 241.38729 
z
" clip-path="url(#pb576bd59ff)" style="fill: #ffa600"/>
   </g>
   <g id="patch_47">
    <path d="M 438.13321 241.698609 
Q 436.090052 241.796041 433.880733 241.845324 
Q 431.671414 241.895173 429.265164 241.895173 
Q 422.089493 241.895173 417.898557 241.525836 
Q 413.707621 241.1565 413.707621 240.524889 
Q 413.707621 239.891013 417.898557 239.522243 
Q 422.089493 239.152906 429.265164 239.152906 
Q 431.671414 239.152906 433.880733 239.202755 
Q 436.090052 239.252038 438.13321 239.34947 
L 438.13321 239.896111 
Q 436.07159 239.766956 434.07151 239.706911 
Q 432.07143 239.646865 429.862111 239.646865 
Q 425.898876 239.646865 423.628016 239.880816 
Q 421.363311 240.114201 421.363311 240.524889 
Q 421.363311 240.933878 423.628016 241.167829 
Q 425.898876 241.401213 429.862111 241.401213 
Q 432.07143 241.401213 434.07151 241.341168 
Q 436.07159 241.280556 438.13321 241.151402 
L 438.13321 241.698609 
z
" clip-path="url(#pb576bd59ff)" style="fill: #0000ff"/>
   </g>
   <g id="patch_48">
    <path d="M 542.263356 234.78385 
L 566.688945 234.78385 
L 566.688945 236.170756 
L 557.901413 236.170756 
L 557.901413 241.895173 
L 551.067929 241.895173 
L 551.067929 236.170756 
L 542.263356 236.170756 
L 542.263356 234.78385 
z
" clip-path="url(#pb576bd59ff)" style="fill: #ff0000"/>
   </g>
   <g id="patch_49">
    <path d="M 669.533533 241.405541 
Q 667.070173 241.650357 664.420691 241.773324 
Q 661.77121 241.895173 658.946557 241.895173 
Q 652.563715 241.895173 648.83583 241.166315 
Q 645.107944 240.437458 645.107944 239.191022 
Q 645.107944 237.930054 648.901519 237.206785 
Q 652.700569 236.483517 659.30785 236.483517 
Q 661.853322 236.483517 664.185304 236.581891 
Q 666.522759 236.679146 668.591982 236.871422 
L 668.591982 237.950175 
Q 666.45707 237.703124 664.344054 237.581275 
Q 662.231038 237.458308 660.107073 237.458308 
Q 656.176644 237.458308 654.047206 237.907696 
Q 651.917768 238.355966 651.917768 239.191022 
Q 651.917768 240.018253 653.970568 240.469876 
Q 656.023369 240.920382 659.800522 240.920382 
Q 660.829659 240.920382 661.710995 240.89467 
Q 662.59233 240.867841 663.29302 240.811947 
L 663.29302 239.799148 
L 659.269531 239.799148 
L 659.269531 238.897019 
L 669.533533 238.897019 
L 669.533533 241.405541 
z
" clip-path="url(#pb576bd59ff)" style="fill: #ffa600"/>
   </g>
   <g id="patch_50">
    <path d="M 70.67119 241.951086 
L 61.277501 241.951086 
L 59.794287 241.895173 
L 53.751563 241.895173 
L 62.381172 242.202102 
L 69.547543 242.202102 
L 78.177152 241.895173 
L 72.139422 241.895173 
L 70.67119 241.951086 
z
M 62.775697 242.008051 
L 69.158012 242.008051 
L 65.971848 242.130139 
L 62.775697 242.008051 
z
" clip-path="url(#pb576bd59ff)" style="fill: #008000"/>
   </g>
   <g id="patch_51">
    <path d="M 103.888299 241.999382 
Q 101.845141 241.947728 99.635822 241.9216 
Q 97.426503 241.895173 95.020253 241.895173 
Q 87.844582 241.895173 83.653646 242.090979 
Q 79.46271 242.286785 79.46271 242.621638 
Q 79.46271 242.957692 83.653646 243.153198 
Q 87.844582 243.349005 95.020253 243.349005 
Q 97.426503 243.349005 99.635822 243.322577 
Q 101.845141 243.296449 103.888299 243.244795 
L 103.888299 242.95499 
Q 101.826678 243.023462 99.826599 243.055295 
Q 97.826519 243.087129 95.6172 243.087129 
Q 91.653965 243.087129 89.383105 242.963098 
Q 87.118399 242.839368 87.118399 242.621638 
Q 87.118399 242.40481 89.383105 242.280779 
Q 91.653965 242.157049 95.6172 242.157049 
Q 97.826519 242.157049 99.826599 242.188882 
Q 101.826678 242.221016 103.888299 242.289488 
L 103.888299 241.999382 
z
" clip-path="url(#pb576bd59ff)" style="fill: #0000ff"/>
   </g>
   <g id="patch_52">
    <path d="M 259.440739 243.723543 
L 283.866328 243.723543 
L 283.866328 243.36696 
L 275.078796 243.36696 
L 275.078796 241.895173 
L 268.245312 241.895173 
L 268.245312 243.36696 
L 259.440739 243.36696 
L 259.440739 243.723543 
z
" clip-path="url(#pb576bd59ff)" style="fill: #ff0000"/>
   </g>
   <g id="patch_53">
    <path d="M 463.844357 243.610679 
Q 461.380997 242.752926 458.731515 242.322091 
Q 456.082034 241.895173 453.257381 241.895173 
Q 446.874539 241.895173 443.146653 244.448849 
Q 439.418768 247.002525 439.418768 251.369625 
Q 439.418768 255.787642 443.212343 258.321735 
Q 447.011393 260.855827 453.618673 260.855827 
Q 456.164146 260.855827 458.496128 260.511159 
Q 460.833583 260.170408 462.902806 259.496739 
L 462.902806 255.717141 
Q 460.767894 256.582728 458.654878 257.009646 
Q 456.541861 257.440481 454.417897 257.440481 
Q 450.487468 257.440481 448.35803 255.865975 
Q 446.228591 254.295386 446.228591 251.369625 
Q 446.228591 248.471281 448.281392 246.888941 
Q 450.334193 245.310519 454.111346 245.310519 
Q 455.140483 245.310519 456.021819 245.400602 
Q 456.903154 245.494603 457.603844 245.690437 
L 457.603844 249.23895 
L 453.580355 249.23895 
L 453.580355 252.399712 
L 463.844357 252.399712 
L 463.844357 243.610679 
z
" clip-path="url(#pb576bd59ff)" style="fill: #ffa600"/>
   </g>
   <g id="patch_54">
    <path d="M 482.049542 243.613693 
L 472.655853 243.613693 
L 471.172639 241.895173 
L 465.129915 241.895173 
L 473.759524 251.32884 
L 480.925895 251.32884 
L 489.555504 241.895173 
L 483.517774 241.895173 
L 482.049542 243.613693 
z
M 474.154049 245.364562 
L 480.536364 245.364562 
L 477.3502 249.117003 
L 474.154049 245.364562 
z
" clip-path="url(#pb576bd59ff)" style="fill: #008000"/>
   </g>
   <g id="patch_55">
    <path d="M 515.266651 242.160074 
Q 513.223493 242.028768 511.014174 241.962352 
Q 508.804855 241.895173 506.398605 241.895173 
Q 499.222934 241.895173 495.031998 242.392913 
Q 490.841062 242.890652 490.841062 243.741849 
Q 490.841062 244.596099 495.031998 245.093075 
Q 499.222934 245.590815 506.398605 245.590815 
Q 508.804855 245.590815 511.014174 245.523635 
Q 513.223493 245.457219 515.266651 245.325913 
L 515.266651 244.589228 
Q 513.205031 244.763284 511.204951 244.844205 
Q 509.204871 244.925126 506.995552 244.925126 
Q 503.032317 244.925126 500.761457 244.60984 
Q 498.496752 244.295317 498.496752 243.741849 
Q 498.496752 243.19067 500.761457 242.875384 
Q 503.032317 242.560862 506.995552 242.560862 
Q 509.204871 242.560862 511.204951 242.641782 
Q 513.205031 242.723467 515.266651 242.897523 
L 515.266651 242.160074 
z
" clip-path="url(#pb576bd59ff)" style="fill: #0000ff"/>
   </g>
   <g id="patch_56">
    <path d="M 540.977798 241.896339 
Q 538.93464 241.895761 536.725321 241.895469 
Q 534.516002 241.895173 532.109752 241.895173 
Q 524.934081 241.895173 520.743145 241.897365 
Q 516.552209 241.899557 516.552209 241.903307 
Q 516.552209 241.907069 520.743145 241.909258 
Q 524.934081 241.911451 532.109752 241.911451 
Q 534.516002 241.911451 536.725321 241.911155 
Q 538.93464 241.910862 540.977798 241.910284 
L 540.977798 241.907039 
Q 538.916178 241.907806 536.916098 241.908162 
Q 534.916018 241.908519 532.706699 241.908519 
Q 528.743464 241.908519 526.472604 241.90713 
Q 524.207899 241.905744 524.207899 241.903307 
Q 524.207899 241.900879 526.472604 241.89949 
Q 528.743464 241.898105 532.706699 241.898105 
Q 534.916018 241.898105 536.916098 241.898461 
Q 538.916178 241.898821 540.977798 241.899588 
L 540.977798 241.896339 
z
" clip-path="url(#pb576bd59ff)" style="fill: #0000ff"/>
   </g>
   <g id="patch_57">
    <path d="M 592.400092 242.200545 
Q 589.936732 242.047859 587.28725 241.971167 
Q 584.637769 241.895173 581.813116 241.895173 
Q 575.430274 241.895173 571.702389 242.349746 
Q 567.974503 242.804319 567.974503 243.581695 
Q 567.974503 244.368135 571.768078 244.819222 
Q 575.567128 245.27031 582.174409 245.27031 
Q 584.719881 245.27031 587.051863 245.208956 
Q 589.389318 245.1483 591.458541 245.028382 
L 591.458541 244.355585 
Q 589.323629 244.509666 587.210613 244.585661 
Q 585.097597 244.662353 582.973632 244.662353 
Q 579.043203 244.662353 576.913765 244.382079 
Q 574.784326 244.102502 574.784326 243.581695 
Q 574.784326 243.065769 576.837127 242.7841 
Q 578.889928 242.50313 582.667081 242.50313 
Q 583.696218 242.50313 584.577554 242.519165 
Q 585.458889 242.535898 586.159579 242.570758 
L 586.159579 243.202419 
L 582.13609 243.202419 
L 582.13609 243.765058 
L 592.400092 243.765058 
L 592.400092 242.200545 
z
" clip-path="url(#pb576bd59ff)" style="fill: #ffa600"/>
   </g>
   <g id="patch_58">
    <path d="M 618.111239 242.0823 
Q 616.068081 241.989545 613.858762 241.942629 
Q 611.649443 241.895173 609.243193 241.895173 
Q 602.067523 241.895173 597.876586 242.246778 
Q 593.68565 242.598384 593.68565 243.199673 
Q 593.68565 243.80312 597.876586 244.154186 
Q 602.067523 244.505792 609.243193 244.505792 
Q 611.649443 244.505792 613.858762 244.458336 
Q 616.068081 244.411419 618.111239 244.318664 
L 618.111239 243.798266 
Q 616.049619 243.92122 614.049539 243.978383 
Q 612.049459 244.035546 609.84014 244.035546 
Q 605.876905 244.035546 603.606045 243.812827 
Q 601.34134 243.590646 601.34134 243.199673 
Q 601.34134 242.810319 603.606045 242.587599 
Q 605.876905 242.365418 609.84014 242.365418 
Q 612.049459 242.365418 614.049539 242.422581 
Q 616.049619 242.480284 618.111239 242.603238 
L 618.111239 242.0823 
z
" clip-path="url(#pb576bd59ff)" style="fill: #0000ff"/>
   </g>
   <g id="patch_59">
    <path d="M 619.396797 244.067268 
L 643.822386 244.067268 
L 643.822386 243.643649 
L 635.034855 243.643649 
L 635.034855 241.895173 
L 628.20137 241.895173 
L 628.20137 243.643649 
L 619.396797 243.643649 
L 619.396797 244.067268 
z
" clip-path="url(#pb576bd59ff)" style="fill: #ff0000"/>
   </g>
   <g id="patch_60">
    <path d="M 670.819091 249.527463 
L 695.24468 249.527463 
L 695.24468 248.038954 
L 686.457149 248.038954 
L 686.457149 241.895173 
L 679.623664 241.895173 
L 679.623664 248.038954 
L 670.819091 248.038954 
L 670.819091 249.527463 
z
" clip-path="url(#pb576bd59ff)" style="fill: #ff0000"/>
   </g>
   <g id="patch_61">
    <path d="M 720.955827 242.340522 
Q 718.912669 242.119772 716.70335 242.008114 
Q 714.494031 241.895173 712.087781 241.895173 
Q 704.912111 241.895173 700.721174 242.731967 
Q 696.530238 243.56876 696.530238 244.999781 
Q 696.530238 246.435935 700.721174 247.271445 
Q 704.912111 248.108239 712.087781 248.108239 
Q 714.494031 248.108239 716.70335 247.995298 
Q 718.912669 247.88364 720.955827 247.66289 
L 720.955827 246.424384 
Q 718.894207 246.717005 716.894127 246.853048 
Q 714.894047 246.989092 712.684728 246.989092 
Q 708.721493 246.989092 706.450633 246.459036 
Q 704.185928 245.930265 704.185928 244.999781 
Q 704.185928 244.073147 706.450633 243.543092 
Q 708.721493 243.01432 712.684728 243.01432 
Q 714.894047 243.01432 716.894127 243.150364 
Q 718.894207 243.28769 720.955827 243.580311 
L 720.955827 242.340522 
z
" clip-path="url(#pb576bd59ff)" style="fill: #0000ff"/>
   </g>
   <g id="patch_62">
    <path d="M 746.666974 242.293315 
Q 744.623816 242.095965 742.414497 241.996142 
Q 740.205178 241.895173 737.798928 241.895173 
Q 730.623258 241.895173 726.432321 242.643266 
Q 722.241385 243.39136 722.241385 244.670692 
Q 722.241385 245.954614 726.432321 246.701561 
Q 730.623258 247.449654 737.798928 247.449654 
Q 740.205178 247.449654 742.414497 247.348685 
Q 744.623816 247.248862 746.666974 247.051513 
L 746.666974 245.944288 
Q 744.605354 246.205891 742.605274 246.327514 
Q 740.605194 246.449136 738.395875 246.449136 
Q 734.43264 246.449136 732.16178 245.975267 
Q 729.897075 245.502545 729.897075 244.670692 
Q 729.897075 243.842282 732.16178 243.368413 
Q 734.43264 242.895691 738.395875 242.895691 
Q 740.605194 242.895691 742.605274 243.017313 
Q 744.605354 243.140083 746.666974 243.401687 
L 746.666974 242.293315 
z
" clip-path="url(#pb576bd59ff)" style="fill: #0000ff"/>
   </g>
   <g id="patch_63">
    <path d="M 747.952532 244.795382 
L 772.378121 244.795382 
L 772.378121 244.22976 
L 763.59059 244.22976 
L 763.59059 241.895173 
L 756.757105 241.895173 
L 756.757105 244.22976 
L 747.952532 244.22976 
L 747.952532 244.795382 
z
" clip-path="url(#pb576bd59ff)" style="fill: #ff0000"/>
   </g>
   <g id="patch_64">
    <path d="M 773.663679 245.192401 
L 798.089268 245.192401 
L 798.089268 244.549349 
L 789.301737 244.549349 
L 789.301737 241.895173 
L 782.468252 241.895173 
L 782.468252 244.549349 
L 773.663679 244.549349 
L 773.663679 245.192401 
z
" clip-path="url(#pb576bd59ff)" style="fill: #ff0000"/>
   </g>
   <g id="patch_65">
    <path d="M 799.374826 245.076803 
L 823.800415 245.076803 
L 823.800415 244.456297 
L 815.012884 244.456297 
L 815.012884 241.895173 
L 808.179399 241.895173 
L 808.179399 244.456297 
L 799.374826 244.456297 
L 799.374826 245.076803 
z
" clip-path="url(#pb576bd59ff)" style="fill: #ff0000"/>
   </g>
   <g id="patch_66">
    <path d="M 849.511563 241.924924 
Q 847.468404 241.910177 845.259085 241.902718 
Q 843.049766 241.895173 840.643516 241.895173 
Q 833.467846 241.895173 829.276909 241.951075 
Q 825.085973 242.006978 825.085973 242.102578 
Q 825.085973 242.198522 829.276909 242.254338 
Q 833.467846 242.310241 840.643516 242.310241 
Q 843.049766 242.310241 845.259085 242.302696 
Q 847.468404 242.295236 849.511563 242.280489 
L 849.511563 242.19775 
Q 847.449942 242.217299 845.449862 242.226387 
Q 843.449782 242.235476 841.240463 242.235476 
Q 837.277228 242.235476 835.006369 242.200065 
Q 832.741663 242.16474 832.741663 242.102578 
Q 832.741663 242.040674 835.006369 242.005263 
Q 837.277228 241.969938 841.240463 241.969938 
Q 843.449782 241.969938 845.449862 241.979027 
Q 847.449942 241.988201 849.511563 242.00775 
L 849.511563 241.924924 
z
" clip-path="url(#pb576bd59ff)" style="fill: #0000ff"/>
   </g>
   <g id="matplotlib.axis_3">
    <g id="text_6">
     <text style="font-size: 10px; font-family: 'DejaVu Sans', 'Bitstream Vera Sans', 'Computer Modern Sans Serif', 'Lucida Grande', 'Verdana', 'Geneva', 'Lucid', 'Arial', 'Helvetica', 'Avant Garde', sans-serif; text-anchor: middle" x="451.631563" y="342.156562" transform="rotate(-0 451.631563 342.156562)">Region around edits (±15 bp)</text>
    </g>
   </g>
   <g id="matplotlib.axis_4">
    <g id="ytick_3">
     <g id="line2d_6">
      <g>
       <use xlink:href="#m3f5222fcc2" x="53.751563" y="330.558125" style="stroke: #000000; stroke-width: 0.8"/>
      </g>
     </g>
     <g id="text_7">
      <text style="font-size: 10px; font-family: 'DejaVu Sans', 'Bitstream Vera Sans', 'Computer Modern Sans Serif', 'Lucida Grande', 'Verdana', 'Geneva', 'Lucid', 'Arial', 'Helvetica', 'Avant Garde', sans-serif; text-anchor: end" x="46.751563" y="334.357344" transform="rotate(-0 46.751563 334.357344)">-0.00</text>
     </g>
    </g>
    <g id="ytick_4">
     <g id="line2d_7">
      <g>
       <use xlink:href="#m3f5222fcc2" x="53.751563" y="196.918125" style="stroke: #000000; stroke-width: 0.8"/>
      </g>
     </g>
     <g id="text_8">
      <text style="font-size: 10px; font-family: 'DejaVu Sans', 'Bitstream Vera Sans', 'Computer Modern Sans Serif', 'Lucida Grande', 'Verdana', 'Geneva', 'Lucid', 'Arial', 'Helvetica', 'Avant Garde', sans-serif; text-anchor: end" x="46.751563" y="200.717344" transform="rotate(-0 46.751563 200.717344)">0.00</text>
     </g>
    </g>
    <g id="text_9">
     <text style="font-size: 10px; font-family: 'DejaVu Sans', 'Bitstream Vera Sans', 'Computer Modern Sans Serif', 'Lucida Grande', 'Verdana', 'Geneva', 'Lucid', 'Arial', 'Helvetica', 'Avant Garde', sans-serif; text-anchor: middle" x="14.798438" y="263.738125" transform="rotate(-90 14.798438 263.738125)">Value magnitude</text>
    </g>
   </g>
   <g id="line2d_8">
    <path d="M 451.631563 330.558125 
L 451.631563 196.918125 
" clip-path="url(#pb576bd59ff)" style="fill: none; stroke-dasharray: 3.7,1.6; stroke-dashoffset: 0; stroke: #1f77b4"/>
   </g>
   <g id="patch_67">
    <path d="M 53.751563 330.558125 
L 53.751563 196.918125 
" style="fill: none; stroke: #000000; stroke-linejoin: miter; stroke-linecap: square"/>
   </g>
   <g id="text_10">
    <text style="font-size: 12px; font-family: 'DejaVu Sans', 'Bitstream Vera Sans', 'Computer Modern Sans Serif', 'Lucida Grande', 'Verdana', 'Geneva', 'Lucid', 'Arial', 'Helvetica', 'Avant Garde', sans-serif; text-anchor: middle" x="451.631563" y="190.918125" transform="rotate(-0 451.631563 190.918125)">Updated</text>
   </g>
  </g>
 </g>
 <defs>
  <clipPath id="pace49618fc">
   <rect x="53.751563" y="22.318125" width="795.76" height="133.64"/>
  </clipPath>
  <clipPath id="pb576bd59ff">
   <rect x="53.751563" y="196.918125" width="795.76" height="133.64"/>
  </clipPath>
 </defs>
</svg>
