<?xml version="1.0" encoding="utf-8" standalone="no"?>
<!DOCTYPE svg PUBLIC "-//W3C//DTD SVG 1.1//EN"
  "http://www.w3.org/Graphics/SVG/1.1/DTD/svg11.dtd">
<svg xmlns:xlink="http://www.w3.org/1999/xlink" width="856.621562pt" height="351.43625pt" viewBox="0 0 856.621562 351.43625" xmlns="http://www.w3.org/2000/svg" version="1.1">
 <metadata>
  <rdf:RDF xmlns:dc="http://purl.org/dc/elements/1.1/" xmlns:cc="http://creativecommons.org/ns#" xmlns:rdf="http://www.w3.org/1999/02/22-rdf-syntax-ns#">
   <cc:Work>
    <dc:type rdf:resource="http://purl.org/dc/dcmitype/StillImage"/>
    <dc:date>2025-11-27T21:58:31.905722</dc:date>
    <dc:format>image/svg+xml</dc:format>
    <dc:creator>
     <cc:Agent>
      <dc:title>Matplotlib v3.10.7, https://matplotlib.org/</dc:title>
     </cc:Agent>
    </dc:creator>
   </cc:Work>
  </rdf:RDF>
 </metadata>
 <defs>
  <style type="text/css">*{stroke-linejoin: round; stroke-linecap: butt}</style>
 </defs>
 <g id="figure_1">
  <g id="patch_1">
   <path d="M 0 351.43625 
L 856.621562 351.43625 
L 856.621562 0 
L 0 0 
z
" style="fill: #ffffff"/>
  </g>
  <g id="axes_1">
   <g id="patch_2">
    <path d="M 53.751563 155.958125 
L 849.421563 155.958125 
L 849.421563 22.318125 
L 53.751563 22.318125 
z
" style="fill: #ffffff"/>
   </g>
   <g id="line2d_1">
    <path d="M 53.751563 125.584387 
L 849.421563 125.584387 
" clip-path="url(#p4f911386d0)" style="fill: none; stroke: #000000; stroke-width: 0.5; stroke-linecap: square"/>
   </g>
   <g id="patch_3">
    <path d="M 103.882629 125.057424 
Q 101.419547 125.320906 98.770365 125.453248 
Q 96.121183 125.584387 93.296849 125.584387 
Q 86.91473 125.584387 83.187266 124.799958 
Q 79.459802 124.01553 79.459802 122.67406 
Q 79.459802 121.31695 83.252948 120.538537 
Q 87.051568 119.760123 93.658101 119.760123 
Q 96.203286 119.760123 98.535004 119.865997 
Q 100.872195 119.970668 102.941184 120.177603 
L 102.941184 121.338606 
Q 100.806513 121.072718 98.693736 120.941579 
Q 96.580959 120.809237 94.457235 120.809237 
Q 90.52725 120.809237 88.398053 121.292888 
Q 86.268855 121.775335 86.268855 122.67406 
Q 86.268855 123.564363 88.321424 124.05042 
Q 90.373992 124.535274 94.150718 124.535274 
Q 95.179739 124.535274 96.060975 124.507602 
Q 96.942211 124.478728 97.642821 124.418572 
L 97.642821 123.328553 
L 93.619787 123.328553 
L 93.619787 122.357642 
L 103.882629 122.357642 
L 103.882629 125.057424 
z
" clip-path="url(#p4f911386d0)" style="fill: #ffa600"/>
   </g>
   <g id="patch_4">
    <path d="M 258.132063 121.640648 
Q 256.089136 123.59547 253.880067 124.584246 
Q 251.670998 125.584387 249.26502 125.584387 
Q 242.090161 125.584387 237.899699 118.174249 
Q 233.709236 110.76411 233.709236 98.091864 
Q 233.709236 85.374157 237.899699 77.975384 
Q 242.090161 70.565246 249.26502 70.565246 
Q 251.670998 70.565246 253.880067 71.565387 
Q 256.089136 72.554163 258.132063 74.508985 
L 258.132063 85.476445 
Q 256.070676 82.885169 254.070822 81.680453 
Q 252.070969 80.475738 249.8619 80.475738 
Q 245.899113 80.475738 243.62851 85.169583 
Q 241.36406 89.852063 241.36406 98.091864 
Q 241.36406 106.29757 243.62851 110.991415 
Q 245.899113 115.673895 249.8619 115.673895 
Q 252.070969 115.673895 254.070822 114.46918 
Q 256.070676 113.253099 258.132063 110.661823 
L 258.132063 121.640648 
z
" clip-path="url(#p4f911386d0)" style="fill: #0000ff"/>
   </g>
   <g id="patch_5">
    <path d="M 283.840302 124.412403 
Q 281.797375 124.993329 279.588306 125.287169 
Q 277.379237 125.584387 274.973259 125.584387 
Q 267.7984 125.584387 263.607938 123.382273 
Q 259.417475 121.180159 259.417475 117.414274 
Q 259.417475 113.63488 263.607938 111.436143 
Q 267.7984 109.234029 274.973259 109.234029 
Q 277.379237 109.234029 279.588306 109.531247 
Q 281.797375 109.825087 283.840302 110.406013 
L 283.840302 113.665277 
Q 281.778915 112.895213 279.779061 112.5372 
Q 277.779208 112.179188 275.570139 112.179188 
Q 271.607352 112.179188 269.336749 113.574085 
Q 267.072299 114.965605 267.072299 117.414274 
Q 267.072299 119.852812 269.336749 121.247709 
Q 271.607352 122.639229 275.570139 122.639229 
Q 277.779208 122.639229 279.779061 122.281216 
Q 281.778915 121.919827 283.840302 121.149762 
L 283.840302 124.412403 
z
" clip-path="url(#p4f911386d0)" style="fill: #0000ff"/>
   </g>
   <g id="patch_6">
    <path d="M 285.125714 115.971758 
L 309.548541 115.971758 
L 309.548541 117.846489 
L 300.762003 117.846489 
L 300.762003 125.584387 
L 293.929292 125.584387 
L 293.929292 117.846489 
L 285.125714 117.846489 
L 285.125714 115.971758 
z
" clip-path="url(#p4f911386d0)" style="fill: #ff0000"/>
   </g>
   <g id="patch_7">
    <path d="M 335.256781 121.219531 
Q 333.213853 123.383091 331.004784 124.47745 
Q 328.795715 125.584387 326.389738 125.584387 
Q 319.214878 125.584387 315.024416 117.382986 
Q 310.833953 109.181586 310.833953 95.156184 
Q 310.833953 81.080467 315.024416 72.891645 
Q 319.214878 64.690244 326.389738 64.690244 
Q 328.795715 64.690244 331.004784 65.797182 
Q 333.213853 66.89154 335.256781 69.0551 
L 335.256781 81.193677 
Q 333.195393 78.325702 331.195539 76.992345 
Q 329.195686 75.658989 326.986617 75.658989 
Q 323.02383 75.658989 320.753227 80.854048 
Q 318.488778 86.036528 318.488778 95.156184 
Q 318.488778 104.238103 320.753227 109.433162 
Q 323.02383 114.615643 326.986617 114.615643 
Q 329.195686 114.615643 331.195539 113.282286 
Q 333.195393 111.936351 335.256781 109.068376 
L 335.256781 121.219531 
z
" clip-path="url(#p4f911386d0)" style="fill: #0000ff"/>
   </g>
   <g id="patch_8">
    <path d="M 379.168145 122.783663 
L 369.775519 122.783663 
L 368.292472 125.584387 
L 362.250432 125.584387 
L 370.879065 110.210057 
L 378.044626 110.210057 
L 386.673259 125.584387 
L 380.636212 125.584387 
L 379.168145 122.783663 
z
M 371.273545 119.930219 
L 377.655139 119.930219 
L 374.469335 113.814754 
L 371.273545 119.930219 
z
" clip-path="url(#p4f911386d0)" style="fill: #008000"/>
   </g>
   <g id="patch_9">
    <path d="M 412.381498 120.250012 
Q 409.918416 122.9172 407.269234 124.256883 
Q 404.620053 125.584387 401.795718 125.584387 
Q 395.413599 125.584387 391.686135 117.643719 
Q 387.958671 109.703051 387.958671 96.123535 
Q 387.958671 82.385692 391.751817 74.505919 
Q 395.550437 66.626145 402.156971 66.626145 
Q 404.702155 66.626145 407.033873 67.697892 
Q 409.371064 68.75746 411.440053 70.852237 
L 411.440053 82.604913 
Q 409.305382 79.913367 407.192605 78.585863 
Q 405.079828 77.24618 402.956104 77.24618 
Q 399.02612 77.24618 396.896922 82.142113 
Q 394.767724 87.025868 394.767724 96.123535 
Q 394.767724 105.135949 396.820293 110.05624 
Q 398.872861 114.964353 402.649587 114.964353 
Q 403.678608 114.964353 404.559844 114.684237 
Q 405.44108 114.391943 406.14169 113.782996 
L 406.14169 102.748877 
L 402.118656 102.748877 
L 402.118656 92.920474 
L 412.381498 92.920474 
L 412.381498 120.250012 
z
" clip-path="url(#p4f911386d0)" style="fill: #ffa600"/>
   </g>
   <g id="patch_10">
    <path d="M 413.66691 61.755329 
L 438.089737 61.755329 
L 438.089737 74.203774 
L 429.303199 74.203774 
L 429.303199 125.584387 
L 422.470487 125.584387 
L 422.470487 74.203774 
L 413.66691 74.203774 
L 413.66691 61.755329 
z
" clip-path="url(#p4f911386d0)" style="fill: #ff0000"/>
   </g>
   <g id="patch_11">
    <path d="M 463.797976 116.241148 
Q 461.334894 120.912767 458.685712 123.259243 
Q 456.036531 125.584387 453.212197 125.584387 
Q 446.830077 125.584387 443.102613 111.676186 
Q 439.375149 97.767984 439.375149 73.983254 
Q 439.375149 49.921212 443.168295 36.119668 
Q 446.966915 22.318125 453.573449 22.318125 
Q 456.118634 22.318125 458.450351 24.195306 
Q 460.787542 26.051155 462.856531 29.720189 
L 462.856531 50.305181 
Q 460.72186 45.590898 458.609083 43.265753 
Q 456.496306 40.919278 454.372582 40.919278 
Q 450.442598 40.919278 448.3134 49.49458 
Q 446.184202 58.04855 446.184202 73.983254 
Q 446.184202 89.768635 448.236771 98.386601 
Q 450.289339 106.983234 454.066065 106.983234 
Q 455.095086 106.983234 455.976322 106.492608 
Q 456.857558 105.980649 457.558168 104.91407 
L 457.558168 85.587642 
L 453.535134 85.587642 
L 453.535134 68.373043 
L 463.797976 68.373043 
L 463.797976 116.241148 
z
" clip-path="url(#p4f911386d0)" style="fill: #ffa600"/>
   </g>
   <g id="patch_12">
    <path d="M 489.506215 121.298987 
Q 487.043133 123.441687 484.393951 124.517929 
Q 481.74477 125.584387 478.920436 125.584387 
Q 472.538316 125.584387 468.810852 119.205206 
Q 465.083388 112.826026 465.083388 101.916844 
Q 465.083388 90.88047 468.876534 84.550209 
Q 472.675154 78.219949 479.281688 78.219949 
Q 481.826873 78.219949 484.15859 79.080942 
Q 486.495782 79.932152 488.56477 81.615003 
L 488.56477 91.056582 
Q 486.430099 88.894314 484.317322 87.827856 
Q 482.204545 86.751614 480.080821 86.751614 
Q 476.150837 86.751614 474.021639 90.684789 
Q 471.892442 94.608181 471.892442 101.916844 
Q 471.892442 109.157018 473.94501 113.109762 
Q 475.997578 117.052722 479.774304 117.052722 
Q 480.803325 117.052722 481.684561 116.82769 
Q 482.565797 116.592873 483.266407 116.103672 
L 483.266407 107.239351 
L 479.243373 107.239351 
L 479.243373 99.343647 
L 489.506215 99.343647 
L 489.506215 121.298987 
z
" clip-path="url(#p4f911386d0)" style="fill: #ffa600"/>
   </g>
   <g id="patch_13">
    <path d="M 540.922693 124.556289 
Q 538.459611 125.070338 535.81043 125.328536 
Q 533.161248 125.584387 530.336914 125.584387 
Q 523.954795 125.584387 520.22733 124.053977 
Q 516.499866 122.523566 516.499866 119.906377 
Q 516.499866 117.258673 520.293013 115.739999 
Q 524.091633 114.221325 530.698166 114.221325 
Q 533.243351 114.221325 535.575068 114.427883 
Q 537.91226 114.632095 539.981249 115.035823 
L 539.981249 117.300924 
Q 537.846578 116.78218 535.7338 116.52633 
Q 533.621023 116.268131 531.497299 116.268131 
Q 527.567315 116.268131 525.438117 117.211728 
Q 523.30892 118.152977 523.30892 119.906377 
Q 523.30892 121.643346 525.361488 122.591637 
Q 527.414057 123.537581 531.190782 123.537581 
Q 532.219803 123.537581 533.101039 123.483594 
Q 533.982275 123.42726 534.682885 123.309897 
L 534.682885 121.183284 
L 530.659851 121.183284 
L 530.659851 119.289049 
L 540.922693 119.289049 
L 540.922693 124.556289 
z
" clip-path="url(#p4f911386d0)" style="fill: #ffa600"/>
   </g>
   <g id="patch_14">
    <path d="M 559.125819 121.590016 
L 549.733192 121.590016 
L 548.250146 125.584387 
L 542.208105 125.584387 
L 550.836739 103.657637 
L 558.002299 103.657637 
L 566.630932 125.584387 
L 560.593885 125.584387 
L 559.125819 121.590016 
z
M 551.231219 117.520456 
L 557.612812 117.520456 
L 554.427009 108.798628 
L 551.231219 117.520456 
z
" clip-path="url(#p4f911386d0)" style="fill: #008000"/>
   </g>
   <g id="patch_15">
    <path d="M 584.834058 124.719336 
L 575.441431 124.719336 
L 573.958385 125.584387 
L 567.916344 125.584387 
L 576.544978 120.835766 
L 583.710538 120.835766 
L 592.339172 125.584387 
L 586.302124 125.584387 
L 584.834058 124.719336 
z
M 576.939458 123.838002 
L 583.321051 123.838002 
L 580.135248 121.949138 
L 576.939458 123.838002 
z
" clip-path="url(#p4f911386d0)" style="fill: #008000"/>
   </g>
   <g id="patch_16">
    <path d="M 610.542297 123.806516 
L 601.14967 123.806516 
L 599.666624 125.584387 
L 593.624584 125.584387 
L 602.253217 115.824918 
L 609.418777 115.824918 
L 618.047411 125.584387 
L 612.010363 125.584387 
L 610.542297 123.806516 
z
M 602.647697 121.995178 
L 609.02929 121.995178 
L 605.843487 118.113144 
L 602.647697 121.995178 
z
" clip-path="url(#p4f911386d0)" style="fill: #008000"/>
   </g>
   <g id="patch_17">
    <path d="M 619.332823 114.321613 
L 643.75565 114.321613 
L 643.75565 116.518168 
L 634.969112 116.518168 
L 634.969112 125.584387 
L 628.1364 125.584387 
L 628.1364 116.518168 
L 619.332823 116.518168 
L 619.332823 114.321613 
z
" clip-path="url(#p4f911386d0)" style="fill: #ff0000"/>
   </g>
   <g id="patch_18">
    <path d="M 669.463889 124.209244 
Q 667.000807 124.896816 664.351625 125.242171 
Q 661.702444 125.584387 658.878109 125.584387 
Q 652.49599 125.584387 648.768526 123.537371 
Q 645.041062 121.490354 645.041062 117.989704 
Q 645.041062 114.44824 648.834208 112.416922 
Q 652.632828 110.385603 659.239361 110.385603 
Q 661.784546 110.385603 664.116264 110.661887 
Q 666.453455 110.935032 668.522444 111.475043 
L 668.522444 114.504753 
Q 666.387773 113.810902 664.274996 113.468686 
Q 662.162219 113.123331 660.038495 113.123331 
Q 656.10851 113.123331 653.979313 114.385448 
Q 651.850115 115.644426 651.850115 117.989704 
Q 651.850115 120.313006 653.902684 121.581402 
Q 655.955252 122.84666 659.731978 122.84666 
Q 660.760999 122.84666 661.642235 122.774449 
Q 662.523471 122.699099 663.224081 122.542119 
L 663.224081 119.697645 
L 659.201047 119.697645 
L 659.201047 117.163991 
L 669.463889 117.163991 
L 669.463889 124.209244 
z
" clip-path="url(#p4f911386d0)" style="fill: #ffa600"/>
   </g>
   <g id="patch_19">
    <path d="M 713.375254 123.112498 
L 703.982627 123.112498 
L 702.499581 125.584387 
L 696.45754 125.584387 
L 705.086173 112.015168 
L 712.251734 112.015168 
L 720.880367 125.584387 
L 714.84332 125.584387 
L 713.375254 123.112498 
z
M 705.480653 120.594079 
L 711.862247 120.594079 
L 708.676444 115.196635 
L 705.480653 120.594079 
z
" clip-path="url(#p4f911386d0)" style="fill: #008000"/>
   </g>
   <g id="patch_20">
    <path d="M 746.588606 123.735066 
Q 744.125524 124.659727 741.476342 125.124168 
Q 738.827161 125.584387 736.002827 125.584387 
Q 729.620707 125.584387 725.893243 122.831517 
Q 722.165779 120.078646 722.165779 115.3709 
Q 722.165779 110.608266 725.958925 107.876506 
Q 729.757545 105.144747 736.364079 105.144747 
Q 738.909264 105.144747 741.240981 105.5163 
Q 743.578172 105.883631 745.647161 106.609848 
L 745.647161 110.684265 
Q 743.51249 109.75116 741.399713 109.290941 
Q 739.286936 108.8265 737.163212 108.8265 
Q 733.233228 108.8265 731.10403 110.523822 
Q 728.974833 112.216921 728.974833 115.3709 
Q 728.974833 118.495324 731.027401 120.20109 
Q 733.079969 121.902634 736.856695 121.902634 
Q 737.885716 121.902634 738.766952 121.805524 
Q 739.648188 121.704191 740.348798 121.493081 
L 740.348798 117.667774 
L 736.325764 117.667774 
L 736.325764 114.260463 
L 746.588606 114.260463 
L 746.588606 123.735066 
z
" clip-path="url(#p4f911386d0)" style="fill: #ffa600"/>
   </g>
   <g id="patch_21">
    <path d="M 764.791732 124.414026 
L 755.399105 124.414026 
L 753.916059 125.584387 
L 747.874018 125.584387 
L 756.502651 119.159793 
L 763.668212 119.159793 
L 772.296845 125.584387 
L 766.259798 125.584387 
L 764.791732 124.414026 
z
M 756.897132 123.221635 
L 763.278725 123.221635 
L 760.092922 120.666117 
L 756.897132 123.221635 
z
" clip-path="url(#p4f911386d0)" style="fill: #008000"/>
   </g>
   <g id="patch_22">
    <path d="M 790.499971 121.904748 
L 781.107344 121.904748 
L 779.624298 125.584387 
L 773.582257 125.584387 
L 782.21089 105.38533 
L 789.376451 105.38533 
L 798.005084 125.584387 
L 791.968037 125.584387 
L 790.499971 121.904748 
z
M 782.605371 118.155844 
L 788.986964 118.155844 
L 785.801161 110.121243 
L 782.605371 118.155844 
z
" clip-path="url(#p4f911386d0)" style="fill: #008000"/>
   </g>
   <g id="patch_23">
    <path d="M 799.290496 113.995243 
L 823.713323 113.995243 
L 823.713323 116.255449 
L 814.926785 116.255449 
L 814.926785 125.584387 
L 808.094073 125.584387 
L 808.094073 116.255449 
L 799.290496 116.255449 
L 799.290496 113.995243 
z
" clip-path="url(#p4f911386d0)" style="fill: #ff0000"/>
   </g>
   <g id="patch_24">
    <path d="M 824.998735 122.347155 
L 849.421563 122.347155 
L 849.421563 122.978505 
L 840.635024 122.978505 
L 840.635024 125.584387 
L 833.802313 125.584387 
L 833.802313 122.978505 
L 824.998735 122.978505 
L 824.998735 122.347155 
z
" clip-path="url(#p4f911386d0)" style="fill: #ff0000"/>
   </g>
   <g id="patch_25">
    <path d="M 78.17439 128.332517 
Q 75.711308 126.958452 73.062126 126.268283 
Q 70.412944 125.584387 67.58861 125.584387 
Q 61.206491 125.584387 57.479027 129.675211 
Q 53.751562 133.766034 53.751562 140.761845 
Q 53.751562 147.839221 57.544709 151.898673 
Q 61.343329 155.958125 67.949862 155.958125 
Q 70.495047 155.958125 72.826765 155.405989 
Q 75.163956 154.860128 77.232945 153.780954 
L 77.232945 147.726284 
Q 75.098274 149.112897 72.985497 149.796793 
Q 70.87272 150.486962 68.748996 150.486962 
Q 64.819011 150.486962 62.689814 147.964706 
Q 60.560616 145.448724 60.560616 140.761845 
Q 60.560616 136.118885 62.613184 133.584081 
Q 64.665753 131.05555 68.442479 131.05555 
Q 69.4715 131.05555 70.352736 131.199858 
Q 71.233972 131.350441 71.934582 131.664154 
L 71.934582 137.348642 
L 67.911548 137.348642 
L 67.911548 142.411978 
L 78.17439 142.411978 
L 78.17439 128.332517 
z
" clip-path="url(#p4f911386d0)" style="fill: #ffa600"/>
   </g>
   <g id="patch_26">
    <path d="M 129.590868 127.845972 
Q 127.127786 126.71518 124.478604 126.147202 
Q 121.829423 125.584387 119.005088 125.584387 
Q 112.622969 125.584387 108.895505 128.950947 
Q 105.168041 132.317508 105.168041 138.074739 
Q 105.168041 143.899095 108.961187 147.239838 
Q 112.759807 150.580581 119.36634 150.580581 
Q 121.911525 150.580581 124.243243 150.126198 
Q 126.580434 149.676979 128.649423 148.788868 
L 128.649423 143.806153 
Q 126.514752 144.947272 124.401975 145.510087 
Q 122.289198 146.078065 120.165474 146.078065 
Q 116.235489 146.078065 114.106292 144.002363 
Q 111.977094 141.931825 111.977094 138.074739 
Q 111.977094 134.253796 114.029663 132.167768 
Q 116.082231 130.086903 119.858957 130.086903 
Q 120.887978 130.086903 121.769214 130.205662 
Q 122.65045 130.329585 123.35106 130.587757 
L 123.35106 135.26583 
L 119.328026 135.26583 
L 119.328026 139.432722 
L 129.590868 139.432722 
L 129.590868 127.845972 
z
" clip-path="url(#p4f911386d0)" style="fill: #ffa600"/>
   </g>
   <g id="patch_27">
    <path d="M 155.299107 126.874315 
Q 152.836025 126.229351 150.186843 125.905397 
Q 147.537662 125.584387 144.713328 125.584387 
Q 138.331208 125.584387 134.603744 127.504554 
Q 130.87628 129.42472 130.87628 132.708441 
Q 130.87628 136.030447 134.669426 137.935888 
Q 138.468046 139.841329 145.07458 139.841329 
Q 147.619764 139.841329 149.951482 139.582166 
Q 152.288673 139.325947 154.357662 138.8194 
L 154.357662 135.977436 
Q 152.222991 136.62829 150.110214 136.949299 
Q 147.997437 137.273254 145.873713 137.273254 
Q 141.943729 137.273254 139.814531 136.089347 
Q 137.685333 134.908386 137.685333 132.708441 
Q 137.685333 130.529111 139.737902 129.339314 
Q 141.79047 128.152463 145.567196 128.152463 
Q 146.596217 128.152463 147.477453 128.220199 
Q 148.358689 128.29088 149.059299 128.438132 
L 149.059299 131.106339 
L 145.036265 131.106339 
L 145.036265 133.482986 
L 155.299107 133.482986 
L 155.299107 126.874315 
z
" clip-path="url(#p4f911386d0)" style="fill: #ffa600"/>
   </g>
   <g id="patch_28">
    <path d="M 181.007346 126.472662 
Q 178.964419 126.032364 176.75535 125.809656 
Q 174.546281 125.584387 172.140303 125.584387 
Q 164.965444 125.584387 160.774981 127.253422 
Q 156.584519 128.922457 156.584519 131.776712 
Q 156.584519 134.641206 160.774981 136.307681 
Q 164.965444 137.976716 172.140303 137.976716 
Q 174.546281 137.976716 176.75535 137.751448 
Q 178.964419 137.528739 181.007346 137.088441 
L 181.007346 134.618167 
Q 178.945958 135.201818 176.946105 135.473164 
Q 174.946251 135.74451 172.737182 135.74451 
Q 168.774396 135.74451 166.503793 134.687284 
Q 164.239343 133.632617 164.239343 131.776712 
Q 164.239343 129.928486 166.503793 128.87126 
Q 168.774396 127.816594 172.737182 127.816594 
Q 174.946251 127.816594 176.946105 128.08794 
Q 178.945958 128.361846 181.007346 128.945496 
L 181.007346 126.472662 
z
" clip-path="url(#p4f911386d0)" style="fill: #0000ff"/>
   </g>
   <g id="patch_29">
    <path d="M 206.715585 125.888269 
Q 204.252503 125.736328 201.603321 125.660011 
Q 198.95414 125.584387 196.129806 125.584387 
Q 189.747686 125.584387 186.020222 126.036741 
Q 182.292758 126.489095 182.292758 127.262676 
Q 182.292758 128.045276 186.085904 128.494161 
Q 189.884524 128.943046 196.491058 128.943046 
Q 199.036243 128.943046 201.36796 128.881992 
Q 203.705151 128.821632 205.77414 128.702299 
L 205.77414 128.032788 
Q 203.639469 128.186116 201.526692 128.26174 
Q 199.413915 128.338057 197.290191 128.338057 
Q 193.360207 128.338057 191.231009 128.059152 
Q 189.101812 127.78094 189.101812 127.262676 
Q 189.101812 126.749268 191.15438 126.468975 
Q 193.206948 126.189376 196.983674 126.189376 
Q 198.012695 126.189376 198.893931 126.205333 
Q 199.775167 126.221984 200.475777 126.256674 
L 200.475777 126.885252 
L 196.452743 126.885252 
L 196.452743 127.445144 
L 206.715585 127.445144 
L 206.715585 125.888269 
z
" clip-path="url(#p4f911386d0)" style="fill: #ffa600"/>
   </g>
   <g id="patch_30">
    <path d="M 232.423824 125.99719 
Q 230.380897 125.792573 228.171828 125.689075 
Q 225.962759 125.584387 223.556781 125.584387 
Q 216.381922 125.584387 212.191459 126.360028 
Q 208.000997 127.135669 208.000997 128.46211 
Q 208.000997 129.79331 212.191459 130.567762 
Q 216.381922 131.343403 223.556781 131.343403 
Q 225.962759 131.343403 228.171828 131.238715 
Q 230.380897 131.135217 232.423824 130.9306 
L 232.423824 129.782604 
Q 230.362437 130.05384 228.362583 130.179941 
Q 226.36273 130.306042 224.153661 130.306042 
Q 220.190874 130.306042 217.920271 129.814724 
Q 215.655821 129.324595 215.655821 128.46211 
Q 215.655821 127.603195 217.920271 127.111877 
Q 220.190874 126.621748 224.153661 126.621748 
Q 226.36273 126.621748 228.362583 126.747849 
Q 230.362437 126.875139 232.423824 127.146376 
L 232.423824 125.99719 
z
" clip-path="url(#p4f911386d0)" style="fill: #0000ff"/>
   </g>
   <g id="patch_31">
    <path d="M 360.96502 126.644072 
Q 358.922092 126.118811 356.713023 125.853126 
Q 354.503954 125.584387 352.097977 125.584387 
Q 344.923117 125.584387 340.732655 127.575496 
Q 336.542193 129.566605 336.542193 132.971645 
Q 336.542193 136.3889 340.732655 138.376955 
Q 344.923117 140.368064 352.097977 140.368064 
Q 354.503954 140.368064 356.713023 140.099325 
Q 358.922092 139.83364 360.96502 139.308379 
L 360.96502 136.361416 
Q 358.903632 137.057693 356.903779 137.381401 
Q 354.903925 137.705109 352.694856 137.705109 
Q 348.732069 137.705109 346.461466 136.44387 
Q 344.197017 135.185684 344.197017 132.971645 
Q 344.197017 130.766767 346.461466 129.505528 
Q 348.732069 128.247342 352.694856 128.247342 
Q 354.903925 128.247342 356.903779 128.57105 
Q 358.903632 128.897812 360.96502 129.594089 
L 360.96502 126.644072 
z
" clip-path="url(#p4f911386d0)" style="fill: #0000ff"/>
   </g>
   <g id="patch_32">
    <path d="M 515.214454 128.246442 
Q 512.751372 126.915414 510.102191 126.246862 
Q 507.453009 125.584387 504.628675 125.584387 
Q 498.246556 125.584387 494.519091 129.54708 
Q 490.791627 133.509773 490.791627 140.286463 
Q 490.791627 147.142165 494.584774 151.074469 
Q 498.383393 155.006773 504.989927 155.006773 
Q 507.535112 155.006773 509.866829 154.471931 
Q 512.204021 153.943167 514.27301 152.897794 
L 514.27301 147.032765 
Q 512.138338 148.375948 510.025561 149.038423 
Q 507.912784 149.706975 505.78906 149.706975 
Q 501.859076 149.706975 499.729878 147.26372 
Q 497.600681 144.826542 497.600681 140.286463 
Q 497.600681 135.788929 499.653249 133.333518 
Q 501.705817 130.884185 505.482543 130.884185 
Q 506.511564 130.884185 507.3928 131.023973 
Q 508.274036 131.169839 508.974646 131.473727 
L 508.974646 136.980168 
L 504.951612 136.980168 
L 504.951612 141.884911 
L 515.214454 141.884911 
L 515.214454 128.246442 
z
" clip-path="url(#p4f911386d0)" style="fill: #ffa600"/>
   </g>
   <g id="patch_33">
    <path d="M 687.667015 126.044574 
L 678.274388 126.044574 
L 676.791341 125.584387 
L 670.749301 125.584387 
L 679.377934 128.11054 
L 686.543495 128.11054 
L 695.172128 125.584387 
L 689.135081 125.584387 
L 687.667015 126.044574 
z
M 679.772414 126.513422 
L 686.154008 126.513422 
L 682.968204 127.518253 
L 679.772414 126.513422 
z
" clip-path="url(#p4f911386d0)" style="fill: #008000"/>
   </g>
   <g id="matplotlib.axis_1">
    <g id="text_1">
     <text style="font-size: 10px; font-family: 'DejaVu Sans', 'Bitstream Vera Sans', 'Computer Modern Sans Serif', 'Lucida Grande', 'Verdana', 'Geneva', 'Lucid', 'Arial', 'Helvetica', 'Avant Garde', sans-serif; text-anchor: middle" x="451.586563" y="167.556563" transform="rotate(-0 451.586563 167.556563)">Region around edits (±15 bp)</text>
    </g>
   </g>
   <g id="matplotlib.axis_2">
    <g id="ytick_1">
     <g id="line2d_2">
      <defs>
       <path id="m14901ca3aa" d="M 0 0 
L -3.5 0 
" style="stroke: #000000; stroke-width: 0.8"/>
      </defs>
      <g>
       <use xlink:href="#m14901ca3aa" x="53.751563" y="155.958125" style="stroke: #000000; stroke-width: 0.8"/>
      </g>
     </g>
     <g id="text_2">
      <text style="font-size: 10px; font-family: 'DejaVu Sans', 'Bitstream Vera Sans', 'Computer Modern Sans Serif', 'Lucida Grande', 'Verdana', 'Geneva', 'Lucid', 'Arial', 'Helvetica', 'Avant Garde', sans-serif; text-anchor: end" x="46.751563" y="159.757344" transform="rotate(-0 46.751563 159.757344)">-0.01</text>
     </g>
    </g>
    <g id="ytick_2">
     <g id="line2d_3">
      <g>
       <use xlink:href="#m14901ca3aa" x="53.751563" y="22.318125" style="stroke: #000000; stroke-width: 0.8"/>
      </g>
     </g>
     <g id="text_3">
      <text style="font-size: 10px; font-family: 'DejaVu Sans', 'Bitstream Vera Sans', 'Computer Modern Sans Serif', 'Lucida Grande', 'Verdana', 'Geneva', 'Lucid', 'Arial', 'Helvetica', 'Avant Garde', sans-serif; text-anchor: end" x="46.751563" y="26.117344" transform="rotate(-0 46.751563 26.117344)">0.03</text>
     </g>
    </g>
    <g id="text_4">
     <text style="font-size: 10px; font-family: 'DejaVu Sans', 'Bitstream Vera Sans', 'Computer Modern Sans Serif', 'Lucida Grande', 'Verdana', 'Geneva', 'Lucid', 'Arial', 'Helvetica', 'Avant Garde', sans-serif; text-anchor: middle" x="14.798438" y="89.138125" transform="rotate(-90 14.798438 89.138125)">Value magnitude</text>
    </g>
   </g>
   <g id="line2d_4">
    <path d="M 451.586563 155.958125 
L 451.586563 22.318125 
" clip-path="url(#p4f911386d0)" style="fill: none; stroke-dasharray: 3.7,1.6; stroke-dashoffset: 0; stroke: #1f77b4"/>
   </g>
   <g id="patch_34">
    <path d="M 53.751563 155.958125 
L 53.751563 22.318125 
" style="fill: none; stroke: #000000; stroke-linejoin: miter; stroke-linecap: square"/>
   </g>
   <g id="text_5">
    <text style="font-size: 12px; font-family: 'DejaVu Sans', 'Bitstream Vera Sans', 'Computer Modern Sans Serif', 'Lucida Grande', 'Verdana', 'Geneva', 'Lucid', 'Arial', 'Helvetica', 'Avant Garde', sans-serif; text-anchor: middle" x="451.586563" y="16.318125" transform="rotate(-0 451.586563 16.318125)">Original</text>
   </g>
  </g>
  <g id="axes_2">
   <g id="patch_35">
    <path d="M 53.751563 330.558125 
L 849.421563 330.558125 
L 849.421563 196.918125 
L 53.751563 196.918125 
z
" style="fill: #ffffff"/>
   </g>
   <g id="line2d_5">
    <path d="M 53.751563 300.184387 
L 849.421563 300.184387 
" clip-path="url(#p090c83f2af)" style="fill: none; stroke: #000000; stroke-width: 0.5; stroke-linecap: square"/>
   </g>
   <g id="patch_36">
    <path d="M 78.17439 300.121203 
Q 75.711308 300.152795 73.062126 300.168663 
Q 70.412944 300.184387 67.58861 300.184387 
Q 61.206491 300.184387 57.479027 300.090333 
Q 53.751562 299.996278 53.751562 299.835433 
Q 53.751562 299.672713 57.544709 299.579379 
Q 61.343329 299.486046 67.949862 299.486046 
Q 70.495047 299.486046 72.826765 299.49874 
Q 75.163956 299.51129 77.232945 299.536102 
L 77.232945 299.675309 
Q 75.098274 299.643429 72.985497 299.627705 
Q 70.87272 299.611837 68.748996 299.611837 
Q 64.819011 299.611837 62.689814 299.669827 
Q 60.560616 299.727674 60.560616 299.835433 
Q 60.560616 299.942182 62.613184 300.000461 
Q 64.665753 300.058596 68.442479 300.058596 
Q 69.4715 300.058596 70.352736 300.055278 
Q 71.233972 300.051816 71.934582 300.044604 
L 71.934582 299.913908 
L 67.911548 299.913908 
L 67.911548 299.797494 
L 78.17439 299.797494 
L 78.17439 300.121203 
z
" clip-path="url(#p090c83f2af)" style="fill: #ffa600"/>
   </g>
   <g id="patch_37">
    <path d="M 103.882629 300.133288 
Q 101.419547 300.158838 98.770365 300.171671 
Q 96.121183 300.184387 93.296849 300.184387 
Q 86.91473 300.184387 83.187266 300.108322 
Q 79.459802 300.032257 79.459802 299.902176 
Q 79.459802 299.770579 83.252948 299.695097 
Q 87.051568 299.619615 93.658101 299.619615 
Q 96.203286 299.619615 98.535004 299.629882 
Q 100.872195 299.640031 102.941184 299.660098 
L 102.941184 299.772679 
Q 100.806513 299.746896 98.693736 299.73418 
Q 96.580959 299.721347 94.457235 299.721347 
Q 90.52725 299.721347 88.398053 299.768246 
Q 86.268855 299.815028 86.268855 299.902176 
Q 86.268855 299.988508 88.321424 300.03564 
Q 90.373992 300.082656 94.150718 300.082656 
Q 95.179739 300.082656 96.060975 300.079973 
Q 96.942211 300.077173 97.642821 300.071339 
L 97.642821 299.965642 
L 93.619787 299.965642 
L 93.619787 299.871494 
L 103.882629 299.871494 
L 103.882629 300.133288 
z
" clip-path="url(#p090c83f2af)" style="fill: #ffa600"/>
   </g>
   <g id="patch_38">
    <path d="M 129.590868 300.07361 
Q 127.127786 300.128999 124.478604 300.156819 
Q 121.829423 300.184387 119.005088 300.184387 
Q 112.622969 300.184387 108.895505 300.019486 
Q 105.168041 299.854585 105.168041 299.572584 
Q 105.168041 299.287295 108.961187 299.123658 
Q 112.759807 298.960022 119.36634 298.960022 
Q 121.911525 298.960022 124.243243 298.982278 
Q 126.580434 299.004282 128.649423 299.047783 
L 128.649423 299.291847 
Q 126.514752 299.235953 124.401975 299.208385 
Q 122.289198 299.180564 120.165474 299.180564 
Q 116.235489 299.180564 114.106292 299.282236 
Q 111.977094 299.383656 111.977094 299.572584 
Q 111.977094 299.759742 114.029663 299.86192 
Q 116.082231 299.963845 119.858957 299.963845 
Q 120.887978 299.963845 121.769214 299.958028 
Q 122.65045 299.951958 123.35106 299.939312 
L 123.35106 299.71017 
L 119.328026 299.71017 
L 119.328026 299.506067 
L 129.590868 299.506067 
L 129.590868 300.07361 
z
" clip-path="url(#p090c83f2af)" style="fill: #ffa600"/>
   </g>
   <g id="patch_39">
    <path d="M 155.299107 300.074089 
Q 152.836025 300.129238 150.186843 300.156939 
Q 147.537662 300.184387 144.713328 300.184387 
Q 138.331208 300.184387 134.603744 300.020199 
Q 130.87628 299.85601 130.87628 299.575227 
Q 130.87628 299.29117 134.669426 299.128241 
Q 138.468046 298.965311 145.07458 298.965311 
Q 147.619764 298.965311 149.951482 298.987472 
Q 152.288673 299.00938 154.357662 299.052694 
L 154.357662 299.295703 
Q 152.222991 299.24005 150.110214 299.212602 
Q 147.997437 299.184901 145.873713 299.184901 
Q 141.943729 299.184901 139.814531 299.286134 
Q 137.685333 299.387115 137.685333 299.575227 
Q 137.685333 299.761576 139.737902 299.863313 
Q 141.79047 299.964797 145.567196 299.964797 
Q 146.596217 299.964797 147.477453 299.959005 
Q 148.358689 299.952962 149.059299 299.940371 
L 149.059299 299.712219 
L 145.036265 299.712219 
L 145.036265 299.508997 
L 155.299107 299.508997 
L 155.299107 300.074089 
z
" clip-path="url(#p090c83f2af)" style="fill: #ffa600"/>
   </g>
   <g id="patch_40">
    <path d="M 181.007346 300.089621 
Q 178.964419 300.136594 176.75535 300.160354 
Q 174.546281 300.184387 172.140303 300.184387 
Q 164.965444 300.184387 160.774981 300.006325 
Q 156.584519 299.828263 156.584519 299.523755 
Q 156.584519 299.218155 160.774981 299.040366 
Q 164.965444 298.862304 172.140303 298.862304 
Q 174.546281 298.862304 176.75535 298.886337 
Q 178.964419 298.910096 181.007346 298.95707 
L 181.007346 299.220613 
Q 178.945958 299.158346 176.946105 299.129397 
Q 174.946251 299.100448 172.737182 299.100448 
Q 168.774396 299.100448 166.503793 299.213239 
Q 164.239343 299.325757 164.239343 299.523755 
Q 164.239343 299.720934 166.503793 299.833725 
Q 168.774396 299.946243 172.737182 299.946243 
Q 174.946251 299.946243 176.946105 299.917294 
Q 178.945958 299.888072 181.007346 299.825805 
L 181.007346 300.089621 
z
" clip-path="url(#p090c83f2af)" style="fill: #0000ff"/>
   </g>
   <g id="patch_41">
    <path d="M 206.715585 300.061566 
Q 204.252503 300.122976 201.603321 300.153822 
Q 198.95414 300.184387 196.129806 300.184387 
Q 189.747686 300.184387 186.020222 300.001557 
Q 182.292758 299.818726 182.292758 299.506064 
Q 182.292758 299.189756 186.085904 299.008327 
Q 189.884524 298.826899 196.491058 298.826899 
Q 199.036243 298.826899 201.36796 298.851576 
Q 203.705151 298.875972 205.77414 298.924203 
L 205.77414 299.194803 
Q 203.639469 299.132832 201.526692 299.102266 
Q 199.413915 299.071421 197.290191 299.071421 
Q 193.360207 299.071421 191.231009 299.184148 
Q 189.101812 299.296594 189.101812 299.506064 
Q 189.101812 299.713571 191.15438 299.826858 
Q 193.206948 299.939865 196.983674 299.939865 
Q 198.012695 299.939865 198.893931 299.933416 
Q 199.775167 299.926686 200.475777 299.912665 
L 200.475777 299.658609 
L 196.452743 299.658609 
L 196.452743 299.432315 
L 206.715585 299.432315 
L 206.715585 300.061566 
z
" clip-path="url(#p090c83f2af)" style="fill: #ffa600"/>
   </g>
   <g id="patch_42">
    <path d="M 232.423824 300.08057 
Q 230.380897 300.13203 228.171828 300.158059 
Q 225.962759 300.184387 223.556781 300.184387 
Q 216.381922 300.184387 212.191459 299.989319 
Q 208.000997 299.794251 208.000997 299.460661 
Q 208.000997 299.125873 212.191459 298.931104 
Q 216.381922 298.736036 223.556781 298.736036 
Q 225.962759 298.736036 228.171828 298.762364 
Q 230.380897 298.788393 232.423824 298.839853 
L 232.423824 299.128566 
Q 230.362437 299.060352 228.362583 299.028638 
Q 226.36273 298.996925 224.153661 298.996925 
Q 220.190874 298.996925 217.920271 299.120488 
Q 215.655821 299.243752 215.655821 299.460661 
Q 215.655821 299.676672 217.920271 299.800235 
Q 220.190874 299.923499 224.153661 299.923499 
Q 226.36273 299.923499 228.362583 299.891785 
Q 230.362437 299.859772 232.423824 299.791558 
L 232.423824 300.08057 
z
" clip-path="url(#p090c83f2af)" style="fill: #0000ff"/>
   </g>
   <g id="patch_43">
    <path d="M 258.132063 300.147643 
Q 256.089136 300.165856 253.880067 300.175069 
Q 251.670998 300.184387 249.26502 300.184387 
Q 242.090161 300.184387 237.899699 300.115345 
Q 233.709236 300.046304 233.709236 299.928234 
Q 233.709236 299.80974 237.899699 299.740804 
Q 242.090161 299.671762 249.26502 299.671762 
Q 251.670998 299.671762 253.880067 299.681081 
Q 256.089136 299.690293 258.132063 299.708507 
L 258.132063 299.810693 
Q 256.070676 299.786549 254.070822 299.775325 
Q 252.070969 299.7641 249.8619 299.7641 
Q 245.899113 299.7641 243.62851 299.807834 
Q 241.36406 299.851462 241.36406 299.928234 
Q 241.36406 300.004688 243.62851 300.048421 
Q 245.899113 300.092049 249.8619 300.092049 
Q 252.070969 300.092049 254.070822 300.080824 
Q 256.070676 300.069494 258.132063 300.045351 
L 258.132063 300.147643 
z
" clip-path="url(#p090c83f2af)" style="fill: #0000ff"/>
   </g>
   <g id="patch_44">
    <path d="M 283.840302 300.181447 
Q 281.797375 300.182904 279.588306 300.183642 
Q 277.379237 300.184387 274.973259 300.184387 
Q 267.7984 300.184387 263.607938 300.178862 
Q 259.417475 300.173338 259.417475 300.16389 
Q 259.417475 300.154408 263.607938 300.148891 
Q 267.7984 300.143366 274.973259 300.143366 
Q 277.379237 300.143366 279.588306 300.144112 
Q 281.797375 300.144849 283.840302 300.146307 
L 283.840302 300.154484 
Q 281.778915 300.152552 279.779061 300.151654 
Q 277.779208 300.150755 275.570139 300.150755 
Q 271.607352 300.150755 269.336749 300.154255 
Q 267.072299 300.157746 267.072299 300.16389 
Q 267.072299 300.170008 269.336749 300.173507 
Q 271.607352 300.176998 275.570139 300.176998 
Q 277.779208 300.176998 279.779061 300.1761 
Q 281.778915 300.175193 283.840302 300.173261 
L 283.840302 300.181447 
z
" clip-path="url(#p090c83f2af)" style="fill: #0000ff"/>
   </g>
   <g id="patch_45">
    <path d="M 285.125714 299.448434 
L 309.548541 299.448434 
L 309.548541 299.591966 
L 300.762003 299.591966 
L 300.762003 300.184387 
L 293.929292 300.184387 
L 293.929292 299.591966 
L 285.125714 299.591966 
L 285.125714 299.448434 
z
" clip-path="url(#p090c83f2af)" style="fill: #ff0000"/>
   </g>
   <g id="patch_46">
    <path d="M 335.256781 300.157318 
Q 333.213853 300.170736 331.004784 300.177522 
Q 328.795715 300.184387 326.389738 300.184387 
Q 319.214878 300.184387 315.024416 300.133526 
Q 310.833953 300.082664 310.833953 299.995685 
Q 310.833953 299.908393 315.024416 299.85761 
Q 319.214878 299.806748 326.389738 299.806748 
Q 328.795715 299.806748 331.004784 299.813613 
Q 333.213853 299.8204 335.256781 299.833817 
L 335.256781 299.909095 
Q 333.195393 299.891309 331.195539 299.88304 
Q 329.195686 299.874772 326.986617 299.874772 
Q 323.02383 299.874772 320.753227 299.906989 
Q 318.488778 299.939129 318.488778 299.995685 
Q 318.488778 300.052007 320.753227 300.084224 
Q 323.02383 300.116364 326.986617 300.116364 
Q 329.195686 300.116364 331.195539 300.108095 
Q 333.195393 300.099748 335.256781 300.081962 
L 335.256781 300.157318 
z
" clip-path="url(#p090c83f2af)" style="fill: #0000ff"/>
   </g>
   <g id="patch_47">
    <path d="M 360.96502 300.15509 
Q 358.922092 300.169612 356.713023 300.176957 
Q 354.503954 300.184387 352.097977 300.184387 
Q 344.923117 300.184387 340.732655 300.129339 
Q 336.542193 300.07429 336.542193 299.980151 
Q 336.542193 299.885673 340.732655 299.830709 
Q 344.923117 299.775661 352.097977 299.775661 
Q 354.503954 299.775661 356.713023 299.783091 
Q 358.922092 299.790436 360.96502 299.804958 
L 360.96502 299.886433 
Q 358.903632 299.867183 356.903779 299.858234 
Q 354.903925 299.849284 352.694856 299.849284 
Q 348.732069 299.849284 346.461466 299.884154 
Q 344.197017 299.918939 344.197017 299.980151 
Q 344.197017 300.041109 346.461466 300.075979 
Q 348.732069 300.110764 352.694856 300.110764 
Q 354.903925 300.110764 356.903779 300.101815 
Q 358.903632 300.092781 360.96502 300.07353 
L 360.96502 300.15509 
z
" clip-path="url(#p090c83f2af)" style="fill: #0000ff"/>
   </g>
   <g id="patch_48">
    <path d="M 379.168145 300.067189 
L 369.775519 300.067189 
L 368.292472 300.184387 
L 362.250432 300.184387 
L 370.879065 299.541039 
L 378.044626 299.541039 
L 386.673259 300.184387 
L 380.636212 300.184387 
L 379.168145 300.067189 
z
M 371.273545 299.947785 
L 377.655139 299.947785 
L 374.469335 299.69188 
L 371.273545 299.947785 
z
" clip-path="url(#p090c83f2af)" style="fill: #008000"/>
   </g>
   <g id="patch_49">
    <path d="M 412.381498 300.160624 
Q 409.918416 300.172506 407.269234 300.178474 
Q 404.620053 300.184387 401.795718 300.184387 
Q 395.413599 300.184387 391.686135 300.149014 
Q 387.958671 300.113641 387.958671 300.053148 
Q 387.958671 299.991951 391.751817 299.956849 
Q 395.550437 299.921747 402.156971 299.921747 
Q 404.702155 299.921747 407.033873 299.926521 
Q 409.371064 299.931241 411.440053 299.940573 
L 411.440053 299.992927 
Q 409.305382 299.980937 407.192605 299.975024 
Q 405.079828 299.969056 402.956104 299.969056 
Q 399.02612 299.969056 396.896922 299.990866 
Q 394.767724 300.012621 394.767724 300.053148 
Q 394.767724 300.093296 396.820293 300.115214 
Q 398.872861 300.137078 402.649587 300.137078 
Q 403.678608 300.137078 404.559844 300.135831 
Q 405.44108 300.134528 406.14169 300.131816 
L 406.14169 300.082662 
L 402.118656 300.082662 
L 402.118656 300.03888 
L 412.381498 300.03888 
L 412.381498 300.160624 
z
" clip-path="url(#p090c83f2af)" style="fill: #ffa600"/>
   </g>
   <g id="patch_50">
    <path d="M 413.66691 299.975683 
L 438.089737 299.975683 
L 438.089737 300.016386 
L 429.303199 300.016386 
L 429.303199 300.184387 
L 422.470487 300.184387 
L 422.470487 300.016386 
L 413.66691 300.016386 
L 413.66691 299.975683 
z
" clip-path="url(#p090c83f2af)" style="fill: #ff0000"/>
   </g>
   <g id="patch_51">
    <path d="M 439.375149 299.947536 
L 463.797976 299.947536 
L 463.797976 299.993728 
L 455.011438 299.993728 
L 455.011438 300.184387 
L 448.178726 300.184387 
L 448.178726 299.993728 
L 439.375149 299.993728 
L 439.375149 299.947536 
z
" clip-path="url(#p090c83f2af)" style="fill: #ff0000"/>
   </g>
   <g id="patch_52">
    <path d="M 489.506215 300.156618 
Q 487.043133 300.170503 484.393951 300.177477 
Q 481.74477 300.184387 478.920436 300.184387 
Q 472.538316 300.184387 468.810852 300.143051 
Q 465.083388 300.101714 465.083388 300.031024 
Q 465.083388 299.959509 468.876534 299.91849 
Q 472.675154 299.87747 479.281688 299.87747 
Q 481.826873 299.87747 484.15859 299.883049 
Q 486.495782 299.888565 488.56477 299.89947 
L 488.56477 299.96065 
Q 486.430099 299.946639 484.317322 299.939728 
Q 482.204545 299.932755 480.080821 299.932755 
Q 476.150837 299.932755 474.021639 299.958241 
Q 471.892442 299.983664 471.892442 300.031024 
Q 471.892442 300.077939 473.94501 300.103553 
Q 475.997578 300.129103 479.774304 300.129103 
Q 480.803325 300.129103 481.684561 300.127645 
Q 482.565797 300.126123 483.266407 300.122953 
L 483.266407 300.065513 
L 479.243373 300.065513 
L 479.243373 300.01435 
L 489.506215 300.01435 
L 489.506215 300.156618 
z
" clip-path="url(#p090c83f2af)" style="fill: #ffa600"/>
   </g>
   <g id="patch_53">
    <path d="M 515.214454 300.145239 
Q 512.751372 300.164813 510.102191 300.174645 
Q 507.453009 300.184387 504.628675 300.184387 
Q 498.246556 300.184387 494.519091 300.126112 
Q 490.791627 300.067837 490.791627 299.968179 
Q 490.791627 299.86736 494.584774 299.809532 
Q 498.383393 299.751704 504.989927 299.751704 
Q 507.535112 299.751704 509.866829 299.759569 
Q 512.204021 299.767345 514.27301 299.782718 
L 514.27301 299.868969 
Q 512.138338 299.849216 510.025561 299.839474 
Q 507.912784 299.829642 505.78906 299.829642 
Q 501.859076 299.829642 499.729878 299.865572 
Q 497.600681 299.901413 497.600681 299.968179 
Q 497.600681 300.03432 499.653249 300.070429 
Q 501.705817 300.106449 505.482543 300.106449 
Q 506.511564 300.106449 507.3928 300.104393 
Q 508.274036 300.102248 508.974646 300.097779 
L 508.974646 300.016802 
L 504.951612 300.016802 
L 504.951612 299.944673 
L 515.214454 299.944673 
L 515.214454 300.145239 
z
" clip-path="url(#p090c83f2af)" style="fill: #ffa600"/>
   </g>
   <g id="patch_54">
    <path d="M 669.463889 300.138031 
Q 667.000807 300.161209 664.351625 300.172851 
Q 661.702444 300.184387 658.878109 300.184387 
Q 652.49599 300.184387 648.768526 300.115382 
Q 645.041062 300.046377 645.041062 299.928369 
Q 645.041062 299.808985 648.834208 299.740509 
Q 652.632828 299.672033 659.239361 299.672033 
Q 661.784546 299.672033 664.116264 299.681347 
Q 666.453455 299.690554 668.522444 299.708758 
L 668.522444 299.81089 
Q 666.387773 299.787501 664.274996 299.775964 
Q 662.162219 299.764322 660.038495 299.764322 
Q 656.10851 299.764322 653.979313 299.806869 
Q 651.850115 299.849309 651.850115 299.928369 
Q 651.850115 300.006688 653.902684 300.049446 
Q 655.955252 300.092098 659.731978 300.092098 
Q 660.760999 300.092098 661.642235 300.089664 
Q 662.523471 300.087124 663.224081 300.081832 
L 663.224081 299.985944 
L 659.201047 299.985944 
L 659.201047 299.900534 
L 669.463889 299.900534 
L 669.463889 300.138031 
z
" clip-path="url(#p090c83f2af)" style="fill: #ffa600"/>
   </g>
   <g id="patch_55">
    <path d="M 687.667015 300.179789 
L 678.274388 300.179789 
L 676.791341 300.184387 
L 670.749301 300.184387 
L 679.377934 300.159145 
L 686.543495 300.159145 
L 695.172128 300.184387 
L 689.135081 300.184387 
L 687.667015 300.179789 
z
M 679.772414 300.175104 
L 686.154008 300.175104 
L 682.968204 300.165064 
L 679.772414 300.175104 
z
" clip-path="url(#p090c83f2af)" style="fill: #008000"/>
   </g>
   <g id="patch_56">
    <path d="M 746.588606 300.147549 
Q 744.125524 300.165968 741.476342 300.17522 
Q 738.827161 300.184387 736.002827 300.184387 
Q 729.620707 300.184387 725.893243 300.129551 
Q 722.165779 300.074714 722.165779 299.980936 
Q 722.165779 299.886066 725.958925 299.831649 
Q 729.757545 299.777233 736.364079 299.777233 
Q 738.909264 299.777233 741.240981 299.784635 
Q 743.578172 299.791952 745.647161 299.806418 
L 745.647161 299.887579 
Q 743.51249 299.868992 741.399713 299.859825 
Q 739.286936 299.850573 737.163212 299.850573 
Q 733.233228 299.850573 731.10403 299.884383 
Q 728.974833 299.91811 728.974833 299.980936 
Q 728.974833 300.043174 731.027401 300.077153 
Q 733.079969 300.111047 736.856695 300.111047 
Q 737.885716 300.111047 738.766952 300.109113 
Q 739.648188 300.107094 740.348798 300.102889 
L 740.348798 300.02669 
L 736.325764 300.02669 
L 736.325764 299.958817 
L 746.588606 299.958817 
L 746.588606 300.147549 
z
" clip-path="url(#p090c83f2af)" style="fill: #ffa600"/>
   </g>
   <g id="patch_57">
    <path d="M 764.791732 300.137143 
L 755.399105 300.137143 
L 753.916059 300.184387 
L 747.874018 300.184387 
L 756.502651 299.925047 
L 763.668212 299.925047 
L 772.296845 300.184387 
L 766.259798 300.184387 
L 764.791732 300.137143 
z
M 756.897132 300.08901 
L 763.278725 300.08901 
L 760.092922 299.985852 
L 756.897132 300.08901 
z
" clip-path="url(#p090c83f2af)" style="fill: #008000"/>
   </g>
   <g id="patch_58">
    <path d="M 824.998735 299.947159 
L 849.421563 299.947159 
L 849.421563 299.993425 
L 840.635024 299.993425 
L 840.635024 300.184387 
L 833.802313 300.184387 
L 833.802313 299.993425 
L 824.998735 299.993425 
L 824.998735 299.947159 
z
" clip-path="url(#p090c83f2af)" style="fill: #ff0000"/>
   </g>
   <g id="patch_59">
    <path d="M 540.922693 300.186952 
Q 538.459611 300.18567 535.81043 300.185026 
Q 533.161248 300.184387 530.336914 300.184387 
Q 523.954795 300.184387 520.22733 300.188205 
Q 516.499866 300.192024 516.499866 300.198553 
Q 516.499866 300.205159 520.293013 300.208947 
Q 524.091633 300.212736 530.698166 300.212736 
Q 533.243351 300.212736 535.575068 300.212221 
Q 537.91226 300.211712 539.981249 300.210704 
L 539.981249 300.205053 
Q 537.846578 300.206347 535.7338 300.206986 
Q 533.621023 300.20763 531.497299 300.20763 
Q 527.567315 300.20763 525.438117 300.205276 
Q 523.30892 300.202927 523.30892 300.198553 
Q 523.30892 300.19422 525.361488 300.191854 
Q 527.414057 300.189494 531.190782 300.189494 
Q 532.219803 300.189494 533.101039 300.189628 
Q 533.982275 300.189769 534.682885 300.190062 
L 534.682885 300.195367 
L 530.659851 300.195367 
L 530.659851 300.200093 
L 540.922693 300.200093 
L 540.922693 300.186952 
z
" clip-path="url(#p090c83f2af)" style="fill: #ffa600"/>
   </g>
   <g id="patch_60">
    <path d="M 559.125819 300.207224 
L 549.733192 300.207224 
L 548.250146 300.184387 
L 542.208105 300.184387 
L 550.836739 300.30975 
L 558.002299 300.30975 
L 566.630932 300.184387 
L 560.593885 300.184387 
L 559.125819 300.207224 
z
M 551.231219 300.230491 
L 557.612812 300.230491 
L 554.427009 300.280357 
L 551.231219 300.230491 
z
" clip-path="url(#p090c83f2af)" style="fill: #008000"/>
   </g>
   <g id="patch_61">
    <path d="M 584.834058 300.218103 
L 575.441431 300.218103 
L 573.958385 300.184387 
L 567.916344 300.184387 
L 576.544978 300.369467 
L 583.710538 300.369467 
L 592.339172 300.184387 
L 586.302124 300.184387 
L 584.834058 300.218103 
z
M 576.939458 300.252454 
L 583.321051 300.252454 
L 580.135248 300.326073 
L 576.939458 300.252454 
z
" clip-path="url(#p090c83f2af)" style="fill: #008000"/>
   </g>
   <g id="patch_62">
    <path d="M 610.542297 300.260126 
L 601.14967 300.260126 
L 599.666624 300.184387 
L 593.624584 300.184387 
L 602.253217 300.600147 
L 609.418777 300.600147 
L 618.047411 300.184387 
L 612.010363 300.184387 
L 610.542297 300.260126 
z
M 602.647697 300.33729 
L 609.02929 300.33729 
L 605.843487 300.502667 
L 602.647697 300.33729 
z
" clip-path="url(#p090c83f2af)" style="fill: #008000"/>
   </g>
   <g id="patch_63">
    <path d="M 619.332823 300.493831 
L 643.75565 300.493831 
L 643.75565 300.433481 
L 634.969112 300.433481 
L 634.969112 300.184387 
L 628.1364 300.184387 
L 628.1364 300.433481 
L 619.332823 300.433481 
L 619.332823 300.493831 
z
" clip-path="url(#p090c83f2af)" style="fill: #ff0000"/>
   </g>
   <g id="patch_64">
    <path d="M 713.375254 300.22553 
L 703.982627 300.22553 
L 702.499581 300.184387 
L 696.45754 300.184387 
L 705.086173 300.410238 
L 712.251734 300.410238 
L 720.880367 300.184387 
L 714.84332 300.184387 
L 713.375254 300.22553 
z
M 705.480653 300.267448 
L 711.862247 300.267448 
L 708.676444 300.357285 
L 705.480653 300.267448 
z
" clip-path="url(#p090c83f2af)" style="fill: #008000"/>
   </g>
   <g id="patch_65">
    <path d="M 790.499971 300.206769 
L 781.107344 300.206769 
L 779.624298 300.184387 
L 773.582257 300.184387 
L 782.21089 300.307248 
L 789.376451 300.307248 
L 798.005084 300.184387 
L 791.968037 300.184387 
L 790.499971 300.206769 
z
M 782.605371 300.229571 
L 788.986964 300.229571 
L 785.801161 300.278442 
L 782.605371 300.229571 
z
" clip-path="url(#p090c83f2af)" style="fill: #008000"/>
   </g>
   <g id="patch_66">
    <path d="M 799.290496 300.324647 
L 823.713323 300.324647 
L 823.713323 300.297292 
L 814.926785 300.297292 
L 814.926785 300.184387 
L 808.094073 300.184387 
L 808.094073 300.297292 
L 799.290496 300.297292 
L 799.290496 300.324647 
z
" clip-path="url(#p090c83f2af)" style="fill: #ff0000"/>
   </g>
   <g id="matplotlib.axis_3">
    <g id="text_6">
     <text style="font-size: 10px; font-family: 'DejaVu Sans', 'Bitstream Vera Sans', 'Computer Modern Sans Serif', 'Lucida Grande', 'Verdana', 'Geneva', 'Lucid', 'Arial', 'Helvetica', 'Avant Garde', sans-serif; text-anchor: middle" x="451.586563" y="342.156562" transform="rotate(-0 451.586563 342.156562)">Region around edits (±15 bp)</text>
    </g>
   </g>
   <g id="matplotlib.axis_4">
    <g id="ytick_3">
     <g id="line2d_6">
      <g>
       <use xlink:href="#m14901ca3aa" x="53.751563" y="330.558125" style="stroke: #000000; stroke-width: 0.8"/>
      </g>
     </g>
     <g id="text_7">
      <text style="font-size: 10px; font-family: 'DejaVu Sans', 'Bitstream Vera Sans', 'Computer Modern Sans Serif', 'Lucida Grande', 'Verdana', 'Geneva', 'Lucid', 'Arial', 'Helvetica', 'Avant Garde', sans-serif; text-anchor: end" x="46.751563" y="334.357344" transform="rotate(-0 46.751563 334.357344)">-0.01</text>
     </g>
    </g>
    <g id="ytick_4">
     <g id="line2d_7">
      <g>
       <use xlink:href="#m14901ca3aa" x="53.751563" y="196.918125" style="stroke: #000000; stroke-width: 0.8"/>
      </g>
     </g>
     <g id="text_8">
      <text style="font-size: 10px; font-family: 'DejaVu Sans', 'Bitstream Vera Sans', 'Computer Modern Sans Serif', 'Lucida Grande', 'Verdana', 'Geneva', 'Lucid', 'Arial', 'Helvetica', 'Avant Garde', sans-serif; text-anchor: end" x="46.751563" y="200.717344" transform="rotate(-0 46.751563 200.717344)">0.03</text>
     </g>
    </g>
    <g id="text_9">
     <text style="font-size: 10px; font-family: 'DejaVu Sans', 'Bitstream Vera Sans', 'Computer Modern Sans Serif', 'Lucida Grande', 'Verdana', 'Geneva', 'Lucid', 'Arial', 'Helvetica', 'Avant Garde', sans-serif; text-anchor: middle" x="14.798438" y="263.738125" transform="rotate(-90 14.798438 263.738125)">Value magnitude</text>
    </g>
   </g>
   <g id="line2d_8">
    <path d="M 451.586563 330.558125 
L 451.586563 196.918125 
" clip-path="url(#p090c83f2af)" style="fill: none; stroke-dasharray: 3.7,1.6; stroke-dashoffset: 0; stroke: #1f77b4"/>
   </g>
   <g id="patch_67">
    <path d="M 53.751563 330.558125 
L 53.751563 196.918125 
" style="fill: none; stroke: #000000; stroke-linejoin: miter; stroke-linecap: square"/>
   </g>
   <g id="text_10">
    <text style="font-size: 12px; font-family: 'DejaVu Sans', 'Bitstream Vera Sans', 'Computer Modern Sans Serif', 'Lucida Grande', 'Verdana', 'Geneva', 'Lucid', 'Arial', 'Helvetica', 'Avant Garde', sans-serif; text-anchor: middle" x="451.586563" y="190.918125" transform="rotate(-0 451.586563 190.918125)">Updated</text>
   </g>
  </g>
 </g>
 <defs>
  <clipPath id="p4f911386d0">
   <rect x="53.751563" y="22.318125" width="795.67" height="133.64"/>
  </clipPath>
  <clipPath id="p090c83f2af">
   <rect x="53.751563" y="196.918125" width="795.67" height="133.64"/>
  </clipPath>
 </defs>
</svg>
