<?xml version="1.0" encoding="utf-8" standalone="no"?>
<!DOCTYPE svg PUBLIC "-//W3C//DTD SVG 1.1//EN"
  "http://www.w3.org/Graphics/SVG/1.1/DTD/svg11.dtd">
<svg xmlns:xlink="http://www.w3.org/1999/xlink" width="856.621562pt" height="351.43625pt" viewBox="0 0 856.621562 351.43625" xmlns="http://www.w3.org/2000/svg" version="1.1">
 <metadata>
  <rdf:RDF xmlns:dc="http://purl.org/dc/elements/1.1/" xmlns:cc="http://creativecommons.org/ns#" xmlns:rdf="http://www.w3.org/1999/02/22-rdf-syntax-ns#">
   <cc:Work>
    <dc:type rdf:resource="http://purl.org/dc/dcmitype/StillImage"/>
    <dc:date>2025-11-27T21:58:11.927908</dc:date>
    <dc:format>image/svg+xml</dc:format>
    <dc:creator>
     <cc:Agent>
      <dc:title>Matplotlib v3.10.7, https://matplotlib.org/</dc:title>
     </cc:Agent>
    </dc:creator>
   </cc:Work>
  </rdf:RDF>
 </metadata>
 <defs>
  <style type="text/css">*{stroke-linejoin: round; stroke-linecap: butt}</style>
 </defs>
 <g id="figure_1">
  <g id="patch_1">
   <path d="M 0 351.43625 
L 856.621562 351.43625 
L 856.621562 0 
L 0 0 
z
" style="fill: #ffffff"/>
  </g>
  <g id="axes_1">
   <g id="patch_2">
    <path d="M 53.751563 155.958125 
L 849.421563 155.958125 
L 849.421563 22.318125 
L 53.751563 22.318125 
z
" style="fill: #ffffff"/>
   </g>
   <g id="line2d_1">
    <path d="M 53.751563 106.215214 
L 849.421563 106.215214 
" clip-path="url(#p2a1fa3b576)" style="fill: none; stroke: #000000; stroke-width: 0.5; stroke-linecap: square"/>
   </g>
   <g id="patch_3">
    <path d="M 78.17439 104.499165 
Q 76.131462 105.349771 73.922393 105.78002 
Q 71.713324 106.215214 69.307347 106.215214 
Q 62.132487 106.215214 57.942025 102.990821 
Q 53.751562 99.766429 53.751562 94.252323 
Q 53.751562 88.718434 57.942025 85.498988 
Q 62.132487 82.274595 69.307347 82.274595 
Q 71.713324 82.274595 73.922393 82.709789 
Q 76.131462 83.140038 78.17439 83.990644 
L 78.17439 88.762943 
Q 76.113002 87.635395 74.113149 87.111184 
Q 72.113295 86.586973 69.904226 86.586973 
Q 65.941439 86.586973 63.670836 88.629418 
Q 61.406387 90.666917 61.406387 94.252323 
Q 61.406387 97.822892 63.670836 99.865337 
Q 65.941439 101.902836 69.904226 101.902836 
Q 72.113295 101.902836 74.113149 101.378625 
Q 76.113002 100.849469 78.17439 99.721921 
L 78.17439 104.499165 
z
" clip-path="url(#p2a1fa3b576)" style="fill: #0000ff"/>
   </g>
   <g id="patch_4">
    <path d="M 129.590868 105.162419 
Q 127.54794 105.684265 125.338871 105.948223 
Q 123.129802 106.215214 120.723825 106.215214 
Q 113.548965 106.215214 109.358503 104.237052 
Q 105.168041 102.258889 105.168041 98.875989 
Q 105.168041 95.480953 109.358503 93.505825 
Q 113.548965 91.527663 120.723825 91.527663 
Q 123.129802 91.527663 125.338871 91.794654 
Q 127.54794 92.058612 129.590868 92.580458 
L 129.590868 95.508259 
Q 127.52948 94.816509 125.529627 94.494906 
Q 123.529773 94.173303 121.320704 94.173303 
Q 117.357917 94.173303 115.087314 95.426342 
Q 112.822865 96.676346 112.822865 98.875989 
Q 112.822865 101.066531 115.087314 102.319569 
Q 117.357917 103.569574 121.320704 103.569574 
Q 123.529773 103.569574 125.529627 103.247971 
Q 127.52948 102.923334 129.590868 102.231584 
L 129.590868 105.162419 
z
" clip-path="url(#p2a1fa3b576)" style="fill: #0000ff"/>
   </g>
   <g id="patch_5">
    <path d="M 155.299107 104.86616 
Q 153.25618 105.534855 151.047111 105.873091 
Q 148.838042 106.215214 146.432064 106.215214 
Q 139.257205 106.215214 135.066742 103.680393 
Q 130.87628 101.145571 130.87628 96.810716 
Q 130.87628 92.46031 135.066742 89.929377 
Q 139.257205 87.394555 146.432064 87.394555 
Q 148.838042 87.394555 151.047111 87.736679 
Q 153.25618 88.074914 155.299107 88.743609 
L 155.299107 92.4953 
Q 153.237719 91.60889 151.237866 91.196787 
Q 149.238012 90.784684 147.028943 90.784684 
Q 143.066156 90.784684 140.795553 92.39033 
Q 138.531104 93.992088 138.531104 96.810716 
Q 138.531104 99.617681 140.795553 101.223327 
Q 143.066156 102.825085 147.028943 102.825085 
Q 149.238012 102.825085 151.237866 102.412982 
Q 153.237719 101.996991 155.299107 101.110582 
L 155.299107 104.86616 
z
" clip-path="url(#p2a1fa3b576)" style="fill: #0000ff"/>
   </g>
   <g id="patch_6">
    <path d="M 206.715585 105.637056 
Q 204.672658 105.923635 202.463589 106.068592 
Q 200.25452 106.215214 197.848542 106.215214 
Q 190.673683 106.215214 186.48322 105.128876 
Q 182.292758 104.042539 182.292758 102.184768 
Q 182.292758 100.320333 186.48322 99.235661 
Q 190.673683 98.149324 197.848542 98.149324 
Q 200.25452 98.149324 202.463589 98.295946 
Q 204.672658 98.440902 206.715585 98.727482 
L 206.715585 100.335328 
Q 204.654198 99.955443 202.654344 99.77883 
Q 200.65449 99.602217 198.445421 99.602217 
Q 194.482635 99.602217 192.212032 100.290342 
Q 189.947582 100.976801 189.947582 102.184768 
Q 189.947582 103.387737 192.212032 104.075862 
Q 194.482635 104.762321 198.445421 104.762321 
Q 200.65449 104.762321 202.654344 104.585707 
Q 204.654198 104.407428 206.715585 104.027543 
L 206.715585 105.637056 
z
" clip-path="url(#p2a1fa3b576)" style="fill: #0000ff"/>
   </g>
   <g id="patch_7">
    <path d="M 232.423824 103.4397 
Q 230.380897 104.815459 228.171828 105.511337 
Q 225.962759 106.215214 223.556781 106.215214 
Q 216.381922 106.215214 212.191459 101.000127 
Q 208.000997 95.785041 208.000997 86.866602 
Q 208.000997 77.91617 212.191459 72.709082 
Q 216.381922 67.493995 223.556781 67.493995 
Q 225.962759 67.493995 228.171828 68.197872 
Q 230.380897 68.89375 232.423824 70.269509 
L 232.423824 77.988157 
Q 230.362437 76.164477 228.362583 75.316625 
Q 226.36273 74.468774 224.153661 74.468774 
Q 220.190874 74.468774 217.920271 77.772195 
Q 215.655821 81.067618 215.655821 86.866602 
Q 215.655821 92.641591 217.920271 95.945012 
Q 220.190874 99.240435 224.153661 99.240435 
Q 226.36273 99.240435 228.362583 98.392584 
Q 230.362437 97.536734 232.423824 95.713053 
L 232.423824 103.4397 
z
" clip-path="url(#p2a1fa3b576)" style="fill: #0000ff"/>
   </g>
   <g id="patch_8">
    <path d="M 250.62695 105.33265 
L 241.234323 105.33265 
L 239.751277 106.215214 
L 233.709236 106.215214 
L 242.337869 101.370458 
L 249.50343 101.370458 
L 258.132063 106.215214 
L 252.095016 106.215214 
L 250.62695 105.33265 
z
M 242.73235 104.433473 
L 249.113943 104.433473 
L 245.92814 102.506369 
L 242.73235 104.433473 
z
" clip-path="url(#p2a1fa3b576)" style="fill: #008000"/>
   </g>
   <g id="patch_9">
    <path d="M 283.840302 102.216299 
Q 281.37722 104.215756 278.728039 105.22005 
Q 276.078857 106.215214 273.254523 106.215214 
Q 266.872404 106.215214 263.144939 100.262491 
Q 259.417475 94.309769 259.417475 84.129883 
Q 259.417475 73.831308 263.210622 67.924235 
Q 267.009242 62.017162 273.615775 62.017162 
Q 276.16096 62.017162 278.492678 62.820597 
Q 280.829869 63.614902 282.898858 65.185252 
L 282.898858 73.995647 
Q 280.764187 71.97793 278.65141 70.982766 
Q 276.538632 69.978472 274.414908 69.978472 
Q 270.484924 69.978472 268.355726 73.648709 
Q 266.226529 77.309816 266.226529 84.129883 
Q 266.226529 90.88604 268.279097 94.574537 
Q 270.331666 98.253904 274.108391 98.253904 
Q 275.137412 98.253904 276.018648 98.043915 
Q 276.899884 97.824797 277.600494 97.3683 
L 277.600494 89.096572 
L 273.57746 89.096572 
L 273.57746 81.728708 
L 283.840302 81.728708 
L 283.840302 102.216299 
z
" clip-path="url(#p2a1fa3b576)" style="fill: #ffa600"/>
   </g>
   <g id="patch_10">
    <path d="M 335.256781 103.767419 
Q 333.213853 104.980735 331.004784 105.594447 
Q 328.795715 106.215214 326.389738 106.215214 
Q 319.214878 106.215214 315.024416 101.6159 
Q 310.833953 97.016586 310.833953 89.151194 
Q 310.833953 81.257586 315.024416 76.665326 
Q 319.214878 72.066012 326.389738 72.066012 
Q 328.795715 72.066012 331.004784 72.686778 
Q 333.213853 73.30049 335.256781 74.513806 
L 335.256781 81.321073 
Q 333.195393 79.712724 331.195539 78.964983 
Q 329.195686 78.217242 326.986617 78.217242 
Q 323.02383 78.217242 320.753227 81.130611 
Q 318.488778 84.036926 318.488778 89.151194 
Q 318.488778 94.2443 320.753227 97.157669 
Q 323.02383 100.063984 326.986617 100.063984 
Q 329.195686 100.063984 331.195539 99.316243 
Q 333.195393 98.561447 335.256781 96.953098 
L 335.256781 103.767419 
z
" clip-path="url(#p2a1fa3b576)" style="fill: #0000ff"/>
   </g>
   <g id="patch_11">
    <path d="M 353.459906 104.870201 
L 344.06728 104.870201 
L 342.584233 106.215214 
L 336.542193 106.215214 
L 345.170826 98.831886 
L 352.336386 98.831886 
L 360.96502 106.215214 
L 354.927972 106.215214 
L 353.459906 104.870201 
z
M 345.565306 103.499871 
L 351.9469 103.499871 
L 348.761096 100.562996 
L 345.565306 103.499871 
z
" clip-path="url(#p2a1fa3b576)" style="fill: #008000"/>
   </g>
   <g id="patch_12">
    <path d="M 386.673259 102.584238 
Q 384.630331 104.38403 382.421262 105.29439 
Q 380.212193 106.215214 377.806216 106.215214 
Q 370.631356 106.215214 366.440894 99.392746 
Q 362.250432 92.570278 362.250432 80.903021 
Q 362.250432 69.193908 366.440894 62.381903 
Q 370.631356 55.559436 377.806216 55.559436 
Q 380.212193 55.559436 382.421262 56.480259 
Q 384.630331 57.390619 386.673259 59.190412 
L 386.673259 69.288083 
Q 384.611871 66.902312 382.612018 65.793137 
Q 380.612164 64.683963 378.403095 64.683963 
Q 374.440308 64.683963 372.169705 69.005557 
Q 369.905256 73.316687 369.905256 80.903021 
Q 369.905256 88.457962 372.169705 92.779556 
Q 374.440308 97.090686 378.403095 97.090686 
Q 380.612164 97.090686 382.612018 95.981512 
Q 384.611871 94.861874 386.673259 92.476103 
L 386.673259 102.584238 
z
" clip-path="url(#p2a1fa3b576)" style="fill: #0000ff"/>
   </g>
   <g id="patch_13">
    <path d="M 387.958671 67.937733 
L 412.381498 67.937733 
L 412.381498 75.402908 
L 403.59496 75.402908 
L 403.59496 106.215214 
L 396.762248 106.215214 
L 396.762248 75.402908 
L 387.958671 75.402908 
L 387.958671 67.937733 
z
" clip-path="url(#p2a1fa3b576)" style="fill: #ff0000"/>
   </g>
   <g id="patch_14">
    <path d="M 430.584624 94.752757 
L 421.191997 94.752757 
L 419.70895 106.215214 
L 413.66691 106.215214 
L 422.295543 43.293067 
L 429.461104 43.293067 
L 438.089737 106.215214 
L 432.05269 106.215214 
L 430.584624 94.752757 
z
M 422.690023 83.074536 
L 429.071617 83.074536 
L 425.885814 58.045923 
L 422.690023 83.074536 
z
" clip-path="url(#p2a1fa3b576)" style="fill: #008000"/>
   </g>
   <g id="patch_15">
    <path d="M 463.797976 102.153908 
Q 461.334894 104.184561 458.685712 105.204524 
Q 456.036531 106.215214 453.212197 106.215214 
Q 446.830077 106.215214 443.102613 100.169617 
Q 439.375149 94.124021 439.375149 83.785309 
Q 439.375149 73.326056 443.168295 67.326821 
Q 446.966915 61.327587 453.573449 61.327587 
Q 456.118634 61.327587 458.450351 62.143557 
Q 460.787542 62.950255 462.856531 64.545105 
L 462.856531 73.492959 
Q 460.72186 71.443761 458.609083 70.433071 
Q 456.496306 69.413109 454.372582 69.413109 
Q 450.442598 69.413109 448.3134 73.140608 
Q 446.184202 76.858836 446.184202 83.785309 
Q 446.184202 90.646875 448.236771 94.39292 
Q 450.289339 98.129692 454.066065 98.129692 
Q 455.095086 98.129692 455.976322 97.916427 
Q 456.857558 97.69389 457.558168 97.23027 
L 457.558168 88.829488 
L 453.535134 88.829488 
L 453.535134 81.346671 
L 463.797976 81.346671 
L 463.797976 102.153908 
z
" clip-path="url(#p2a1fa3b576)" style="fill: #ffa600"/>
   </g>
   <g id="patch_16">
    <path d="M 540.922693 101.034792 
Q 538.459611 103.625003 535.81043 104.926022 
Q 533.161248 106.215214 530.336914 106.215214 
Q 523.954795 106.215214 520.22733 98.503719 
Q 516.499866 90.792224 516.499866 77.604621 
Q 516.499866 64.263262 520.293013 56.610904 
Q 524.091633 48.958546 530.698166 48.958546 
Q 533.243351 48.958546 535.575068 49.999361 
Q 537.91226 51.028349 539.981249 53.06267 
L 539.981249 64.476156 
Q 537.846578 61.86229 535.7338 60.573098 
Q 533.621023 59.272079 531.497299 59.272079 
Q 527.567315 59.272079 525.438117 64.026713 
Q 523.30892 68.769519 523.30892 77.604621 
Q 523.30892 86.356931 525.361488 91.13522 
Q 527.414057 95.901681 531.190782 95.901681 
Q 532.219803 95.901681 533.101039 95.629649 
Q 533.982275 95.345791 534.682885 94.754418 
L 534.682885 84.038752 
L 530.659851 84.038752 
L 530.659851 74.494003 
L 540.922693 74.494003 
L 540.922693 101.034792 
z
" clip-path="url(#p2a1fa3b576)" style="fill: #ffa600"/>
   </g>
   <g id="patch_17">
    <path d="M 592.339172 104.081101 
Q 590.296244 105.138932 588.087175 105.673998 
Q 585.878106 106.215214 583.472128 106.215214 
Q 576.297269 106.215214 572.106807 102.205297 
Q 567.916344 98.19538 567.916344 91.337929 
Q 567.916344 84.455878 572.106807 80.452111 
Q 576.297269 76.442194 583.472128 76.442194 
Q 585.878106 76.442194 588.087175 76.98341 
Q 590.296244 77.518476 592.339172 78.576307 
L 592.339172 84.51123 
Q 590.277784 83.108989 588.27793 82.45707 
Q 586.278077 81.805151 584.069008 81.805151 
Q 580.106221 81.805151 577.835618 84.345175 
Q 575.571169 86.879049 575.571169 91.337929 
Q 575.571169 95.778359 577.835618 98.318383 
Q 580.106221 100.852257 584.069008 100.852257 
Q 586.278077 100.852257 588.27793 100.200338 
Q 590.277784 99.542269 592.339172 98.140028 
L 592.339172 104.081101 
z
" clip-path="url(#p2a1fa3b576)" style="fill: #0000ff"/>
   </g>
   <g id="patch_18">
    <path d="M 618.047411 98.624442 
Q 615.584329 102.419828 612.935147 104.326186 
Q 610.285965 106.215214 607.461631 106.215214 
Q 601.079512 106.215214 597.352048 94.915709 
Q 593.624584 83.616205 593.624584 64.292665 
Q 593.624584 44.743829 597.41773 33.530977 
Q 601.21635 22.318125 607.822883 22.318125 
Q 610.368068 22.318125 612.699786 23.843212 
Q 615.036977 25.350968 617.105966 28.331818 
L 617.105966 45.055778 
Q 614.971295 41.225732 612.858518 39.336704 
Q 610.745741 37.430346 608.622017 37.430346 
Q 604.692032 37.430346 602.562835 44.397218 
Q 600.433637 51.34676 600.433637 64.292665 
Q 600.433637 77.117256 602.486205 84.11879 
Q 604.538774 91.102993 608.3155 91.102993 
Q 609.344521 91.102993 610.225757 90.704391 
Q 611.106993 90.288458 611.807603 89.421932 
L 611.807603 73.720473 
L 607.784569 73.720473 
L 607.784569 59.734736 
L 618.047411 59.734736 
L 618.047411 98.624442 
z
" clip-path="url(#p2a1fa3b576)" style="fill: #ffa600"/>
   </g>
   <g id="patch_19">
    <path d="M 643.75565 101.64576 
Q 641.712722 103.910734 639.503653 105.05639 
Q 637.294584 106.215214 634.888607 106.215214 
Q 627.713747 106.215214 623.523285 97.629381 
Q 619.332823 89.043549 619.332823 74.360722 
Q 619.332823 59.625222 623.523285 51.052558 
Q 627.713747 42.466725 634.888607 42.466725 
Q 637.294584 42.466725 639.503653 43.625549 
Q 641.712722 44.771205 643.75565 47.036179 
L 643.75565 59.743738 
Q 641.694262 56.74133 639.694409 55.345474 
Q 637.694555 53.949618 635.485486 53.949618 
Q 631.522699 53.949618 629.252096 59.388189 
Q 626.987647 64.813593 626.987647 74.360722 
Q 626.987647 83.868346 629.252096 89.306918 
Q 631.522699 94.732321 635.485486 94.732321 
Q 637.694555 94.732321 639.694409 93.336465 
Q 641.694262 91.927441 643.75565 88.925033 
L 643.75565 101.64576 
z
" clip-path="url(#p2a1fa3b576)" style="fill: #0000ff"/>
   </g>
   <g id="patch_20">
    <path d="M 645.041062 81.516507 
L 669.463889 81.516507 
L 669.463889 86.333443 
L 660.677351 86.333443 
L 660.677351 106.215214 
L 653.844639 106.215214 
L 653.844639 86.333443 
L 645.041062 86.333443 
L 645.041062 81.516507 
z
" clip-path="url(#p2a1fa3b576)" style="fill: #ff0000"/>
   </g>
   <g id="patch_21">
    <path d="M 695.172128 102.386812 
Q 692.709046 104.301013 690.059864 105.262484 
Q 687.410683 106.215214 684.586349 106.215214 
Q 678.204229 106.215214 674.476765 100.516315 
Q 670.749301 94.817416 670.749301 85.071599 
Q 670.749301 75.212154 674.542447 69.556959 
Q 678.341067 63.901763 684.947601 63.901763 
Q 687.492785 63.901763 689.824503 64.67094 
Q 692.161694 65.431375 694.230683 66.934766 
L 694.230683 75.369486 
Q 692.096012 73.437804 689.983235 72.485074 
Q 687.870458 71.523603 685.746734 71.523603 
Q 681.81675 71.523603 679.687552 75.037342 
Q 677.558354 78.542339 677.558354 85.071599 
Q 677.558354 91.539675 679.610923 95.070894 
Q 681.663491 98.593373 685.440217 98.593373 
Q 686.469238 98.593373 687.350474 98.392339 
Q 688.23171 98.182563 688.93232 97.745531 
L 688.93232 89.826509 
L 684.909286 89.826509 
L 684.909286 82.77281 
L 695.172128 82.77281 
L 695.172128 102.386812 
z
" clip-path="url(#p2a1fa3b576)" style="fill: #ffa600"/>
   </g>
   <g id="patch_22">
    <path d="M 696.45754 90.947679 
L 720.880367 90.947679 
L 720.880367 93.925273 
L 712.093829 93.925273 
L 712.093829 106.215214 
L 705.261117 106.215214 
L 705.261117 93.925273 
L 696.45754 93.925273 
L 696.45754 90.947679 
z
" clip-path="url(#p2a1fa3b576)" style="fill: #ff0000"/>
   </g>
   <g id="patch_23">
    <path d="M 722.165779 60.812799 
L 746.588606 60.812799 
L 746.588606 69.667535 
L 737.802068 69.667535 
L 737.802068 106.215214 
L 730.969356 106.215214 
L 730.969356 69.667535 
L 722.165779 69.667535 
L 722.165779 60.812799 
z
" clip-path="url(#p2a1fa3b576)" style="fill: #ff0000"/>
   </g>
   <g id="patch_24">
    <path d="M 823.713323 104.829893 
Q 821.670396 105.516565 819.461327 105.863893 
Q 817.252258 106.215214 814.84628 106.215214 
Q 807.671421 106.215214 803.480959 103.612248 
Q 799.290496 101.009282 799.290496 96.557891 
Q 799.290496 92.090531 803.480959 89.491558 
Q 807.671421 86.888592 814.84628 86.888592 
Q 817.252258 86.888592 819.461327 87.239913 
Q 821.670396 87.587241 823.713323 88.273913 
L 823.713323 92.126462 
Q 821.651936 91.216222 819.652082 90.793041 
Q 817.652229 90.369859 815.44316 90.369859 
Q 811.480373 90.369859 809.20977 92.01867 
Q 806.94532 93.663489 806.94532 96.557891 
Q 806.94532 99.440317 809.20977 101.089128 
Q 811.480373 102.733947 815.44316 102.733947 
Q 817.652229 102.733947 819.652082 102.310765 
Q 821.651936 101.883591 823.713323 100.973352 
L 823.713323 104.829893 
z
" clip-path="url(#p2a1fa3b576)" style="fill: #0000ff"/>
   </g>
   <g id="patch_25">
    <path d="M 79.459802 111.03569 
L 103.882629 111.03569 
L 103.882629 110.095563 
L 95.096091 110.095563 
L 95.096091 106.215214 
L 88.263379 106.215214 
L 88.263379 110.095563 
L 79.459802 110.095563 
L 79.459802 111.03569 
z
" clip-path="url(#p2a1fa3b576)" style="fill: #ff0000"/>
   </g>
   <g id="patch_26">
    <path d="M 156.584519 111.199549 
L 181.007346 111.199549 
L 181.007346 110.227465 
L 172.220808 110.227465 
L 172.220808 106.215214 
L 165.388096 106.215214 
L 165.388096 110.227465 
L 156.584519 110.227465 
L 156.584519 111.199549 
z
" clip-path="url(#p2a1fa3b576)" style="fill: #ff0000"/>
   </g>
   <g id="patch_27">
    <path d="M 302.043428 110.804859 
L 292.650801 110.804859 
L 291.167755 106.215214 
L 285.125714 106.215214 
L 293.754348 131.409667 
L 300.919908 131.409667 
L 309.548541 106.215214 
L 303.511494 106.215214 
L 302.043428 110.804859 
z
M 294.148828 115.480898 
L 300.530421 115.480898 
L 297.344618 125.502524 
L 294.148828 115.480898 
z
" clip-path="url(#p2a1fa3b576)" style="fill: #008000"/>
   </g>
   <g id="patch_28">
    <path d="M 482.001102 108.402379 
L 472.608475 108.402379 
L 471.125429 106.215214 
L 465.083388 106.215214 
L 473.712021 118.221463 
L 480.877582 118.221463 
L 489.506215 106.215214 
L 483.469168 106.215214 
L 482.001102 108.402379 
z
M 474.106502 110.630714 
L 480.488095 110.630714 
L 477.302292 115.406453 
L 474.106502 110.630714 
z
" clip-path="url(#p2a1fa3b576)" style="fill: #008000"/>
   </g>
   <g id="patch_29">
    <path d="M 515.214454 106.562095 
Q 512.751372 106.388655 510.102191 106.301538 
Q 507.453009 106.215214 504.628675 106.215214 
Q 498.246556 106.215214 494.519091 106.731576 
Q 490.791627 107.247939 490.791627 108.130982 
Q 490.791627 109.024321 494.584774 109.536723 
Q 498.383393 110.049126 504.989927 110.049126 
Q 507.535112 110.049126 509.866829 109.979433 
Q 512.204021 109.910532 514.27301 109.774314 
L 514.27301 109.010065 
Q 512.138338 109.18509 510.025561 109.271415 
Q 507.912784 109.358531 505.78906 109.358531 
Q 501.859076 109.358531 499.729878 109.04016 
Q 497.600681 108.722581 497.600681 108.130982 
Q 497.600681 107.544926 499.653249 107.224972 
Q 501.705817 106.905809 505.482543 106.905809 
Q 506.511564 106.905809 507.3928 106.924024 
Q 508.274036 106.943032 508.974646 106.98263 
L 508.974646 107.700152 
L 504.951612 107.700152 
L 504.951612 108.339269 
L 515.214454 108.339269 
L 515.214454 106.562095 
z
" clip-path="url(#p2a1fa3b576)" style="fill: #ffa600"/>
   </g>
   <g id="patch_30">
    <path d="M 566.630932 109.780756 
Q 564.588005 108.013398 562.378936 107.119444 
Q 560.169867 106.215214 557.763889 106.215214 
Q 550.58903 106.215214 546.398568 112.914734 
Q 542.208105 119.614255 542.208105 131.071256 
Q 542.208105 142.56936 546.398568 149.258605 
Q 550.58903 155.958125 557.763889 155.958125 
Q 560.169867 155.958125 562.378936 155.053895 
Q 564.588005 154.159941 566.630932 152.392583 
L 566.630932 142.476882 
Q 564.569545 144.819659 562.569691 145.908844 
Q 560.569838 146.99803 558.360769 146.99803 
Q 554.397982 146.99803 552.127379 142.754316 
Q 549.862929 138.520876 549.862929 131.071256 
Q 549.862929 123.652462 552.127379 119.408748 
Q 554.397982 115.175309 558.360769 115.175309 
Q 560.569838 115.175309 562.569691 116.264494 
Q 564.569545 117.363956 566.630932 119.706733 
L 566.630932 109.780756 
z
" clip-path="url(#p2a1fa3b576)" style="fill: #0000ff"/>
   </g>
   <g id="patch_31">
    <path d="M 772.296845 107.496729 
Q 769.833763 106.855971 767.184582 106.53413 
Q 764.5354 106.215214 761.711066 106.215214 
Q 755.328946 106.215214 751.601482 108.122857 
Q 747.874018 110.030501 747.874018 113.292805 
Q 747.874018 116.593145 751.667164 118.48616 
Q 755.465784 120.379174 762.072318 120.379174 
Q 764.617503 120.379174 766.94922 120.121701 
Q 769.286412 119.867153 771.355401 119.36391 
L 771.355401 116.54048 
Q 769.220729 117.18709 767.107952 117.506005 
Q 764.995175 117.827847 762.871451 117.827847 
Q 758.941467 117.827847 756.812269 116.651662 
Q 754.683072 115.478403 754.683072 113.292805 
Q 754.683072 111.127688 756.73564 109.945652 
Q 758.788208 108.766541 762.564934 108.766541 
Q 763.593955 108.766541 764.475191 108.833835 
Q 765.356427 108.904055 766.057037 109.050347 
L 766.057037 111.701152 
L 762.034003 111.701152 
L 762.034003 114.062299 
L 772.296845 114.062299 
L 772.296845 107.496729 
z
" clip-path="url(#p2a1fa3b576)" style="fill: #ffa600"/>
   </g>
   <g id="patch_32">
    <path d="M 798.005084 107.054042 
Q 795.542002 106.634628 792.892821 106.423963 
Q 790.243639 106.215214 787.419305 106.215214 
Q 781.037186 106.215214 777.309721 107.463881 
Q 773.582257 108.712548 773.582257 110.847923 
Q 773.582257 113.008193 777.375404 114.247285 
Q 781.174023 115.486377 787.780557 115.486377 
Q 790.325742 115.486377 792.657459 115.317845 
Q 794.994651 115.151228 797.06364 114.821825 
L 797.06364 112.973721 
Q 794.928968 113.396966 792.816191 113.605715 
Q 790.703414 113.81638 788.57969 113.81638 
Q 784.649706 113.81638 782.520508 113.046496 
Q 780.391311 112.278527 780.391311 110.847923 
Q 780.391311 109.430723 782.443879 108.657009 
Q 784.496448 107.885211 788.273173 107.885211 
Q 789.302194 107.885211 790.18343 107.929259 
Q 791.064666 107.975222 791.765276 108.070978 
L 791.765276 109.80609 
L 787.742242 109.80609 
L 787.742242 111.351603 
L 798.005084 111.351603 
L 798.005084 107.054042 
z
" clip-path="url(#p2a1fa3b576)" style="fill: #ffa600"/>
   </g>
   <g id="patch_33">
    <path d="M 849.421563 109.040686 
Q 847.378635 107.640164 845.169566 106.93176 
Q 842.960497 106.215214 840.554519 106.215214 
Q 833.37966 106.215214 829.189198 111.52417 
Q 824.998735 116.833126 824.998735 125.912092 
Q 824.998735 135.023628 829.189198 140.324442 
Q 833.37966 145.633398 840.554519 145.633398 
Q 842.960497 145.633398 845.169566 144.916852 
Q 847.378635 144.208448 849.421563 142.807926 
L 849.421563 134.950345 
Q 847.360175 136.806851 845.360321 137.669964 
Q 843.360468 138.533076 841.151399 138.533076 
Q 837.188612 138.533076 834.918009 135.170195 
Q 832.653559 131.815456 832.653559 125.912092 
Q 832.653559 120.033156 834.918009 116.670274 
Q 837.188612 113.315535 841.151399 113.315535 
Q 843.360468 113.315535 845.360321 114.178648 
Q 847.360175 115.049903 849.421563 116.906409 
L 849.421563 109.040686 
z
" clip-path="url(#p2a1fa3b576)" style="fill: #0000ff"/>
   </g>
   <g id="matplotlib.axis_1">
    <g id="text_1">
     <text style="font-size: 10px; font-family: 'DejaVu Sans', 'Bitstream Vera Sans', 'Computer Modern Sans Serif', 'Lucida Grande', 'Verdana', 'Geneva', 'Lucid', 'Arial', 'Helvetica', 'Avant Garde', sans-serif; text-anchor: middle" x="451.586563" y="167.556563" transform="rotate(-0 451.586563 167.556563)">Region around edits (±15 bp)</text>
    </g>
   </g>
   <g id="matplotlib.axis_2">
    <g id="ytick_1">
     <g id="line2d_2">
      <defs>
       <path id="m74596c13e6" d="M 0 0 
L -3.5 0 
" style="stroke: #000000; stroke-width: 0.8"/>
      </defs>
      <g>
       <use xlink:href="#m74596c13e6" x="53.751563" y="155.958125" style="stroke: #000000; stroke-width: 0.8"/>
      </g>
     </g>
     <g id="text_2">
      <text style="font-size: 10px; font-family: 'DejaVu Sans', 'Bitstream Vera Sans', 'Computer Modern Sans Serif', 'Lucida Grande', 'Verdana', 'Geneva', 'Lucid', 'Arial', 'Helvetica', 'Avant Garde', sans-serif; text-anchor: end" x="46.751563" y="159.757344" transform="rotate(-0 46.751563 159.757344)">-0.01</text>
     </g>
    </g>
    <g id="ytick_2">
     <g id="line2d_3">
      <g>
       <use xlink:href="#m74596c13e6" x="53.751563" y="22.318125" style="stroke: #000000; stroke-width: 0.8"/>
      </g>
     </g>
     <g id="text_3">
      <text style="font-size: 10px; font-family: 'DejaVu Sans', 'Bitstream Vera Sans', 'Computer Modern Sans Serif', 'Lucida Grande', 'Verdana', 'Geneva', 'Lucid', 'Arial', 'Helvetica', 'Avant Garde', sans-serif; text-anchor: end" x="46.751563" y="26.117344" transform="rotate(-0 46.751563 26.117344)">0.01</text>
     </g>
    </g>
    <g id="text_4">
     <text style="font-size: 10px; font-family: 'DejaVu Sans', 'Bitstream Vera Sans', 'Computer Modern Sans Serif', 'Lucida Grande', 'Verdana', 'Geneva', 'Lucid', 'Arial', 'Helvetica', 'Avant Garde', sans-serif; text-anchor: middle" x="14.798438" y="89.138125" transform="rotate(-90 14.798438 89.138125)">Value magnitude</text>
    </g>
   </g>
   <g id="line2d_4">
    <path d="M 451.586563 155.958125 
L 451.586563 22.318125 
" clip-path="url(#p2a1fa3b576)" style="fill: none; stroke-dasharray: 3.7,1.6; stroke-dashoffset: 0; stroke: #1f77b4"/>
   </g>
   <g id="patch_34">
    <path d="M 53.751563 155.958125 
L 53.751563 22.318125 
" style="fill: none; stroke: #000000; stroke-linejoin: miter; stroke-linecap: square"/>
   </g>
   <g id="text_5">
    <text style="font-size: 12px; font-family: 'DejaVu Sans', 'Bitstream Vera Sans', 'Computer Modern Sans Serif', 'Lucida Grande', 'Verdana', 'Geneva', 'Lucid', 'Arial', 'Helvetica', 'Avant Garde', sans-serif; text-anchor: middle" x="451.586563" y="16.318125" transform="rotate(-0 451.586563 16.318125)">Original</text>
   </g>
  </g>
  <g id="axes_2">
   <g id="patch_35">
    <path d="M 53.751563 330.558125 
L 849.421563 330.558125 
L 849.421563 196.918125 
L 53.751563 196.918125 
z
" style="fill: #ffffff"/>
   </g>
   <g id="line2d_5">
    <path d="M 53.751563 280.815214 
L 849.421563 280.815214 
" clip-path="url(#p31bca595ee)" style="fill: none; stroke: #000000; stroke-width: 0.5; stroke-linecap: square"/>
   </g>
   <g id="patch_36">
    <path d="M 155.299107 280.805071 
Q 153.25618 280.810098 151.047111 280.812642 
Q 148.838042 280.815214 146.432064 280.815214 
Q 139.257205 280.815214 135.066742 280.796156 
Q 130.87628 280.777097 130.87628 280.744505 
Q 130.87628 280.711796 135.066742 280.692767 
Q 139.257205 280.673709 146.432064 280.673709 
Q 148.838042 280.673709 151.047111 280.676281 
Q 153.25618 280.678824 155.299107 280.683852 
L 155.299107 280.712059 
Q 153.237719 280.705395 151.237866 280.702296 
Q 149.238012 280.699198 147.028943 280.699198 
Q 143.066156 280.699198 140.795553 280.71127 
Q 138.531104 280.723313 138.531104 280.744505 
Q 138.531104 280.76561 140.795553 280.777682 
Q 143.066156 280.789725 147.028943 280.789725 
Q 149.238012 280.789725 151.237866 280.786626 
Q 153.237719 280.783499 155.299107 280.776834 
L 155.299107 280.805071 
z
" clip-path="url(#p31bca595ee)" style="fill: #0000ff"/>
   </g>
   <g id="patch_37">
    <path d="M 250.62695 280.758842 
L 241.234323 280.758842 
L 239.751277 280.815214 
L 233.709236 280.815214 
L 242.337869 280.505766 
L 249.50343 280.505766 
L 258.132063 280.815214 
L 252.095016 280.815214 
L 250.62695 280.758842 
z
M 242.73235 280.701409 
L 249.113943 280.701409 
L 245.92814 280.57832 
L 242.73235 280.701409 
z
" clip-path="url(#p31bca595ee)" style="fill: #008000"/>
   </g>
   <g id="patch_38">
    <path d="M 283.840302 280.729058 
Q 281.37722 280.772136 278.728039 280.793773 
Q 276.078857 280.815214 273.254523 280.815214 
Q 266.872404 280.815214 263.144939 280.686964 
Q 259.417475 280.558714 259.417475 280.33939 
Q 259.417475 280.11751 263.210622 279.990244 
Q 267.009242 279.862977 273.615775 279.862977 
Q 276.16096 279.862977 278.492678 279.880287 
Q 280.829869 279.8974 282.898858 279.931233 
L 282.898858 280.121051 
Q 280.764187 280.077579 278.65141 280.056139 
Q 276.538632 280.034502 274.414908 280.034502 
Q 270.484924 280.034502 268.355726 280.113576 
Q 266.226529 280.192454 266.226529 280.33939 
Q 266.226529 280.48495 268.279097 280.564418 
Q 270.331666 280.643689 274.108391 280.643689 
Q 275.137412 280.643689 276.018648 280.639165 
Q 276.899884 280.634444 277.600494 280.624609 
L 277.600494 280.446397 
L 273.57746 280.446397 
L 273.57746 280.287658 
L 283.840302 280.287658 
L 283.840302 280.729058 
z
" clip-path="url(#p31bca595ee)" style="fill: #ffa600"/>
   </g>
   <g id="patch_39">
    <path d="M 302.043428 280.683729 
L 292.650801 280.683729 
L 291.167755 280.815214 
L 285.125714 280.815214 
L 293.754348 280.093438 
L 300.919908 280.093438 
L 309.548541 280.815214 
L 303.511494 280.815214 
L 302.043428 280.683729 
z
M 294.148828 280.549768 
L 300.530421 280.549768 
L 297.344618 280.262667 
L 294.148828 280.549768 
z
" clip-path="url(#p31bca595ee)" style="fill: #008000"/>
   </g>
   <g id="patch_40">
    <path d="M 353.459906 280.789323 
L 344.06728 280.789323 
L 342.584233 280.815214 
L 336.542193 280.815214 
L 345.170826 280.673089 
L 352.336386 280.673089 
L 360.96502 280.815214 
L 354.927972 280.815214 
L 353.459906 280.789323 
z
M 345.565306 280.762945 
L 351.9469 280.762945 
L 348.761096 280.706412 
L 345.565306 280.762945 
z
" clip-path="url(#p31bca595ee)" style="fill: #008000"/>
   </g>
   <g id="patch_41">
    <path d="M 386.673259 280.779693 
Q 384.630331 280.7973 382.421262 280.806206 
Q 380.212193 280.815214 377.806216 280.815214 
Q 370.631356 280.815214 366.440894 280.748472 
Q 362.250432 280.68173 362.250432 280.567593 
Q 362.250432 280.453046 366.440894 280.386407 
Q 370.631356 280.319664 377.806216 280.319664 
Q 380.212193 280.319664 382.421262 280.328673 
Q 384.630331 280.337578 386.673259 280.355185 
L 386.673259 280.453967 
Q 384.611871 280.430628 382.612018 280.419778 
Q 380.612164 280.408927 378.403095 280.408927 
Q 374.440308 280.408927 372.169705 280.451204 
Q 369.905256 280.493378 369.905256 280.567593 
Q 369.905256 280.6415 372.169705 280.683777 
Q 374.440308 280.725951 378.403095 280.725951 
Q 380.612164 280.725951 382.612018 280.715101 
Q 384.611871 280.704148 386.673259 280.680808 
L 386.673259 280.779693 
z
" clip-path="url(#p31bca595ee)" style="fill: #0000ff"/>
   </g>
   <g id="patch_42">
    <path d="M 387.958671 280.126776 
L 412.381498 280.126776 
L 412.381498 280.26104 
L 403.59496 280.26104 
L 403.59496 280.815214 
L 396.762248 280.815214 
L 396.762248 280.26104 
L 387.958671 280.26104 
L 387.958671 280.126776 
z
" clip-path="url(#p31bca595ee)" style="fill: #ff0000"/>
   </g>
   <g id="patch_43">
    <path d="M 430.584624 280.647232 
L 421.191997 280.647232 
L 419.70895 280.815214 
L 413.66691 280.815214 
L 422.295543 279.893094 
L 429.461104 279.893094 
L 438.089737 280.815214 
L 432.05269 280.815214 
L 430.584624 280.647232 
z
M 422.690023 280.476089 
L 429.071617 280.476089 
L 425.885814 280.109296 
L 422.690023 280.476089 
z
" clip-path="url(#p31bca595ee)" style="fill: #008000"/>
   </g>
   <g id="patch_44">
    <path d="M 463.797976 280.664062 
Q 461.755049 280.738985 459.54598 280.776881 
Q 457.336911 280.815214 454.930933 280.815214 
Q 447.756074 280.815214 443.565611 280.531206 
Q 439.375149 280.247197 439.375149 279.761508 
Q 439.375149 279.274077 443.565611 278.990504 
Q 447.756074 278.706496 454.930933 278.706496 
Q 457.336911 278.706496 459.54598 278.744829 
Q 461.755049 278.782725 463.797976 278.857648 
L 463.797976 279.277997 
Q 461.736589 279.178682 459.736735 279.132509 
Q 457.736881 279.086335 455.527812 279.086335 
Q 451.565026 279.086335 449.294423 279.266236 
Q 447.029973 279.445702 447.029973 279.761508 
Q 447.029973 280.076008 449.294423 280.255909 
Q 451.565026 280.435375 455.527812 280.435375 
Q 457.736881 280.435375 459.736735 280.389201 
Q 461.736589 280.342593 463.797976 280.243277 
L 463.797976 280.664062 
z
" clip-path="url(#p31bca595ee)" style="fill: #0000ff"/>
   </g>
   <g id="patch_45">
    <path d="M 515.214454 280.710037 
Q 512.751372 280.762625 510.102191 280.78904 
Q 507.453009 280.815214 504.628675 280.815214 
Q 498.246556 280.815214 494.519091 280.658649 
Q 490.791627 280.502083 490.791627 280.234337 
Q 490.791627 279.96347 494.584774 279.808105 
Q 498.383393 279.652741 504.989927 279.652741 
Q 507.535112 279.652741 509.866829 279.673872 
Q 512.204021 279.694763 514.27301 279.736066 
L 514.27301 279.967792 
Q 512.138338 279.914723 510.025561 279.888549 
Q 507.912784 279.862135 505.78906 279.862135 
Q 501.859076 279.862135 499.729878 279.958667 
Q 497.600681 280.05496 497.600681 280.234337 
Q 497.600681 280.412034 499.653249 280.509047 
Q 501.705817 280.60582 505.482543 280.60582 
Q 506.511564 280.60582 507.3928 280.600297 
Q 508.274036 280.594534 508.974646 280.582527 
L 508.974646 280.364969 
L 504.951612 280.364969 
L 504.951612 280.171183 
L 515.214454 280.171183 
L 515.214454 280.710037 
z
" clip-path="url(#p31bca595ee)" style="fill: #ffa600"/>
   </g>
   <g id="patch_46">
    <path d="M 566.630932 280.770432 
Q 564.588005 280.792629 562.378936 280.803857 
Q 560.169867 280.815214 557.763889 280.815214 
Q 550.58903 280.815214 546.398568 280.73107 
Q 542.208105 280.646925 542.208105 280.503029 
Q 542.208105 280.358616 546.398568 280.2746 
Q 550.58903 280.190456 557.763889 280.190456 
Q 560.169867 280.190456 562.378936 280.201813 
Q 564.588005 280.213041 566.630932 280.235238 
L 566.630932 280.359777 
Q 564.569545 280.330352 562.569691 280.316672 
Q 560.569838 280.302993 558.360769 280.302993 
Q 554.397982 280.302993 552.127379 280.356293 
Q 549.862929 280.409463 549.862929 280.503029 
Q 549.862929 280.596207 552.127379 280.649507 
Q 554.397982 280.702677 558.360769 280.702677 
Q 560.569838 280.702677 562.569691 280.688998 
Q 564.569545 280.675189 566.630932 280.645764 
L 566.630932 280.770432 
z
" clip-path="url(#p31bca595ee)" style="fill: #0000ff"/>
   </g>
   <g id="patch_47">
    <path d="M 645.041062 280.026294 
L 669.463889 280.026294 
L 669.463889 280.180156 
L 660.677351 280.180156 
L 660.677351 280.815214 
L 653.844639 280.815214 
L 653.844639 280.180156 
L 645.041062 280.180156 
L 645.041062 280.026294 
z
" clip-path="url(#p31bca595ee)" style="fill: #ff0000"/>
   </g>
   <g id="patch_48">
    <path d="M 695.172128 280.758739 
Q 692.709046 280.786976 690.059864 280.80116 
Q 687.410683 280.815214 684.586349 280.815214 
Q 678.204229 280.815214 674.476765 280.731146 
Q 670.749301 280.647078 670.749301 280.503311 
Q 670.749301 280.357868 674.542447 280.274445 
Q 678.341067 280.191022 684.947601 280.191022 
Q 687.492785 280.191022 689.824503 280.202368 
Q 692.161694 280.213586 694.230683 280.235764 
L 694.230683 280.360189 
Q 692.096012 280.331694 689.983235 280.31764 
Q 687.870458 280.303456 685.746734 280.303456 
Q 681.81675 280.303456 679.687552 280.35529 
Q 677.558354 280.406994 677.558354 280.503311 
Q 677.558354 280.598726 679.610923 280.650817 
Q 681.663491 280.702779 685.440217 280.702779 
Q 686.469238 280.702779 687.350474 280.699814 
Q 688.23171 280.696719 688.93232 280.690272 
L 688.93232 280.573454 
L 684.909286 280.573454 
L 684.909286 280.4694 
L 695.172128 280.4694 
L 695.172128 280.758739 
z
" clip-path="url(#p31bca595ee)" style="fill: #ffa600"/>
   </g>
   <g id="patch_49">
    <path d="M 722.165779 279.328543 
L 746.588606 279.328543 
L 746.588606 279.618486 
L 737.802068 279.618486 
L 737.802068 280.815214 
L 730.969356 280.815214 
L 730.969356 279.618486 
L 722.165779 279.618486 
L 722.165779 279.328543 
z
" clip-path="url(#p31bca595ee)" style="fill: #ff0000"/>
   </g>
   <g id="patch_50">
    <path d="M 772.296845 280.801297 
Q 769.833763 280.808255 767.184582 280.81175 
Q 764.5354 280.815214 761.711066 280.815214 
Q 755.328946 280.815214 751.601482 280.794497 
Q 747.874018 280.77378 747.874018 280.738352 
Q 747.874018 280.702511 751.667164 280.681953 
Q 755.465784 280.661395 762.072318 280.661395 
Q 764.617503 280.661395 766.94922 280.664191 
Q 769.286412 280.666955 771.355401 280.672421 
L 771.355401 280.703083 
Q 769.220729 280.696061 767.107952 280.692597 
Q 764.995175 280.689102 762.871451 280.689102 
Q 758.941467 280.689102 756.812269 280.701875 
Q 754.683072 280.714617 754.683072 280.738352 
Q 754.683072 280.761865 756.73564 280.774702 
Q 758.788208 280.787507 762.564934 280.787507 
Q 763.593955 280.787507 764.475191 280.786776 
Q 765.356427 280.786013 766.057037 280.784425 
L 766.057037 280.755637 
L 762.034003 280.755637 
L 762.034003 280.729995 
L 772.296845 280.729995 
L 772.296845 280.801297 
z
" clip-path="url(#p31bca595ee)" style="fill: #ffa600"/>
   </g>
   <g id="patch_51">
    <path d="M 823.713323 280.767694 
Q 821.670396 280.791248 819.461327 280.803163 
Q 817.252258 280.815214 814.84628 280.815214 
Q 807.671421 280.815214 803.480959 280.725926 
Q 799.290496 280.636638 799.290496 280.483944 
Q 799.290496 280.330703 803.480959 280.241551 
Q 807.671421 280.152263 814.84628 280.152263 
Q 817.252258 280.152263 819.461327 280.164314 
Q 821.670396 280.176229 823.713323 280.199783 
L 823.713323 280.331935 
Q 821.651936 280.300712 819.652082 280.286195 
Q 817.652229 280.271679 815.44316 280.271679 
Q 811.480373 280.271679 809.20977 280.328238 
Q 806.94532 280.384659 806.94532 280.483944 
Q 806.94532 280.582818 809.20977 280.639377 
Q 811.480373 280.695798 815.44316 280.695798 
Q 817.652229 280.695798 819.652082 280.681282 
Q 821.651936 280.666629 823.713323 280.635405 
L 823.713323 280.767694 
z
" clip-path="url(#p31bca595ee)" style="fill: #0000ff"/>
   </g>
   <g id="patch_52">
    <path d="M 849.421563 280.770454 
Q 847.378635 280.79264 845.169566 280.803863 
Q 842.960497 280.815214 840.554519 280.815214 
Q 833.37966 280.815214 829.189198 280.731111 
Q 824.998735 280.647008 824.998735 280.503182 
Q 824.998735 280.35884 829.189198 280.274866 
Q 833.37966 280.190763 840.554519 280.190763 
Q 842.960497 280.190763 845.169566 280.202114 
Q 847.378635 280.213336 849.421563 280.235523 
L 849.421563 280.360001 
Q 847.360175 280.33059 845.360321 280.316917 
Q 843.360468 280.303244 841.151399 280.303244 
Q 837.188612 280.303244 834.918009 280.356518 
Q 832.653559 280.409663 832.653559 280.503182 
Q 832.653559 280.596314 834.918009 280.649588 
Q 837.188612 280.702733 841.151399 280.702733 
Q 843.360468 280.702733 845.360321 280.68906 
Q 847.360175 280.675257 849.421563 280.645847 
L 849.421563 280.770454 
z
" clip-path="url(#p31bca595ee)" style="fill: #0000ff"/>
   </g>
   <g id="patch_53">
    <path d="M 78.17439 280.888495 
Q 76.131462 280.852171 73.922393 280.833798 
Q 71.713324 280.815214 69.307347 280.815214 
Q 62.132487 280.815214 57.942025 280.952907 
Q 53.751562 281.0906 53.751562 281.326072 
Q 53.751562 281.562388 57.942025 281.69987 
Q 62.132487 281.837563 69.307347 281.837563 
Q 71.713324 281.837563 73.922393 281.818979 
Q 76.131462 281.800606 78.17439 281.764282 
L 78.17439 281.560488 
Q 76.113002 281.608638 74.113149 281.631024 
Q 72.113295 281.653409 69.904226 281.653409 
Q 65.941439 281.653409 63.670836 281.56619 
Q 61.406387 281.479181 61.406387 281.326072 
Q 61.406387 281.173596 63.670836 281.086376 
Q 65.941439 280.999368 69.904226 280.999368 
Q 72.113295 280.999368 74.113149 281.021753 
Q 76.113002 281.04435 78.17439 281.092501 
L 78.17439 280.888495 
z
" clip-path="url(#p31bca595ee)" style="fill: #0000ff"/>
   </g>
   <g id="patch_54">
    <path d="M 79.459802 281.776784 
L 103.882629 281.776784 
L 103.882629 281.589251 
L 95.096091 281.589251 
L 95.096091 280.815214 
L 88.263379 280.815214 
L 88.263379 281.589251 
L 79.459802 281.589251 
L 79.459802 281.776784 
z
" clip-path="url(#p31bca595ee)" style="fill: #ff0000"/>
   </g>
   <g id="patch_55">
    <path d="M 129.590868 280.841116 
Q 127.54794 280.828277 125.338871 280.821783 
Q 123.129802 280.815214 120.723825 280.815214 
Q 113.548965 280.815214 109.358503 280.863884 
Q 105.168041 280.912553 105.168041 280.995784 
Q 105.168041 281.079314 109.358503 281.127909 
Q 113.548965 281.176579 120.723825 281.176579 
Q 123.129802 281.176579 125.338871 281.17001 
Q 127.54794 281.163516 129.590868 281.150676 
L 129.590868 281.078642 
Q 127.52948 281.095662 125.529627 281.103574 
Q 123.529773 281.111487 121.320704 281.111487 
Q 117.357917 281.111487 115.087314 281.080658 
Q 112.822865 281.049903 112.822865 280.995784 
Q 112.822865 280.941889 115.087314 280.91106 
Q 117.357917 280.880306 121.320704 280.880306 
Q 123.529773 280.880306 125.529627 280.888218 
Q 127.52948 280.896206 129.590868 280.913225 
L 129.590868 280.841116 
z
" clip-path="url(#p31bca595ee)" style="fill: #0000ff"/>
   </g>
   <g id="patch_56">
    <path d="M 156.584519 282.198134 
L 181.007346 282.198134 
L 181.007346 281.928426 
L 172.220808 281.928426 
L 172.220808 280.815214 
L 165.388096 280.815214 
L 165.388096 281.928426 
L 156.584519 281.928426 
L 156.584519 282.198134 
z
" clip-path="url(#p31bca595ee)" style="fill: #ff0000"/>
   </g>
   <g id="patch_57">
    <path d="M 206.715585 280.859992 
Q 204.672658 280.837796 202.463589 280.82657 
Q 200.25452 280.815214 197.848542 280.815214 
Q 190.673683 280.815214 186.48322 280.89935 
Q 182.292758 280.983486 182.292758 281.127369 
Q 182.292758 281.271768 186.48322 281.355775 
Q 190.673683 281.439911 197.848542 281.439911 
Q 200.25452 281.439911 202.463589 281.428556 
Q 204.672658 281.417329 206.715585 281.395134 
L 206.715585 281.270607 
Q 204.654198 281.300029 202.654344 281.313707 
Q 200.65449 281.327386 198.445421 281.327386 
Q 194.482635 281.327386 192.212032 281.274091 
Q 189.947582 281.220925 189.947582 281.127369 
Q 189.947582 281.0342 192.212032 280.980905 
Q 194.482635 280.927739 198.445421 280.927739 
Q 200.65449 280.927739 202.654344 280.941418 
Q 204.654198 280.955226 206.715585 280.984647 
L 206.715585 280.859992 
z
" clip-path="url(#p31bca595ee)" style="fill: #0000ff"/>
   </g>
   <g id="patch_58">
    <path d="M 232.423824 280.860611 
Q 230.380897 280.838109 228.171828 280.826727 
Q 225.962759 280.815214 223.556781 280.815214 
Q 216.381922 280.815214 212.191459 280.900514 
Q 208.000997 280.985813 208.000997 281.131686 
Q 208.000997 281.278083 212.191459 281.363251 
Q 216.381922 281.448551 223.556781 281.448551 
Q 225.962759 281.448551 228.171828 281.437038 
Q 230.380897 281.425656 232.423824 281.403154 
L 232.423824 281.276905 
Q 230.362437 281.306734 228.362583 281.320602 
Q 226.36273 281.334469 224.153661 281.334469 
Q 220.190874 281.334469 217.920271 281.280437 
Q 215.655821 281.226536 215.655821 281.131686 
Q 215.655821 281.037229 217.920271 280.983197 
Q 220.190874 280.929296 224.153661 280.929296 
Q 226.36273 280.929296 228.362583 280.943163 
Q 230.362437 280.957162 232.423824 280.986991 
L 232.423824 280.860611 
z
" clip-path="url(#p31bca595ee)" style="fill: #0000ff"/>
   </g>
   <g id="patch_59">
    <path d="M 335.256781 280.851327 
Q 333.213853 280.833427 331.004784 280.824372 
Q 328.795715 280.815214 326.389738 280.815214 
Q 319.214878 280.815214 315.024416 280.883069 
Q 310.833953 280.950925 310.833953 281.066966 
Q 310.833953 281.183423 315.024416 281.251174 
Q 319.214878 281.31903 326.389738 281.31903 
Q 328.795715 281.31903 331.004784 281.309871 
Q 333.213853 281.300817 335.256781 281.282917 
L 335.256781 281.182486 
Q 333.195393 281.206215 331.195539 281.217247 
Q 329.195686 281.228278 326.986617 281.228278 
Q 323.02383 281.228278 320.753227 281.185296 
Q 318.488778 281.142418 318.488778 281.066966 
Q 318.488778 280.991825 320.753227 280.948843 
Q 323.02383 280.905965 326.986617 280.905965 
Q 329.195686 280.905965 331.195539 280.916997 
Q 333.195393 280.928133 335.256781 280.951861 
L 335.256781 280.851327 
z
" clip-path="url(#p31bca595ee)" style="fill: #0000ff"/>
   </g>
   <g id="patch_60">
    <path d="M 482.001102 280.886247 
L 472.608475 280.886247 
L 471.125429 280.815214 
L 465.083388 280.815214 
L 473.712021 281.205144 
L 480.877582 281.205144 
L 489.506215 280.815214 
L 483.469168 280.815214 
L 482.001102 280.886247 
z
M 474.106502 280.958617 
L 480.488095 280.958617 
L 477.302292 281.11372 
L 474.106502 280.958617 
z
" clip-path="url(#p31bca595ee)" style="fill: #008000"/>
   </g>
   <g id="patch_61">
    <path d="M 540.922693 280.84413 
Q 538.459611 280.829672 535.81043 280.82241 
Q 533.161248 280.815214 530.336914 280.815214 
Q 523.954795 280.815214 520.22733 280.858257 
Q 516.499866 280.901301 516.499866 280.974911 
Q 516.499866 281.049379 520.293013 281.092093 
Q 524.091633 281.134806 530.698166 281.134806 
Q 533.243351 281.134806 535.575068 281.128997 
Q 537.91226 281.123253 539.981249 281.111898 
L 539.981249 281.048191 
Q 537.846578 281.062781 535.7338 281.069977 
Q 533.621023 281.077239 531.497299 281.077239 
Q 527.567315 281.077239 525.438117 281.050699 
Q 523.30892 281.024226 523.30892 280.974911 
Q 523.30892 280.926058 525.361488 280.899387 
Q 527.414057 280.872781 531.190782 280.872781 
Q 532.219803 280.872781 533.101039 280.8743 
Q 533.982275 280.875884 534.682885 280.879185 
L 534.682885 280.938997 
L 530.659851 280.938997 
L 530.659851 280.992274 
L 540.922693 280.992274 
L 540.922693 280.84413 
z
" clip-path="url(#p31bca595ee)" style="fill: #ffa600"/>
   </g>
   <g id="patch_62">
    <path d="M 592.339172 280.88406 
Q 590.296244 280.849934 588.087175 280.832673 
Q 585.878106 280.815214 583.472128 280.815214 
Q 576.297269 280.815214 572.106807 280.944573 
Q 567.916344 281.073932 567.916344 281.295153 
Q 567.916344 281.517166 572.106807 281.646327 
Q 576.297269 281.775687 583.472128 281.775687 
Q 585.878106 281.775687 588.087175 281.758227 
Q 590.296244 281.740966 592.339172 281.70684 
L 592.339172 281.515381 
Q 590.277784 281.560617 588.27793 281.581648 
Q 586.278077 281.602678 584.069008 281.602678 
Q 580.106221 281.602678 577.835618 281.520738 
Q 575.571169 281.438995 575.571169 281.295153 
Q 575.571169 281.151905 577.835618 281.069964 
Q 580.106221 280.988222 584.069008 280.988222 
Q 586.278077 280.988222 588.27793 281.009253 
Q 590.277784 281.030482 592.339172 281.075718 
L 592.339172 280.88406 
z
" clip-path="url(#p31bca595ee)" style="fill: #0000ff"/>
   </g>
   <g id="patch_63">
    <path d="M 618.047411 280.87617 
Q 615.584329 280.845692 612.935147 280.830383 
Q 610.285965 280.815214 607.461631 280.815214 
Q 601.079512 280.815214 597.352048 280.905952 
Q 593.624584 280.99669 593.624584 281.151863 
Q 593.624584 281.308845 597.41773 281.398888 
Q 601.21635 281.48893 607.822883 281.48893 
Q 610.368068 281.48893 612.699786 281.476683 
Q 615.036977 281.464575 617.105966 281.440638 
L 617.105966 281.30634 
Q 614.971295 281.337097 612.858518 281.352266 
Q 610.745741 281.367575 608.622017 281.367575 
Q 604.692032 281.367575 602.562835 281.311629 
Q 600.433637 281.255822 600.433637 281.151863 
Q 600.433637 281.048878 602.486205 280.992654 
Q 604.538774 280.936569 608.3155 280.936569 
Q 609.344521 280.936569 610.225757 280.93977 
Q 611.106993 280.94311 611.807603 280.950068 
L 611.807603 281.076155 
L 607.784569 281.076155 
L 607.784569 281.188464 
L 618.047411 281.188464 
L 618.047411 280.87617 
z
" clip-path="url(#p31bca595ee)" style="fill: #ffa600"/>
   </g>
   <g id="patch_64">
    <path d="M 643.75565 280.817997 
Q 641.712722 280.816617 639.503653 280.81592 
Q 637.294584 280.815214 634.888607 280.815214 
Q 627.713747 280.815214 623.523285 280.820443 
Q 619.332823 280.825671 619.332823 280.834613 
Q 619.332823 280.843587 623.523285 280.848808 
Q 627.713747 280.854037 634.888607 280.854037 
Q 637.294584 280.854037 639.503653 280.853331 
Q 641.712722 280.852633 643.75565 280.851254 
L 643.75565 280.843515 
Q 641.694262 280.845343 639.694409 280.846194 
Q 637.694555 280.847044 635.485486 280.847044 
Q 631.522699 280.847044 629.252096 280.843731 
Q 626.987647 280.840427 626.987647 280.834613 
Q 626.987647 280.828823 629.252096 280.825511 
Q 631.522699 280.822207 635.485486 280.822207 
Q 637.694555 280.822207 639.694409 280.823057 
Q 641.694262 280.823915 643.75565 280.825744 
L 643.75565 280.817997 
z
" clip-path="url(#p31bca595ee)" style="fill: #0000ff"/>
   </g>
   <g id="patch_65">
    <path d="M 696.45754 280.846709 
L 720.880367 280.846709 
L 720.880367 280.840567 
L 712.093829 280.840567 
L 712.093829 280.815214 
L 705.261117 280.815214 
L 705.261117 280.840567 
L 696.45754 280.840567 
L 696.45754 280.846709 
z
" clip-path="url(#p31bca595ee)" style="fill: #ff0000"/>
   </g>
   <g id="patch_66">
    <path d="M 798.005084 280.942625 
Q 795.542002 280.87892 792.892821 280.846921 
Q 790.243639 280.815214 787.419305 280.815214 
Q 781.037186 280.815214 777.309721 281.004877 
Q 773.582257 281.19454 773.582257 281.518886 
Q 773.582257 281.847015 777.375404 282.035223 
Q 781.174023 282.223432 787.780557 282.223432 
Q 790.325742 282.223432 792.657459 282.197833 
Q 794.994651 282.172525 797.06364 282.122491 
L 797.06364 281.841779 
Q 794.928968 281.906066 792.816191 281.937774 
Q 790.703414 281.969772 788.57969 281.969772 
Q 784.649706 281.969772 782.520508 281.852833 
Q 780.391311 281.736184 780.391311 281.518886 
Q 780.391311 281.303625 782.443879 281.186104 
Q 784.496448 281.068873 788.273173 281.068873 
Q 789.302194 281.068873 790.18343 281.075564 
Q 791.064666 281.082545 791.765276 281.09709 
L 791.765276 281.36064 
L 787.742242 281.36064 
L 787.742242 281.595391 
L 798.005084 281.595391 
L 798.005084 280.942625 
z
" clip-path="url(#p31bca595ee)" style="fill: #ffa600"/>
   </g>
   <g id="matplotlib.axis_3">
    <g id="text_6">
     <text style="font-size: 10px; font-family: 'DejaVu Sans', 'Bitstream Vera Sans', 'Computer Modern Sans Serif', 'Lucida Grande', 'Verdana', 'Geneva', 'Lucid', 'Arial', 'Helvetica', 'Avant Garde', sans-serif; text-anchor: middle" x="451.586563" y="342.156562" transform="rotate(-0 451.586563 342.156562)">Region around edits (±15 bp)</text>
    </g>
   </g>
   <g id="matplotlib.axis_4">
    <g id="ytick_3">
     <g id="line2d_6">
      <g>
       <use xlink:href="#m74596c13e6" x="53.751563" y="330.558125" style="stroke: #000000; stroke-width: 0.8"/>
      </g>
     </g>
     <g id="text_7">
      <text style="font-size: 10px; font-family: 'DejaVu Sans', 'Bitstream Vera Sans', 'Computer Modern Sans Serif', 'Lucida Grande', 'Verdana', 'Geneva', 'Lucid', 'Arial', 'Helvetica', 'Avant Garde', sans-serif; text-anchor: end" x="46.751563" y="334.357344" transform="rotate(-0 46.751563 334.357344)">-0.01</text>
     </g>
    </g>
    <g id="ytick_4">
     <g id="line2d_7">
      <g>
       <use xlink:href="#m74596c13e6" x="53.751563" y="196.918125" style="stroke: #000000; stroke-width: 0.8"/>
      </g>
     </g>
     <g id="text_8">
      <text style="font-size: 10px; font-family: 'DejaVu Sans', 'Bitstream Vera Sans', 'Computer Modern Sans Serif', 'Lucida Grande', 'Verdana', 'Geneva', 'Lucid', 'Arial', 'Helvetica', 'Avant Garde', sans-serif; text-anchor: end" x="46.751563" y="200.717344" transform="rotate(-0 46.751563 200.717344)">0.01</text>
     </g>
    </g>
    <g id="text_9">
     <text style="font-size: 10px; font-family: 'DejaVu Sans', 'Bitstream Vera Sans', 'Computer Modern Sans Serif', 'Lucida Grande', 'Verdana', 'Geneva', 'Lucid', 'Arial', 'Helvetica', 'Avant Garde', sans-serif; text-anchor: middle" x="14.798438" y="263.738125" transform="rotate(-90 14.798438 263.738125)">Value magnitude</text>
    </g>
   </g>
   <g id="line2d_8">
    <path d="M 451.586563 330.558125 
L 451.586563 196.918125 
" clip-path="url(#p31bca595ee)" style="fill: none; stroke-dasharray: 3.7,1.6; stroke-dashoffset: 0; stroke: #1f77b4"/>
   </g>
   <g id="patch_67">
    <path d="M 53.751563 330.558125 
L 53.751563 196.918125 
" style="fill: none; stroke: #000000; stroke-linejoin: miter; stroke-linecap: square"/>
   </g>
   <g id="text_10">
    <text style="font-size: 12px; font-family: 'DejaVu Sans', 'Bitstream Vera Sans', 'Computer Modern Sans Serif', 'Lucida Grande', 'Verdana', 'Geneva', 'Lucid', 'Arial', 'Helvetica', 'Avant Garde', sans-serif; text-anchor: middle" x="451.586563" y="190.918125" transform="rotate(-0 451.586563 190.918125)">Updated</text>
   </g>
  </g>
 </g>
 <defs>
  <clipPath id="p2a1fa3b576">
   <rect x="53.751563" y="22.318125" width="795.67" height="133.64"/>
  </clipPath>
  <clipPath id="p31bca595ee">
   <rect x="53.751563" y="196.918125" width="795.67" height="133.64"/>
  </clipPath>
 </defs>
</svg>
